<svg width="500" height="468" viewBox="0 0 500 468" fill="none" xmlns="http://www.w3.org/2000/svg">
<g clip-path="url(#clip0_166_2574)">
<path d="M499.032 357.926H0V358.16H499.032V357.926Z" fill="#EBEBEB"/>
<path d="M236.541 316.181H43.825C42.3152 316.178 40.8682 315.614 39.8016 314.612C38.735 313.61 38.136 312.252 38.136 310.836V56.7777C38.1491 55.37 38.754 54.024 39.8192 53.0321C40.8843 52.0401 42.3238 51.4824 43.825 51.48H236.541C238.053 51.48 239.502 52.0431 240.571 53.0454C241.64 54.0477 242.24 55.4071 242.24 56.8245V310.836C242.24 312.254 241.64 313.613 240.571 314.615C239.502 315.618 238.053 316.181 236.541 316.181ZM43.825 51.6672C42.3814 51.6697 40.9979 52.2092 39.9781 53.1673C38.9583 54.1255 38.3855 55.424 38.3855 56.7777V310.836C38.3855 312.19 38.9583 313.488 39.9781 314.447C40.9979 315.405 42.3814 315.944 43.825 315.947H236.541C237.986 315.944 239.37 315.405 240.392 314.447C241.413 313.489 241.988 312.191 241.991 310.836V56.7777C241.988 55.4231 241.413 54.1246 240.392 53.1668C239.37 52.2089 237.986 51.6697 236.541 51.6672H43.825Z" fill="#EBEBEB"/>
<path d="M452.433 316.181H259.706C258.196 316.178 256.748 315.614 255.68 314.613C254.611 313.611 254.01 312.253 254.007 310.836V56.7777C254.023 55.3692 254.63 54.0232 255.697 53.0315C256.764 52.0398 258.204 51.4824 259.706 51.48H452.433C453.932 51.4849 455.369 52.0437 456.432 53.0354C457.495 54.027 458.099 55.3716 458.112 56.7777V310.836C458.112 312.25 457.514 313.607 456.45 314.609C455.385 315.611 453.941 316.176 452.433 316.181ZM259.706 51.6672C258.262 51.6697 256.877 52.2089 255.856 53.1668C254.835 54.1246 254.26 55.4231 254.257 56.7777V310.836C254.26 312.191 254.835 313.489 255.856 314.447C256.877 315.405 258.262 315.944 259.706 315.947H452.433C453.877 315.944 455.262 315.405 456.283 314.447C457.304 313.489 457.879 312.191 457.882 310.836V56.7777C457.879 55.4231 457.304 54.1246 456.283 53.1668C455.262 52.2089 453.877 51.6697 452.433 51.6672H259.706Z" fill="#EBEBEB"/>
<path d="M94.7064 366.837H52.3585V367.071H94.7064V366.837Z" fill="#EBEBEB"/>
<path d="M200.052 364.301H121.434V364.535H200.052V364.301Z" fill="#EBEBEB"/>
<path d="M105.575 375.532H95.7043V375.766H105.575V375.532Z" fill="#EBEBEB"/>
<path d="M449.029 373.96H412.7V374.194H449.029V373.96Z" fill="#EBEBEB"/>
<path d="M403.817 373.96H390.712V374.194H403.817V373.96Z" fill="#EBEBEB"/>
<path d="M237.43 370.01H182.975V370.244H237.43V370.01Z" fill="#EBEBEB"/>
<path d="M217.239 90.5861H73.198V357.926H217.239V90.5861Z" fill="#F0F0F0"/>
<path d="M217.249 90.5861H76.2422V357.926H217.249V90.5861Z" fill="#F5F5F5"/>
<path d="M208.655 351.861L208.655 96.6514L84.8355 96.6514L84.8355 351.861H208.655Z" fill="#F0F0F0"/>
<path d="M189.373 336.464H104.108C102.09 336.461 100.156 335.708 98.7297 334.369C97.3038 333.03 96.5028 331.215 96.5028 329.322V281.736C96.5028 279.844 97.3038 278.028 98.7297 276.689C100.156 275.35 102.09 274.597 104.108 274.594H189.373C191.392 274.597 193.327 275.35 194.755 276.689C196.182 278.028 196.985 279.843 196.988 281.736V329.36C196.975 331.247 196.167 333.052 194.741 334.383C193.314 335.713 191.385 336.462 189.373 336.464ZM104.108 275.493C103.237 275.494 102.374 275.657 101.57 275.972C100.765 276.286 100.035 276.747 99.4213 277.327C98.8074 277.907 98.3217 278.595 97.9921 279.352C97.6626 280.109 97.4956 280.919 97.5009 281.736V329.36C97.5009 331.004 98.1967 332.581 99.4355 333.744C100.674 334.908 102.355 335.563 104.108 335.565H189.373C191.127 335.563 192.808 334.908 194.049 333.745C195.289 332.582 195.987 331.005 195.99 329.36V281.736C195.987 280.091 195.289 278.514 194.049 277.351C192.808 276.187 191.127 275.533 189.373 275.53L104.108 275.493Z" fill="white"/>
<path d="M133.741 267.63H104.108C102.09 267.628 100.156 266.874 98.7297 265.535C97.3038 264.196 96.5028 262.381 96.5028 260.489V122.897C96.5028 121.004 97.3038 119.189 98.7297 117.85C100.156 116.511 102.09 115.758 104.108 115.755H133.741C135.759 115.758 137.693 116.511 139.119 117.85C140.545 119.189 141.346 121.004 141.346 122.897V260.489C141.346 262.381 140.545 264.196 139.119 265.535C137.693 266.874 135.759 267.628 133.741 267.63ZM104.108 116.71C102.355 116.712 100.674 117.367 99.4355 118.531C98.1967 119.694 97.5009 121.271 97.5009 122.916V260.508C97.5009 262.152 98.1967 263.729 99.4355 264.892C100.674 266.056 102.355 266.711 104.108 266.713H133.741C135.494 266.711 137.174 266.056 138.413 264.892C139.652 263.729 140.348 262.152 140.348 260.508V122.916C140.348 121.271 139.652 119.694 138.413 118.531C137.174 117.367 135.494 116.712 133.741 116.71H104.108Z" fill="white"/>
<path d="M189.373 267.63H159.69C157.672 267.628 155.738 266.874 154.312 265.535C152.886 264.196 152.085 262.381 152.085 260.489V122.897C152.085 121.004 152.886 119.189 154.312 117.85C155.738 116.511 157.672 115.758 159.69 115.755H189.353C191.372 115.758 193.307 116.511 194.735 117.85C196.162 119.188 196.965 121.003 196.968 122.897V260.489C196.965 262.379 196.165 264.191 194.742 265.529C193.318 266.868 191.388 267.623 189.373 267.63ZM159.69 116.71C157.937 116.712 156.257 117.367 155.018 118.531C153.779 119.694 153.083 121.271 153.083 122.916V260.508C153.083 262.152 153.779 263.729 155.018 264.892C156.257 266.056 157.937 266.711 159.69 266.713H189.353C191.107 266.711 192.789 266.056 194.029 264.893C195.269 263.73 195.967 262.153 195.97 260.508V122.916C195.967 121.27 195.269 119.693 194.029 118.53C192.789 117.367 191.107 116.712 189.353 116.71H159.69Z" fill="white"/>
<path d="M180.241 213.754H198.874C199.526 213.754 200.15 213.512 200.61 213.08C201.071 212.648 201.33 212.062 201.33 211.452C201.327 210.842 201.067 210.258 200.608 209.826C200.148 209.395 199.525 209.152 198.874 209.149H180.241C179.589 209.149 178.965 209.392 178.504 209.824C178.044 210.255 177.785 210.841 177.785 211.452C177.785 212.062 178.044 212.648 178.504 213.08C178.965 213.512 179.589 213.754 180.241 213.754Z" fill="#E0E0E0"/>
<path d="M208.655 351.861L208.655 96.6514H206.43L206.43 351.861H208.655Z" fill="#F0F0F0"/>
<path d="M399.096 76.0219H281.993V206.903H399.096V76.0219Z" fill="#E6E6E6"/>
<path d="M408.039 76.0219H284.977V206.903H408.039V76.0219Z" fill="#F5F5F5"/>
<path d="M397.739 85.6908H295.287V197.234H397.739V85.6908Z" fill="white"/>
<path d="M357.547 143.021C357.466 143.022 357.386 143.008 357.311 142.98C357.236 142.952 357.167 142.91 357.11 142.857C357.052 142.804 357.006 142.74 356.975 142.671C356.944 142.601 356.928 142.526 356.928 142.45V106.751C356.947 106.611 357.02 106.482 357.133 106.389C357.246 106.295 357.391 106.244 357.542 106.244C357.692 106.244 357.838 106.295 357.951 106.389C358.064 106.482 358.136 106.611 358.155 106.751V142.45C358.155 142.601 358.091 142.746 357.977 142.854C357.863 142.961 357.708 143.021 357.547 143.021Z" fill="#E6E6E6"/>
<path d="M299.419 197.243L316.516 169.06C316.768 168.644 317.119 168.288 317.543 168.021C317.967 167.754 318.451 167.582 318.957 167.521C319.463 167.459 319.978 167.508 320.46 167.665C320.942 167.822 321.379 168.082 321.736 168.424L330.639 176.951L354.542 138.968C354.841 138.496 355.268 138.108 355.779 137.841C356.29 137.575 356.867 137.441 357.452 137.452C358.036 137.464 358.607 137.62 359.106 137.906C359.605 138.192 360.014 138.598 360.291 139.08L393.557 197.243H299.419Z" fill="#F0F0F0"/>
<path d="M357.846 126.603C348.594 126.426 339.332 124.582 330.07 124.404C329.69 124.399 329.327 124.254 329.06 124C328.792 123.746 328.643 123.403 328.643 123.047V107.135C328.641 106.953 328.679 106.773 328.753 106.606C328.827 106.438 328.936 106.286 329.074 106.159C329.211 106.031 329.375 105.931 329.555 105.864C329.734 105.797 329.926 105.764 330.12 105.768C339.372 105.955 348.634 107.79 357.896 107.977C358.275 107.979 358.638 108.123 358.906 108.375C359.173 108.628 359.323 108.969 359.323 109.325V125.237C359.325 125.418 359.287 125.598 359.213 125.766C359.139 125.933 359.03 126.085 358.892 126.213C358.755 126.34 358.591 126.44 358.411 126.507C358.232 126.574 358.04 126.607 357.846 126.603Z" fill="#F0F0F0"/>
<path d="M438.829 254.358H413.578V357.926H438.829V254.358Z" fill="#E6E6E6"/>
<path d="M427.89 357.926H438.829V340.741H427.621L427.89 357.926Z" fill="#F5F5F5"/>
<path d="M293.261 254.358H268.01V357.926H293.261V254.358Z" fill="#E6E6E6"/>
<path d="M438.829 254.358H283.72V352.011H438.829V254.358Z" fill="#F5F5F5"/>
<path d="M294.649 357.926H283.72V340.741H294.918L294.649 357.926Z" fill="#F5F5F5"/>
<path d="M427.062 262.576H295.487C293.674 262.576 292.203 263.955 292.203 265.655V295.514C292.203 297.215 293.674 298.593 295.487 298.593H427.062C428.875 298.593 430.345 297.215 430.345 295.514V265.655C430.345 263.955 428.875 262.576 427.062 262.576Z" fill="#EBEBEB"/>
<path d="M404.216 288.666C409.929 287.401 413.468 282.032 412.119 276.674C410.771 271.316 405.046 267.998 399.333 269.262C393.619 270.527 390.081 275.896 391.429 281.254C392.778 286.612 398.502 289.931 404.216 288.666Z" fill="white"/>
<path d="M427.062 307.289H295.487C293.674 307.289 292.203 308.668 292.203 310.368V340.227C292.203 341.927 293.674 343.306 295.487 343.306H427.062C428.875 343.306 430.345 341.927 430.345 340.227V310.368C430.345 308.668 428.875 307.289 427.062 307.289Z" fill="#EBEBEB"/>
<path d="M401.781 333.637C407.651 333.637 412.41 329.174 412.41 323.669C412.41 318.163 407.651 313.7 401.781 313.7C395.91 313.7 391.151 318.163 391.151 323.669C391.151 329.174 395.91 333.637 401.781 333.637Z" fill="white"/>
<path d="M323.194 288.664C328.907 287.399 332.446 282.03 331.097 276.672C329.749 271.314 324.024 267.996 318.31 269.26C312.597 270.525 309.059 275.894 310.407 281.252C311.756 286.61 317.48 289.929 323.194 288.664Z" fill="white"/>
<path d="M320.758 333.637C326.628 333.637 331.387 329.174 331.387 323.669C331.387 318.163 326.628 313.7 320.758 313.7C314.888 313.7 310.129 318.163 310.129 323.669C310.129 329.174 314.888 333.637 320.758 333.637Z" fill="white"/>
<path d="M249.516 400.196C356.391 400.196 443.031 395.452 443.031 389.601C443.031 383.749 356.391 379.005 249.516 379.005C142.641 379.005 56.0013 383.749 56.0013 389.601C56.0013 395.452 142.641 400.196 249.516 400.196Z" fill="#F5F5F5"/>
<path d="M233.747 204.048V196.363L238.807 195.006C239.114 192.425 239.654 189.873 240.424 187.378L236.302 184.289L239.426 177.204L244.656 177.765C246.013 175.497 247.562 173.334 249.287 171.297L246.732 166.973L252.5 161.544L257.131 163.94C259.293 162.32 261.597 160.874 264.018 159.616L263.419 154.711L270.985 151.763L274.258 155.629C276.93 154.925 279.656 154.418 282.412 154.112L283.86 149.367H292.034L293.511 154.112C296.26 154.42 298.979 154.927 301.645 155.629L304.929 151.763L312.484 154.711L311.885 159.616C314.311 160.872 316.618 162.318 318.782 163.94L323.393 161.544L329.192 166.973L326.627 171.288C328.349 173.323 329.891 175.486 331.238 177.756L336.468 177.194L339.611 184.28L335.469 187.369C336.243 189.862 336.784 192.415 337.086 194.997L342.176 196.354V204.048L337.086 205.405C336.787 207.991 336.246 210.547 335.469 213.043L339.611 216.122L336.468 223.208L331.238 222.665C329.891 224.929 328.348 227.086 326.627 229.114L329.192 233.457L323.373 238.839L318.762 236.434C316.596 238.059 314.289 239.512 311.865 240.777L312.464 245.681L304.909 248.611L301.625 244.745C298.964 245.465 296.243 245.972 293.491 246.262L292.014 251.017H283.84L282.452 246.262C279.693 245.974 276.965 245.467 274.298 244.745L271.024 248.611L263.459 245.681L264.058 240.777C261.639 239.509 259.335 238.057 257.171 236.434L252.51 238.839L246.742 233.42L249.297 229.077C247.572 227.047 246.023 224.89 244.666 222.628L239.436 223.171L236.312 216.085L240.434 213.006C239.662 210.508 239.121 207.953 238.817 205.368L233.747 204.048ZM287.952 235.619C295.42 235.619 302.72 233.542 308.929 229.651C315.138 225.76 319.978 220.229 322.835 213.759C325.693 207.288 326.44 200.168 324.982 193.299C323.524 186.43 319.928 180.121 314.646 175.169C309.365 170.218 302.636 166.846 295.311 165.481C287.987 164.116 280.395 164.818 273.496 167.5C266.597 170.181 260.701 174.721 256.553 180.545C252.406 186.369 250.193 193.216 250.195 200.22C250.205 209.603 254.188 218.599 261.268 225.23C268.348 231.861 277.946 235.584 287.952 235.582V235.619Z" fill="#79AE92"/>
<path opacity="0.7" d="M233.747 204.048V196.363L238.807 195.006C239.114 192.425 239.654 189.873 240.424 187.378L236.302 184.289L239.426 177.204L244.656 177.765C246.013 175.497 247.562 173.334 249.287 171.297L246.732 166.973L252.5 161.544L257.131 163.94C259.293 162.32 261.597 160.874 264.018 159.616L263.419 154.711L270.985 151.763L274.258 155.629C276.93 154.925 279.656 154.418 282.412 154.112L283.86 149.367H292.034L293.511 154.112C296.26 154.42 298.979 154.927 301.645 155.629L304.929 151.763L312.484 154.711L311.885 159.616C314.311 160.872 316.618 162.318 318.782 163.94L323.393 161.544L329.192 166.973L326.627 171.288C328.349 173.323 329.891 175.486 331.238 177.756L336.468 177.194L339.611 184.28L335.469 187.369C336.243 189.862 336.784 192.415 337.086 194.997L342.176 196.354V204.048L337.086 205.405C336.787 207.991 336.246 210.547 335.469 213.043L339.611 216.122L336.468 223.208L331.238 222.665C329.891 224.929 328.348 227.086 326.627 229.114L329.192 233.457L323.373 238.839L318.762 236.434C316.596 238.059 314.289 239.512 311.865 240.777L312.464 245.681L304.909 248.611L301.625 244.745C298.964 245.465 296.243 245.972 293.491 246.262L292.014 251.017H283.84L282.452 246.262C279.693 245.974 276.965 245.467 274.298 244.745L271.024 248.611L263.459 245.681L264.058 240.777C261.639 239.509 259.335 238.057 257.171 236.434L252.51 238.839L246.742 233.42L249.297 229.077C247.572 227.047 246.023 224.89 244.666 222.628L239.436 223.171L236.312 216.085L240.434 213.006C239.662 210.508 239.121 207.953 238.817 205.368L233.747 204.048ZM287.952 235.619C295.42 235.619 302.72 233.542 308.929 229.651C315.138 225.76 319.978 220.229 322.835 213.759C325.693 207.288 326.44 200.168 324.982 193.299C323.524 186.43 319.928 180.121 314.646 175.169C309.365 170.218 302.636 166.846 295.311 165.481C287.987 164.116 280.395 164.818 273.496 167.5C266.597 170.181 260.701 174.721 256.553 180.545C252.406 186.369 250.193 193.216 250.195 200.22C250.205 209.603 254.188 218.599 261.268 225.23C268.348 231.861 277.946 235.584 287.952 235.582V235.619Z" fill="white"/>
<path d="M207.847 258.832C208.402 257.164 209.134 255.552 210.033 254.021L208.935 249.341L216.38 242.358L221.371 243.388C223.003 242.545 224.722 241.859 226.501 241.338L229.745 236.583H240.294L243.528 241.338C245.31 241.859 247.032 242.546 248.668 243.388L253.658 242.358L261.114 249.341L260.016 254.021C260.91 255.554 261.642 257.165 262.202 258.832L267.262 261.874V271.758L262.202 274.8C261.639 276.469 260.907 278.083 260.016 279.621L261.114 284.301L253.658 291.293L248.668 290.263C247.03 291.102 245.308 291.788 243.528 292.313L240.294 297.058H229.764L226.561 292.322C224.783 291.798 223.065 291.111 221.431 290.272L216.44 291.302L208.995 284.31L210.093 279.63C209.198 278.094 208.465 276.48 207.907 274.81L202.847 271.768V261.874L207.847 258.832ZM235.034 280.51C237.923 280.512 240.747 279.71 243.149 278.207C245.552 276.703 247.425 274.565 248.532 272.063C249.638 269.561 249.929 266.807 249.367 264.15C248.804 261.493 247.414 259.053 245.373 257.137C243.331 255.221 240.729 253.915 237.897 253.386C235.064 252.857 232.127 253.128 229.459 254.164C226.79 255.2 224.509 256.955 222.904 259.207C221.299 261.46 220.443 264.107 220.443 266.816C220.443 270.446 221.98 273.928 224.716 276.496C227.452 279.064 231.163 280.507 235.034 280.51Z" fill="#79AE92"/>
<path opacity="0.5" d="M207.847 258.832C208.402 257.164 209.134 255.552 210.033 254.021L208.935 249.341L216.38 242.358L221.371 243.388C223.003 242.545 224.722 241.859 226.501 241.338L229.745 236.583H240.294L243.528 241.338C245.31 241.859 247.032 242.546 248.668 243.388L253.658 242.358L261.114 249.341L260.016 254.021C260.91 255.554 261.642 257.165 262.202 258.832L267.262 261.874V271.758L262.202 274.8C261.639 276.469 260.907 278.083 260.016 279.621L261.114 284.301L253.658 291.293L248.668 290.263C247.03 291.102 245.308 291.788 243.528 292.313L240.294 297.058H229.764L226.561 292.322C224.783 291.798 223.065 291.111 221.431 290.272L216.44 291.302L208.995 284.31L210.093 279.63C209.198 278.094 208.465 276.48 207.907 274.81L202.847 271.768V261.874L207.847 258.832ZM235.034 280.51C237.923 280.512 240.747 279.71 243.149 278.207C245.552 276.703 247.425 274.565 248.532 272.063C249.638 269.561 249.929 266.807 249.367 264.15C248.804 261.493 247.414 259.053 245.373 257.137C243.331 255.221 240.729 253.915 237.897 253.386C235.064 252.857 232.127 253.128 229.459 254.164C226.79 255.2 224.509 256.955 222.904 259.207C221.299 261.46 220.443 264.107 220.443 266.816C220.443 270.446 221.98 273.928 224.716 276.496C227.452 279.064 231.163 280.507 235.034 280.51Z" fill="white"/>
<path d="M406.761 92.6639V215.149C425.335 215.149 442.961 193.172 442.961 153.878C442.961 114.585 425.335 92.6639 406.761 92.6639Z" fill="#263238"/>
<path d="M391.511 97.1661L391.082 96.7168C391.959 95.975 392.879 95.2783 393.836 94.6295L394.216 95.1256C393.27 95.7534 392.367 96.4348 391.511 97.1661Z" fill="#79AE92"/>
<path d="M381.55 109.868L380.981 109.596C382.789 106.229 384.992 103.061 387.548 100.152L388.047 100.545C385.514 103.413 383.335 106.541 381.55 109.868Z" fill="#79AE92"/>
<path d="M406.761 215.149C425.332 215.149 440.386 187.717 440.386 153.878C440.386 120.04 425.332 92.6078 406.761 92.6078C388.191 92.6078 373.136 120.04 373.136 153.878C373.136 187.717 388.191 215.149 406.761 215.149Z" fill="#79AE92"/>
<path d="M406.761 202.897C421.622 202.897 433.669 180.95 433.669 153.878C433.669 126.806 421.622 104.86 406.761 104.86C391.9 104.86 379.853 126.806 379.853 153.878C379.853 180.95 391.9 202.897 406.761 202.897Z" fill="white"/>
<path d="M406.761 190.644C417.907 190.644 426.942 174.184 426.942 153.878C426.942 133.573 417.907 117.112 406.761 117.112C395.616 117.112 386.58 133.573 386.58 153.878C386.58 174.184 395.616 190.644 406.761 190.644Z" fill="#79AE92"/>
<path d="M406.761 178.383C414.192 178.383 420.215 167.412 420.215 153.878C420.215 140.345 414.192 129.374 406.761 129.374C399.331 129.374 393.307 140.345 393.307 153.878C393.307 167.412 399.331 178.383 406.761 178.383Z" fill="white"/>
<path d="M406.761 166.131C410.476 166.131 413.488 160.645 413.488 153.878C413.488 147.112 410.476 141.626 406.761 141.626C403.046 141.626 400.034 147.112 400.034 153.878C400.034 160.645 403.046 166.131 406.761 166.131Z" fill="#79AE92"/>
<path d="M376.27 208.419L330.359 240.14L350.47 242.705L311.226 304.004L254.786 294.644C254.102 294.528 253.398 294.583 252.743 294.801C252.089 295.019 251.506 295.394 251.053 295.888L204.144 346.769L139.1 337.129C138.412 337.027 137.709 337.072 137.042 337.26C136.375 337.448 135.762 337.774 135.248 338.214L84.4262 381.888C83.4587 382.736 82.89 383.909 82.845 385.15C82.8001 386.391 83.2827 387.598 84.1867 388.506C85.0906 389.413 86.3419 389.946 87.6652 389.988C88.9886 390.031 90.2755 389.578 91.243 388.73L139.869 346.086L205.142 355.231C205.878 355.341 206.632 355.271 207.332 355.028C208.031 354.786 208.652 354.378 209.134 353.846L255.604 302.422L312.394 311.463C313.148 311.583 313.923 311.486 314.617 311.183C315.31 310.88 315.889 310.387 316.277 309.769L356.349 246.065L368.326 261.416L376.27 208.419Z" fill="#263238"/>
<path d="M171.228 164.68L170.709 164.923L170.07 165.232C169.641 165.457 169.192 165.672 168.753 165.915C167.874 166.383 166.996 166.898 166.128 167.441C164.381 168.499 162.695 169.678 161.028 170.904C159.361 172.13 157.784 173.46 156.217 174.817L153.932 176.904L152.814 177.99L152.265 178.542L152.055 178.748C151.353 179.878 151.088 181.2 151.307 182.492C151.467 184.354 151.845 186.193 152.434 187.977C153.719 191.857 155.324 195.638 157.235 199.284L153.492 201.577C150.538 198.069 148.06 194.23 146.117 190.148C145.072 187.969 144.318 185.677 143.871 183.325C143.627 181.984 143.567 180.618 143.691 179.263C143.831 177.652 144.364 176.092 145.248 174.704C145.49 174.331 145.76 173.974 146.057 173.637L146.616 172.982L147.753 171.69C148.522 170.829 149.32 169.996 150.129 169.173C151.776 167.53 153.511 165.968 155.329 164.493C157.165 162.999 159.098 161.615 161.118 160.346C162.116 159.71 163.174 159.101 164.271 158.53C164.8 158.231 165.359 157.959 165.928 157.688L166.817 157.285C167.136 157.145 167.375 157.042 167.815 156.864L171.228 164.68Z" fill="#B55B52"/>
<path d="M185.251 131.33C185.59 136.319 186.389 147.242 182.257 150.05C182.257 150.05 182.985 155.161 192.626 156.349C203.236 157.65 198.385 152.034 198.385 152.034C192.776 150.031 193.485 146.016 195.022 142.366L185.251 131.33Z" fill="#B55B52"/>
<path d="M180.221 152.568C180.221 152.568 179.282 149.76 178.943 148.122C178.604 146.484 191.708 147.018 196.05 148.057C200.391 149.095 201.769 153.869 201.769 153.869L180.221 152.568Z" fill="#263238"/>
<path d="M204.663 127.839C205.463 129.292 206.471 130.637 207.657 131.836C207.326 132.114 206.933 132.32 206.507 132.438C206.08 132.556 205.631 132.584 205.192 132.519L204.663 127.839Z" fill="#A02724"/>
<path d="M201.609 123.496C201.543 123.493 201.478 123.477 201.419 123.449C201.371 123.424 201.328 123.391 201.293 123.351C201.258 123.311 201.232 123.265 201.217 123.215C201.201 123.166 201.196 123.114 201.201 123.062C201.207 123.011 201.224 122.961 201.25 122.915C201.545 122.358 201.978 121.875 202.513 121.507C203.047 121.139 203.669 120.897 204.324 120.8C204.433 120.792 204.542 120.825 204.626 120.892C204.71 120.958 204.763 121.053 204.773 121.156C204.78 121.207 204.776 121.259 204.761 121.309C204.746 121.358 204.72 121.404 204.686 121.445C204.651 121.485 204.609 121.518 204.56 121.542C204.512 121.567 204.458 121.582 204.404 121.586C203.886 121.667 203.397 121.863 202.976 122.158C202.556 122.453 202.217 122.838 201.988 123.28C201.952 123.345 201.898 123.4 201.831 123.438C201.764 123.476 201.687 123.496 201.609 123.496Z" fill="#263238"/>
<path d="M203.905 126.762C203.974 127.427 204.414 127.923 204.903 127.886C205.392 127.848 205.681 127.268 205.611 126.603C205.541 125.939 205.102 125.433 204.613 125.48C204.124 125.527 203.835 126.098 203.905 126.762Z" fill="#263238"/>
<path d="M204.414 125.536L206.06 124.909C206.06 124.909 205.322 126.238 204.414 125.536Z" fill="#263238"/>
<path d="M136.605 335.21L145.119 337.372L153.183 319.578L144.669 317.416L136.605 335.21Z" fill="#B55B52"/>
<path d="M148.103 331.344L138.312 329.893C138.144 329.868 137.971 329.9 137.826 329.985C137.682 330.069 137.574 330.199 137.523 330.352L135.188 337.447C135.136 337.627 135.126 337.816 135.157 338C135.188 338.185 135.26 338.361 135.368 338.518C135.476 338.675 135.618 338.809 135.785 338.912C135.951 339.014 136.139 339.083 136.336 339.113C139.759 339.562 141.436 339.618 145.737 340.255C148.382 340.648 152.215 341.481 155.868 342.014C159.521 342.548 160.289 339.206 158.862 338.664C152.265 336.277 151.506 334.218 149.51 332.112C149.153 331.708 148.654 331.436 148.103 331.344Z" fill="#263238"/>
<path opacity="0.2" d="M144.669 317.416L153.183 319.588L149.021 328.761L140.508 326.589L144.669 317.416Z" fill="black"/>
<path d="M175.35 151.735C171.857 150.462 161.297 158.718 161.297 158.718L166.008 173.937C166.008 173.937 177.835 167.497 178.893 163.032C180.001 158.39 179.482 153.242 175.35 151.735Z" fill="#79AE92"/>
<path d="M214.634 159.382C214.634 164.699 214.843 174.555 211.151 192.142C210.482 195.334 211.799 196.757 211.21 200.014C210.821 202.148 209.544 201.83 209.364 202.869H173.554C173.554 201.876 171.987 201.343 171.617 199.181C170.789 194.239 173.843 193.827 173.743 190.71C173.494 182.848 172.266 174.002 168.603 158.483C168.416 157.726 168.4 156.939 168.554 156.175C168.708 155.411 169.03 154.685 169.5 154.043C169.969 153.402 170.575 152.859 171.28 152.449C171.984 152.038 172.772 151.77 173.593 151.66C176.168 151.314 179.262 150.977 182.396 150.836C187.812 150.471 193.249 150.471 198.665 150.836C201.839 151.108 205.202 151.566 207.937 151.988C209.807 152.274 211.508 153.175 212.735 154.53C213.962 155.885 214.635 157.605 214.634 159.382Z" fill="#79AE92"/>
<path opacity="0.2" d="M204.743 164.006C206.34 167.581 211.43 172.945 213.885 175.416C214.264 171.971 214.454 169.051 214.554 166.58L204.743 164.006Z" fill="black"/>
<path d="M215.582 156.724C218.516 159.532 221.71 162.396 224.894 165.045C227.988 167.688 231.302 170.095 234.805 172.243C235.224 172.514 235.653 172.701 236.072 172.945L236.701 173.282H236.631H236.511C236.252 173.282 236.831 173.385 237.509 173.151C239.248 172.511 240.886 171.655 242.38 170.605C245.844 168.23 249.16 165.671 252.311 162.939L255.734 165.625C253.152 169.276 250.138 172.642 246.752 175.659C244.889 177.364 242.754 178.785 240.424 179.871C239.68 180.201 238.9 180.455 238.098 180.629C237.057 180.853 235.979 180.885 234.924 180.723C234.613 180.672 234.306 180.6 234.006 180.508C233.847 180.466 233.69 180.416 233.537 180.358L233.148 180.199L232.3 179.824C231.751 179.562 231.152 179.319 230.633 179.038C226.498 176.88 222.603 174.34 219.005 171.457C215.459 168.681 212.102 165.698 208.955 162.527L215.582 156.724Z" fill="#B55B52"/>
<path d="M254.716 160.056C253.081 161.174 251.773 162.662 250.913 164.38L251.662 167.525C251.682 167.605 251.72 167.679 251.775 167.743C251.829 167.807 251.899 167.858 251.977 167.893C252.056 167.928 252.142 167.946 252.229 167.946C252.316 167.945 252.402 167.926 252.48 167.89L257.84 165.419L260.076 164.352C260.316 164.237 260.512 164.054 260.636 163.829C260.759 163.604 260.804 163.348 260.764 163.098L260.395 160.711C260.351 160.417 260.191 160.149 259.948 159.958C259.704 159.768 259.394 159.669 259.078 159.682L255.604 159.785C255.287 159.793 254.978 159.887 254.716 160.056Z" fill="#B55B52"/>
<path d="M158.483 201.942C158.26 203.828 157.54 205.633 156.387 207.193L153.103 208.129C153.02 208.153 152.932 208.159 152.846 208.147C152.76 208.135 152.678 208.105 152.606 208.059C152.534 208.013 152.474 207.953 152.431 207.882C152.387 207.812 152.361 207.733 152.355 207.652L151.965 202.036L151.816 199.171C151.81 199.068 151.838 198.966 151.897 198.879C151.956 198.791 152.043 198.724 152.145 198.685L155.668 197.374C155.791 197.33 155.927 197.329 156.05 197.373C156.173 197.416 156.275 197.5 156.337 197.608L158.333 201.043C158.474 201.323 158.526 201.635 158.483 201.942Z" fill="#B55B52"/>
<path d="M122.512 229.648L158.313 233.579C159.174 233.637 160.032 233.437 160.764 233.008C161.496 232.579 162.064 231.943 162.385 231.192L170.01 211.414C170.161 211.093 170.226 210.742 170.2 210.391C170.175 210.041 170.059 209.702 169.862 209.403C169.666 209.103 169.396 208.853 169.074 208.674C168.752 208.495 168.388 208.391 168.014 208.372L132.214 204.441C131.353 204.383 130.494 204.583 129.763 205.012C129.031 205.441 128.463 206.077 128.142 206.828L120.516 226.606C120.366 226.927 120.3 227.278 120.326 227.628C120.352 227.979 120.468 228.318 120.664 228.617C120.86 228.916 121.131 229.166 121.453 229.346C121.775 229.525 122.138 229.629 122.512 229.648Z" fill="#263238"/>
<path d="M126.754 236.546L170.669 241.329C171.665 241.43 172.664 241.17 173.462 240.603C174.259 240.036 174.796 239.204 174.961 238.277L179.232 213.09C179.314 212.642 179.297 212.184 179.183 211.743C179.069 211.302 178.859 210.887 178.567 210.525C178.276 210.163 177.908 209.86 177.487 209.637C177.065 209.413 176.6 209.272 176.118 209.224L132.204 204.441C131.207 204.342 130.208 204.604 129.41 205.173C128.613 205.742 128.077 206.575 127.912 207.502L123.64 232.69C123.558 233.136 123.575 233.594 123.69 234.035C123.804 234.475 124.014 234.889 124.306 235.251C124.598 235.612 124.966 235.914 125.387 236.137C125.808 236.359 126.273 236.499 126.754 236.546Z" fill="#79AE92"/>
<path opacity="0.3" d="M126.754 236.546L170.669 241.329C171.665 241.43 172.664 241.17 173.462 240.603C174.259 240.036 174.796 239.204 174.961 238.277L179.232 213.09C179.314 212.642 179.297 212.184 179.183 211.743C179.069 211.302 178.859 210.887 178.567 210.525C178.276 210.163 177.908 209.86 177.487 209.637C177.065 209.413 176.6 209.272 176.118 209.224L132.204 204.441C131.207 204.342 130.208 204.604 129.41 205.173C128.613 205.742 128.077 206.575 127.912 207.502L123.64 232.69C123.558 233.136 123.575 233.594 123.69 234.035C123.804 234.475 124.014 234.889 124.306 235.251C124.598 235.612 124.966 235.914 125.387 236.137C125.808 236.359 126.273 236.499 126.754 236.546Z" fill="black"/>
<path d="M161.068 214.522H160.828L148.083 213.127C147.81 213.1 147.546 213.02 147.307 212.893C147.068 212.766 146.86 212.594 146.696 212.388C146.526 212.183 146.405 211.947 146.338 211.696C146.271 211.445 146.26 211.183 146.306 210.928L147.235 205.499C147.414 204.488 147.999 203.58 148.869 202.961C149.739 202.341 150.829 202.057 151.915 202.167L160.439 203.103C160.998 203.162 161.538 203.327 162.026 203.587C162.515 203.848 162.942 204.199 163.282 204.619C163.621 205.039 163.867 205.52 164.002 206.031C164.138 206.543 164.162 207.075 164.072 207.595L163.174 212.856C163.087 213.321 162.828 213.743 162.443 214.048C162.058 214.352 161.571 214.52 161.068 214.522ZM148.312 211.265L161.058 212.65C161.092 212.653 161.126 212.644 161.153 212.625C161.181 212.606 161.2 212.578 161.207 212.547L162.096 207.277C162.147 207.008 162.138 206.732 162.069 206.466C162 206.2 161.873 205.95 161.696 205.733C161.518 205.515 161.294 205.332 161.039 205.197C160.783 205.062 160.501 204.977 160.209 204.947L151.706 204.048C151.13 204 150.555 204.155 150.095 204.485C149.635 204.814 149.323 205.292 149.221 205.826L148.302 211.255L148.223 212.191L148.312 211.265Z" fill="#79AE92"/>
<path d="M175.35 241.844L131.435 237.061C130.435 236.938 129.52 236.47 128.869 235.748C128.217 235.026 127.876 234.103 127.912 233.158L129.269 207.652C129.286 207.201 129.403 206.759 129.613 206.354C129.822 205.948 130.12 205.588 130.486 205.296C130.852 205.005 131.28 204.788 131.74 204.66C132.201 204.532 132.685 204.496 133.162 204.553L177.077 209.336C178.082 209.447 179.005 209.911 179.659 210.636C180.314 211.361 180.65 212.291 180.6 213.239L179.242 238.746C179.226 239.196 179.109 239.638 178.899 240.044C178.69 240.449 178.392 240.809 178.026 241.101C177.659 241.392 177.232 241.609 176.771 241.737C176.311 241.865 175.827 241.901 175.35 241.844Z" fill="#79AE92"/>
<path d="M208.775 152.306C215.552 153.841 222.568 160.103 222.568 160.103L216.58 173.937C216.58 173.937 202.607 165.943 201.31 161.535C199.613 155.675 202.238 150.827 208.775 152.306Z" fill="#79AE92"/>
<path d="M179.861 126.791C181.289 134.887 181.718 138.341 186.558 142.103C193.854 147.719 204.154 144.331 205.332 136.001C206.39 128.513 203.875 116.513 195.012 114.089C193.06 113.556 190.996 113.497 189.014 113.919C187.031 114.34 185.196 115.228 183.68 116.499C182.165 117.769 181.019 119.381 180.351 121.181C179.683 122.982 179.514 124.912 179.861 126.791Z" fill="#B55B52"/>
<path d="M201.2 114.735C195.471 114.126 185.231 106.311 179.402 114.314C174.072 121.689 171.368 122.738 163.124 125.742C149.37 130.703 157.025 135.963 151.147 143.919C145.268 151.875 135.338 149.535 133.93 160.29C131.764 176.754 162.205 196.953 180.42 178.383C198.635 159.813 186.638 153.504 194.842 148.197C205.232 141.439 202.607 130.188 199.034 128.653C202.946 124.909 208.446 115.521 201.2 114.735Z" fill="#263238"/>
<path d="M202.118 126.987C203.336 128.226 204.077 129.81 204.224 131.489C204.354 133.595 202.228 133.764 200.451 132.425C198.814 131.246 196.768 128.681 197.457 126.959C198.146 125.237 200.611 125.424 202.118 126.987Z" fill="#B55B52"/>
<path d="M199.912 202.906C199.912 202.906 196.399 252.308 182.796 277.655C177.256 287.951 151.955 326.28 151.955 326.28L139.579 324.352C139.579 324.352 157.475 282.672 168.453 272.872C169.601 245.307 161.018 216.394 173.553 202.878L199.912 202.906Z" fill="#263238"/>
<path opacity="0.4" d="M188.035 216.216C187.646 227.897 189.106 239.568 192.367 250.848C194.363 242.892 195.84 234.796 196.968 227.579C194.495 223.465 191.495 219.649 188.035 216.216Z" fill="black"/>
<path d="M152.834 327.956L138.052 324.193L139.849 319.429L155.758 322.948L152.834 327.956Z" fill="#263238"/>
<path d="M252.001 291.021L260.984 292.257L259.187 273.228L250.205 271.983L252.001 291.021Z" fill="#B55B52"/>
<path d="M261.014 286.584L251.223 285.18C251.055 285.155 250.882 285.188 250.737 285.272C250.593 285.356 250.485 285.487 250.434 285.639L248.139 292.753C248.089 292.934 248.081 293.123 248.114 293.308C248.147 293.492 248.22 293.668 248.33 293.824C248.441 293.98 248.584 294.113 248.752 294.214C248.921 294.315 249.109 294.381 249.307 294.409C252.73 294.84 254.407 294.887 258.718 295.495C261.363 295.879 265.196 296.684 268.849 297.208C272.502 297.732 273.26 294.4 271.783 293.838C265.176 291.489 264.407 289.43 262.391 287.286C262.038 286.904 261.548 286.655 261.014 286.584Z" fill="#263238"/>
<path opacity="0.2" d="M250.195 271.983L259.197 273.228L260.026 282.12L251.123 281.802L250.195 271.983Z" fill="black"/>
<path d="M209.364 202.906C209.364 202.906 268.439 212.266 266.104 228.524C262.421 254.199 260.984 277.992 260.984 277.992L249.516 277.056C249.516 277.056 244.706 251.784 248.019 234.861C234.216 229.011 175.789 251.756 183.005 202.906H209.364Z" fill="#263238"/>
<path d="M262.241 280.669L247.021 278.984L246.851 273.892L263.02 275.156L262.241 280.669Z" fill="#263238"/>
<path d="M173.015 200.941L171.398 203.945C171.268 204.179 171.567 204.413 171.977 204.413H209.594C209.913 204.413 210.182 204.273 210.202 204.076L210.532 201.072C210.532 200.866 210.272 200.688 209.913 200.688H173.593C173.482 200.68 173.37 200.698 173.269 200.743C173.167 200.787 173.08 200.855 173.015 200.941Z" fill="white"/>
<path d="M177.885 204.741H176.887C176.687 204.741 176.538 204.647 176.558 204.535L177.007 200.632C177.007 200.51 177.196 200.416 177.386 200.416H178.384C178.584 200.416 178.733 200.51 178.713 200.632L178.264 204.535C178.244 204.647 178.075 204.741 177.885 204.741Z" fill="#263238"/>
<path d="M201.429 204.741H200.431C200.232 204.741 200.092 204.647 200.102 204.535L200.561 200.632C200.561 200.51 200.741 200.416 200.93 200.416H201.928C202.118 200.416 202.268 200.51 202.248 200.632L201.799 204.535C201.789 204.647 201.609 204.741 201.429 204.741Z" fill="#263238"/>
</g>
<defs>
<clipPath id="clip0_166_2574">
<rect width="499.032" height="468" fill="white"/>
</clipPath>
</defs>
</svg>
