<svg width="48" height="48" viewBox="0 0 48 48" fill="none" xmlns="http://www.w3.org/2000/svg">
<path d="M24.272 4.5001C13.3051 4.35198 4.35198 13.3051 4.5001 24.272C4.64635 34.7898 13.2104 43.3539 23.7282 43.5001C34.697 43.6501 43.6482 34.697 43.4982 23.7301C43.3539 13.2104 34.7898 4.64635 24.272 4.5001ZM36.1239 35.1798C36.0865 35.2202 36.0407 35.2519 35.9898 35.2726C35.9388 35.2933 35.8839 35.3025 35.829 35.2997C35.7741 35.2968 35.7204 35.2819 35.6719 35.256C35.6234 35.2301 35.5812 35.1938 35.5482 35.1498C34.7097 34.0527 33.6828 33.1134 32.5154 32.3757C30.1285 30.8439 27.1042 30.0001 24.0001 30.0001C20.896 30.0001 17.8717 30.8439 15.4848 32.3757C14.3175 33.113 13.2906 34.052 12.452 35.1489C12.419 35.1929 12.3768 35.2292 12.3283 35.2551C12.2798 35.281 12.2261 35.2959 12.1712 35.2987C12.1163 35.3016 12.0614 35.2924 12.0104 35.2716C11.9595 35.2509 11.9137 35.2192 11.8764 35.1789C9.12542 32.2092 7.56713 28.3288 7.5001 24.2814C7.34729 15.1585 14.8332 7.5226 23.9598 7.5001C33.0864 7.4776 40.5001 14.8885 40.5001 24.0001C40.5032 28.1452 38.9401 32.1384 36.1239 35.1798Z" fill="white"/>
<path d="M23.9999 13.5C22.1512 13.5 20.4796 14.1928 19.2918 15.4519C18.104 16.7109 17.5105 18.4519 17.6446 20.3203C17.9165 24 20.7674 27 23.9999 27C27.2324 27 30.0777 24 30.3552 20.3212C30.494 18.4706 29.9052 16.7456 28.6977 15.4631C27.5052 14.1975 25.8365 13.5 23.9999 13.5Z" fill="white"/>
</svg>
