<svg width="166" height="195" viewBox="0 0 166 195" fill="none" xmlns="http://www.w3.org/2000/svg">
<path d="M150.486 0.169601C147.527 0.537781 145.368 1.57538 142.043 4.2363C141.243 4.88898 139.067 6.59598 137.239 8.01848C135.411 9.44098 132.504 11.717 130.798 13.0558C129.092 14.4114 126.307 16.587 124.636 17.9091C122.965 19.2312 120.719 20.9884 119.658 21.8084C114.227 26.0927 111.198 28.4691 108.36 30.6949C106.637 32.0337 105.07 33.2721 104.879 33.4227C104.687 33.5901 103.277 34.6946 101.746 35.8828C100.214 37.071 98.9255 38.0919 98.8733 38.1421C98.8211 38.1923 97.9856 38.8617 97.0108 39.6148L95.2352 40.9871H53.8408C26.4592 40.9871 12.0808 41.054 11.3497 41.1545C6.58012 41.9075 2.31534 45.3885 0.783504 49.7732C-0.0172296 52.0994 0.000177625 50.8442 0.000177625 93.1177C0.000177625 135.943 -0.0346369 134.437 0.87054 136.63C2.52423 140.73 5.8316 143.591 10.253 144.796C11.5586 145.148 11.7675 145.165 31.7684 145.248L51.9608 145.332V150.771V156.21L47.1738 156.294C44.5453 156.344 42.2302 156.444 42.0387 156.528C40.7679 157.047 40.4372 157.231 39.8628 157.8C38.888 158.754 38.4702 159.758 38.4702 161.147C38.4702 163.189 39.6191 164.879 41.5513 165.682C42.2998 166 43.0483 166 70.4995 166C97.9507 166 98.6993 166 99.4478 165.682C101.345 164.896 102.529 163.222 102.529 161.297C102.529 160.009 102.32 159.323 101.624 158.352C101.032 157.499 100.353 157.03 99.1693 156.612C98.3685 156.327 97.7593 156.294 93.7034 156.294H89.1253V150.771V145.248H108.604C129.91 145.248 129.736 145.248 132.382 144.261C135.794 142.989 138.962 139.876 140.128 136.63C141.034 134.103 140.999 136.379 140.999 90.256V47.3967L143.801 44.0664C145.333 42.2423 146.778 40.552 146.987 40.3177C147.196 40.0834 148.501 38.5437 149.911 36.8869C153.201 32.9876 156.613 28.9711 159.973 25.0216C162.949 21.5406 163.959 20.2353 164.586 18.9801C165.717 16.7041 166.222 13.993 165.909 11.8174C165.09 6.24454 161.557 2.22806 155.969 0.521057C155.412 0.33696 152.314 -0.0312195 151.878 0.0022583C151.791 0.0189819 151.165 0.102661 150.486 0.169601ZM153.845 10.1773C155.638 11.0643 156.335 13.2064 155.36 14.8465C155.012 15.4322 153.027 17.9258 152.662 18.227C152.609 18.2772 151.548 19.5157 150.312 20.9884C149.076 22.4611 147.979 23.7497 147.875 23.8669C147.788 23.9673 146.952 24.9379 146.047 26.009C145.142 27.0968 143.767 28.7201 143.001 29.6071C142.235 30.5108 141.364 31.5316 141.068 31.8831C139.676 33.5231 136.943 36.7531 136.682 37.0543C136.508 37.2384 135.202 38.778 133.775 40.4683C128.535 46.6436 127.717 47.631 126.063 49.5556C125.141 50.6434 124.305 51.5304 124.201 51.5304C123.975 51.5304 112.451 40.4516 112.451 40.2173C112.451 40.1169 112.938 39.665 113.548 39.1964C114.644 38.3262 118.439 35.364 124.009 30.9794C125.733 29.6238 127.613 28.1511 128.187 27.6825C128.779 27.2307 131.373 25.2057 133.949 23.1807C136.543 21.1557 139.276 18.9969 140.041 18.3944C140.807 17.7919 143.157 15.9343 145.264 14.2775C147.37 12.6374 149.285 11.1145 149.528 10.897C150.712 9.85936 152.575 9.55812 153.845 10.1773ZM111.093 52.819C114.714 56.2999 117.673 59.2119 117.673 59.3123C117.656 59.396 117.168 60.0487 116.576 60.7515C115.985 61.4544 114.348 63.379 112.956 65.0191C110.084 68.4163 109.213 69.2196 107.49 70.0397C105.801 70.843 104.618 71.1107 102.703 71.1107C97.8463 71.1107 93.8252 68.249 92.4501 63.7806C92.0149 62.3749 91.9626 59.8813 92.3456 58.4421C92.92 56.2665 94.5911 53.9068 96.4537 52.6014C96.8889 52.3002 101.328 48.8192 101.763 48.4343C101.885 48.3507 102.268 48.0327 102.651 47.7315C103.016 47.447 103.521 47.0453 103.747 46.8612C103.991 46.6771 104.252 46.5265 104.357 46.5098C104.444 46.5098 107.49 49.3548 111.093 52.819ZM84.3731 51.4802C84.1294 51.932 83.8161 52.5847 83.642 52.9529C82.8761 54.6599 82.8239 54.844 82.1798 57.5886C82.0753 58.0237 81.9883 59.1617 81.9883 60.1156V61.8728L78.9072 61.9565C74.8687 62.0569 72.7451 62.5255 69.6292 63.948C63.7455 66.6591 59.8289 71.1944 58.2274 77.1689C57.5659 79.6123 57.3919 81.1687 57.4093 85.0011C57.4267 88.7163 57.27 91.4274 56.8871 93.5361C56.6956 94.6574 56.1385 96.7158 55.8948 97.3015C55.1811 98.8914 54.5197 100.113 53.98 100.816C52.8138 102.305 52.6571 102.69 52.6571 104.163C52.6571 106.272 53.51 107.611 55.4423 108.564C56.1211 108.899 56.5737 109 57.5311 109C58.9759 109.016 59.533 108.815 61.2737 107.677C63.0318 106.523 64.8074 105.786 67.0181 105.284C67.4532 105.184 67.9929 105.067 68.2366 105C69.751 104.665 73.511 104.414 77.2883 104.414C81.6053 104.414 83.2068 104.263 85.7657 103.644C89.3864 102.774 92.7112 100.983 95.2004 98.5734C99.4652 94.4063 101.746 88.9171 101.658 83.0096C101.641 82.0389 101.641 81.1519 101.641 81.0683C101.658 80.9511 102.372 80.8842 103.451 80.8507C105.105 80.8172 105.784 80.7335 107.751 80.2817C109.213 79.947 110.623 79.4282 112.242 78.6249C115.184 77.1522 117.186 75.4452 120.215 71.8638C120.998 70.9434 123.452 68.0482 125.68 65.4207C127.909 62.7933 129.893 60.4503 130.085 60.1825C130.937 59.0947 130.903 57.7559 130.903 89.0175V118.304H70.5866H10.2705L10.1834 117.919C10.1312 117.719 10.1138 103.092 10.1312 85.4194C10.166 59.329 10.2182 53.1872 10.4097 52.7855C10.7404 52.0659 11.4716 51.363 12.2723 51.0116C12.9512 50.7103 14.2915 50.6936 48.8797 50.6936H84.7735L84.3731 51.4802ZM82.7716 72.1149C84.8431 72.7341 86.2879 73.5876 87.8197 75.0435C89.3864 76.533 90.2567 77.8718 90.9704 79.9135C91.3708 81.0515 91.4404 81.5201 91.4578 83.3275C91.4578 85.068 91.4056 85.637 91.0575 86.6746C89.9086 90.2894 87.4194 92.9169 84.1642 93.9545C82.4409 94.5067 81.6576 94.5737 76.1569 94.7076C73.0932 94.7912 69.9599 94.9251 69.194 95.0255C66.8614 95.3435 66.931 95.3435 66.9658 94.8749C66.9833 94.6406 67.0877 93.7704 67.2095 92.9503C67.314 92.1136 67.4707 89.0677 67.5403 86.1725C67.6795 80.2984 67.7666 79.7294 68.9329 77.3865C70.3603 74.5247 73.7373 72.2655 77.3754 71.7132C78.6113 71.5291 81.5705 71.7467 82.7716 72.1149ZM130.903 130.203C130.903 132.797 130.694 133.567 129.771 134.471C129.214 135.006 128.814 135.207 128.135 135.358C126.812 135.625 14.1349 135.625 12.8989 135.341C12.4115 135.241 11.7501 134.939 11.4367 134.688C10.4445 133.902 10.2182 133.216 10.1312 130.822C10.079 129.651 10.0964 128.58 10.1486 128.446C10.253 128.212 16.0671 128.178 70.5866 128.178H130.903V130.203ZM78.942 150.771V156.21L70.5517 156.26L62.144 156.294V150.771V145.248L70.5517 145.282L78.942 145.332V150.771Z" fill="#79AE92"/>
<path d="M150.486 0.169601C147.527 0.537781 145.368 1.57538 142.043 4.2363C141.243 4.88898 139.067 6.59598 137.239 8.01848C135.411 9.44098 132.504 11.717 130.798 13.0558C129.092 14.4114 126.307 16.587 124.636 17.9091C122.965 19.2312 120.719 20.9884 119.658 21.8084C114.227 26.0927 111.198 28.4691 108.36 30.6949C106.637 32.0337 105.07 33.2721 104.879 33.4227C104.687 33.5901 103.277 34.6946 101.746 35.8828C100.214 37.071 98.9255 38.0919 98.8733 38.1421C98.8211 38.1923 97.9856 38.8617 97.0108 39.6148L95.2352 40.9871H53.8408C26.4592 40.9871 12.0808 41.054 11.3497 41.1545C6.58012 41.9075 2.31534 45.3885 0.783504 49.7732C-0.0172296 52.0994 0.000177625 50.8442 0.000177625 93.1177C0.000177625 135.943 -0.0346369 134.437 0.87054 136.63C2.52423 140.73 5.8316 143.591 10.253 144.796C11.5586 145.148 11.7675 145.165 31.7684 145.248L51.9608 145.332V150.771V156.21L47.1738 156.294C44.5453 156.344 42.2302 156.444 42.0387 156.528C40.7679 157.047 40.4372 157.231 39.8628 157.8C38.888 158.754 38.4702 159.758 38.4702 161.147C38.4702 163.189 39.6191 164.879 41.5513 165.682C42.2998 166 43.0483 166 70.4995 166C97.9507 166 98.6993 166 99.4478 165.682C101.345 164.896 102.529 163.222 102.529 161.297C102.529 160.009 102.32 159.323 101.624 158.352C101.032 157.499 100.353 157.03 99.1693 156.612C98.3685 156.327 97.7593 156.294 93.7034 156.294H89.1253V150.771V145.248H108.604C129.91 145.248 129.736 145.248 132.382 144.261C135.794 142.989 138.962 139.876 140.128 136.63C141.034 134.103 140.999 136.379 140.999 90.256V47.3967L143.801 44.0664C145.333 42.2423 146.778 40.552 146.987 40.3177C147.196 40.0834 148.501 38.5437 149.911 36.8869C153.201 32.9876 156.613 28.9711 159.973 25.0216C162.949 21.5406 163.959 20.2353 164.586 18.9801C165.717 16.7041 166.222 13.993 165.909 11.8174C165.09 6.24454 161.557 2.22806 155.969 0.521057C155.412 0.33696 152.314 -0.0312195 151.878 0.0022583C151.791 0.0189819 151.165 0.102661 150.486 0.169601ZM153.845 10.1773C155.638 11.0643 156.335 13.2064 155.36 14.8465C155.012 15.4322 153.027 17.9258 152.662 18.227C152.609 18.2772 151.548 19.5157 150.312 20.9884C149.076 22.4611 147.979 23.7497 147.875 23.8669C147.788 23.9673 146.952 24.9379 146.047 26.009C145.142 27.0968 143.767 28.7201 143.001 29.6071C142.235 30.5108 141.364 31.5316 141.068 31.8831C139.676 33.5231 136.943 36.7531 136.682 37.0543C136.508 37.2384 135.202 38.778 133.775 40.4683C128.535 46.6436 127.717 47.631 126.063 49.5556C125.141 50.6434 124.305 51.5304 124.201 51.5304C123.975 51.5304 112.451 40.4516 112.451 40.2173C112.451 40.1169 112.938 39.665 113.548 39.1964C114.644 38.3262 118.439 35.364 124.009 30.9794C125.733 29.6238 127.613 28.1511 128.187 27.6825C128.779 27.2307 131.373 25.2057 133.949 23.1807C136.543 21.1557 139.276 18.9969 140.041 18.3944C140.807 17.7919 143.157 15.9343 145.264 14.2775C147.37 12.6374 149.285 11.1145 149.528 10.897C150.712 9.85936 152.575 9.55812 153.845 10.1773ZM111.093 52.819C114.714 56.2999 117.673 59.2119 117.673 59.3123C117.656 59.396 117.168 60.0487 116.576 60.7515C115.985 61.4544 114.348 63.379 112.956 65.0191C110.084 68.4163 109.213 69.2196 107.49 70.0397C105.801 70.843 104.618 71.1107 102.703 71.1107C97.8463 71.1107 93.8252 68.249 92.4501 63.7806C92.0149 62.3749 91.9626 59.8813 92.3456 58.4421C92.92 56.2665 94.5911 53.9068 96.4537 52.6014C96.8889 52.3002 101.328 48.8192 101.763 48.4343C101.885 48.3507 102.268 48.0327 102.651 47.7315C103.016 47.447 103.521 47.0453 103.747 46.8612C103.991 46.6771 104.252 46.5265 104.357 46.5098C104.444 46.5098 107.49 49.3548 111.093 52.819ZM84.3731 51.4802C84.1294 51.932 83.8161 52.5847 83.642 52.9529C82.8761 54.6599 82.8239 54.844 82.1798 57.5886C82.0753 58.0237 81.9883 59.1617 81.9883 60.1156V61.8728L78.9072 61.9565C74.8687 62.0569 72.7451 62.5255 69.6292 63.948C63.7455 66.6591 59.8289 71.1944 58.2274 77.1689C57.5659 79.6123 57.3919 81.1687 57.4093 85.0011C57.4267 88.7163 57.27 91.4274 56.8871 93.5361C56.6956 94.6574 56.1385 96.7158 55.8948 97.3015C55.1811 98.8914 54.5197 100.113 53.98 100.816C52.8138 102.305 52.6571 102.69 52.6571 104.163C52.6571 106.272 53.51 107.611 55.4423 108.564C56.1211 108.899 56.5737 109 57.5311 109C58.9759 109.016 59.533 108.815 61.2737 107.677C63.0318 106.523 64.8074 105.786 67.0181 105.284C67.4532 105.184 67.9929 105.067 68.2366 105C69.751 104.665 73.511 104.414 77.2883 104.414C81.6053 104.414 83.2068 104.263 85.7657 103.644C89.3864 102.774 92.7112 100.983 95.2004 98.5734C99.4652 94.4063 101.746 88.9171 101.658 83.0096C101.641 82.0389 101.641 81.1519 101.641 81.0683C101.658 80.9511 102.372 80.8842 103.451 80.8507C105.105 80.8172 105.784 80.7335 107.751 80.2817C109.213 79.947 110.623 79.4282 112.242 78.6249C115.184 77.1522 117.186 75.4452 120.215 71.8638C120.998 70.9434 123.452 68.0482 125.68 65.4207C127.909 62.7933 129.893 60.4503 130.085 60.1825C130.937 59.0947 130.903 57.7559 130.903 89.0175V118.304H70.5866H10.2705L10.1834 117.919C10.1312 117.719 10.1138 103.092 10.1312 85.4194C10.166 59.329 10.2182 53.1872 10.4097 52.7855C10.7404 52.0659 11.4716 51.363 12.2723 51.0116C12.9512 50.7103 14.2915 50.6936 48.8797 50.6936H84.7735L84.3731 51.4802ZM82.7716 72.1149C84.8431 72.7341 86.2879 73.5876 87.8197 75.0435C89.3864 76.533 90.2567 77.8718 90.9704 79.9135C91.3708 81.0515 91.4404 81.5201 91.4578 83.3275C91.4578 85.068 91.4056 85.637 91.0575 86.6746C89.9086 90.2894 87.4194 92.9169 84.1642 93.9545C82.4409 94.5067 81.6576 94.5737 76.1569 94.7076C73.0932 94.7912 69.9599 94.9251 69.194 95.0255C66.8614 95.3435 66.931 95.3435 66.9658 94.8749C66.9833 94.6406 67.0877 93.7704 67.2095 92.9503C67.314 92.1136 67.4707 89.0677 67.5403 86.1725C67.6795 80.2984 67.7666 79.7294 68.9329 77.3865C70.3603 74.5247 73.7373 72.2655 77.3754 71.7132C78.6113 71.5291 81.5705 71.7467 82.7716 72.1149ZM130.903 130.203C130.903 132.797 130.694 133.567 129.771 134.471C129.214 135.006 128.814 135.207 128.135 135.358C126.812 135.625 14.1349 135.625 12.8989 135.341C12.4115 135.241 11.7501 134.939 11.4367 134.688C10.4445 133.902 10.2182 133.216 10.1312 130.822C10.079 129.651 10.0964 128.58 10.1486 128.446C10.253 128.212 16.0671 128.178 70.5866 128.178H130.903V130.203ZM78.942 150.771V156.21L70.5517 156.26L62.144 156.294V150.771V145.248L70.5517 145.282L78.942 145.332V150.771Z" fill="black" fill-opacity="0.2"/>
<path d="M150.486 0.169601C147.527 0.537781 145.368 1.57538 142.043 4.2363C141.243 4.88898 139.067 6.59598 137.239 8.01848C135.411 9.44098 132.504 11.717 130.798 13.0558C129.092 14.4114 126.307 16.587 124.636 17.9091C122.965 19.2312 120.719 20.9884 119.658 21.8084C114.227 26.0927 111.198 28.4691 108.36 30.6949C106.637 32.0337 105.07 33.2721 104.879 33.4227C104.687 33.5901 103.277 34.6946 101.746 35.8828C100.214 37.071 98.9255 38.0919 98.8733 38.1421C98.8211 38.1923 97.9856 38.8617 97.0108 39.6148L95.2352 40.9871H53.8408C26.4592 40.9871 12.0808 41.054 11.3497 41.1545C6.58012 41.9075 2.31534 45.3885 0.783504 49.7732C-0.0172296 52.0994 0.000177625 50.8442 0.000177625 93.1177C0.000177625 135.943 -0.0346369 134.437 0.87054 136.63C2.52423 140.73 5.8316 143.591 10.253 144.796C11.5586 145.148 11.7675 145.165 31.7684 145.248L51.9608 145.332V150.771V156.21L47.1738 156.294C44.5453 156.344 42.2302 156.444 42.0387 156.528C40.7679 157.047 40.4372 157.231 39.8628 157.8C38.888 158.754 38.4702 159.758 38.4702 161.147C38.4702 163.189 39.6191 164.879 41.5513 165.682C42.2998 166 43.0483 166 70.4995 166C97.9507 166 98.6993 166 99.4478 165.682C101.345 164.896 102.529 163.222 102.529 161.297C102.529 160.009 102.32 159.323 101.624 158.352C101.032 157.499 100.353 157.03 99.1693 156.612C98.3685 156.327 97.7593 156.294 93.7034 156.294H89.1253V150.771V145.248H108.604C129.91 145.248 129.736 145.248 132.382 144.261C135.794 142.989 138.962 139.876 140.128 136.63C141.034 134.103 140.999 136.379 140.999 90.256V47.3967L143.801 44.0664C145.333 42.2423 146.778 40.552 146.987 40.3177C147.196 40.0834 148.501 38.5437 149.911 36.8869C153.201 32.9876 156.613 28.9711 159.973 25.0216C162.949 21.5406 163.959 20.2353 164.586 18.9801C165.717 16.7041 166.222 13.993 165.909 11.8174C165.09 6.24454 161.557 2.22806 155.969 0.521057C155.412 0.33696 152.314 -0.0312195 151.878 0.0022583C151.791 0.0189819 151.165 0.102661 150.486 0.169601ZM153.845 10.1773C155.638 11.0643 156.335 13.2064 155.36 14.8465C155.012 15.4322 153.027 17.9258 152.662 18.227C152.609 18.2772 151.548 19.5157 150.312 20.9884C149.076 22.4611 147.979 23.7497 147.875 23.8669C147.788 23.9673 146.952 24.9379 146.047 26.009C145.142 27.0968 143.767 28.7201 143.001 29.6071C142.235 30.5108 141.364 31.5316 141.068 31.8831C139.676 33.5231 136.943 36.7531 136.682 37.0543C136.508 37.2384 135.202 38.778 133.775 40.4683C128.535 46.6436 127.717 47.631 126.063 49.5556C125.141 50.6434 124.305 51.5304 124.201 51.5304C123.975 51.5304 112.451 40.4516 112.451 40.2173C112.451 40.1169 112.938 39.665 113.548 39.1964C114.644 38.3262 118.439 35.364 124.009 30.9794C125.733 29.6238 127.613 28.1511 128.187 27.6825C128.779 27.2307 131.373 25.2057 133.949 23.1807C136.543 21.1557 139.276 18.9969 140.041 18.3944C140.807 17.7919 143.157 15.9343 145.264 14.2775C147.37 12.6374 149.285 11.1145 149.528 10.897C150.712 9.85936 152.575 9.55812 153.845 10.1773ZM111.093 52.819C114.714 56.2999 117.673 59.2119 117.673 59.3123C117.656 59.396 117.168 60.0487 116.576 60.7515C115.985 61.4544 114.348 63.379 112.956 65.0191C110.084 68.4163 109.213 69.2196 107.49 70.0397C105.801 70.843 104.618 71.1107 102.703 71.1107C97.8463 71.1107 93.8252 68.249 92.4501 63.7806C92.0149 62.3749 91.9626 59.8813 92.3456 58.4421C92.92 56.2665 94.5911 53.9068 96.4537 52.6014C96.8889 52.3002 101.328 48.8192 101.763 48.4343C101.885 48.3507 102.268 48.0327 102.651 47.7315C103.016 47.447 103.521 47.0453 103.747 46.8612C103.991 46.6771 104.252 46.5265 104.357 46.5098C104.444 46.5098 107.49 49.3548 111.093 52.819ZM84.3731 51.4802C84.1294 51.932 83.8161 52.5847 83.642 52.9529C82.8761 54.6599 82.8239 54.844 82.1798 57.5886C82.0753 58.0237 81.9883 59.1617 81.9883 60.1156V61.8728L78.9072 61.9565C74.8687 62.0569 72.7451 62.5255 69.6292 63.948C63.7455 66.6591 59.8289 71.1944 58.2274 77.1689C57.5659 79.6123 57.3919 81.1687 57.4093 85.0011C57.4267 88.7163 57.27 91.4274 56.8871 93.5361C56.6956 94.6574 56.1385 96.7158 55.8948 97.3015C55.1811 98.8914 54.5197 100.113 53.98 100.816C52.8138 102.305 52.6571 102.69 52.6571 104.163C52.6571 106.272 53.51 107.611 55.4423 108.564C56.1211 108.899 56.5737 109 57.5311 109C58.9759 109.016 59.533 108.815 61.2737 107.677C63.0318 106.523 64.8074 105.786 67.0181 105.284C67.4532 105.184 67.9929 105.067 68.2366 105C69.751 104.665 73.511 104.414 77.2883 104.414C81.6053 104.414 83.2068 104.263 85.7657 103.644C89.3864 102.774 92.7112 100.983 95.2004 98.5734C99.4652 94.4063 101.746 88.9171 101.658 83.0096C101.641 82.0389 101.641 81.1519 101.641 81.0683C101.658 80.9511 102.372 80.8842 103.451 80.8507C105.105 80.8172 105.784 80.7335 107.751 80.2817C109.213 79.947 110.623 79.4282 112.242 78.6249C115.184 77.1522 117.186 75.4452 120.215 71.8638C120.998 70.9434 123.452 68.0482 125.68 65.4207C127.909 62.7933 129.893 60.4503 130.085 60.1825C130.937 59.0947 130.903 57.7559 130.903 89.0175V118.304H70.5866H10.2705L10.1834 117.919C10.1312 117.719 10.1138 103.092 10.1312 85.4194C10.166 59.329 10.2182 53.1872 10.4097 52.7855C10.7404 52.0659 11.4716 51.363 12.2723 51.0116C12.9512 50.7103 14.2915 50.6936 48.8797 50.6936H84.7735L84.3731 51.4802ZM82.7716 72.1149C84.8431 72.7341 86.2879 73.5876 87.8197 75.0435C89.3864 76.533 90.2567 77.8718 90.9704 79.9135C91.3708 81.0515 91.4404 81.5201 91.4578 83.3275C91.4578 85.068 91.4056 85.637 91.0575 86.6746C89.9086 90.2894 87.4194 92.9169 84.1642 93.9545C82.4409 94.5067 81.6576 94.5737 76.1569 94.7076C73.0932 94.7912 69.9599 94.9251 69.194 95.0255C66.8614 95.3435 66.931 95.3435 66.9658 94.8749C66.9833 94.6406 67.0877 93.7704 67.2095 92.9503C67.314 92.1136 67.4707 89.0677 67.5403 86.1725C67.6795 80.2984 67.7666 79.7294 68.9329 77.3865C70.3603 74.5247 73.7373 72.2655 77.3754 71.7132C78.6113 71.5291 81.5705 71.7467 82.7716 72.1149ZM130.903 130.203C130.903 132.797 130.694 133.567 129.771 134.471C129.214 135.006 128.814 135.207 128.135 135.358C126.812 135.625 14.1349 135.625 12.8989 135.341C12.4115 135.241 11.7501 134.939 11.4367 134.688C10.4445 133.902 10.2182 133.216 10.1312 130.822C10.079 129.651 10.0964 128.58 10.1486 128.446C10.253 128.212 16.0671 128.178 70.5866 128.178H130.903V130.203ZM78.942 150.771V156.21L70.5517 156.26L62.144 156.294V150.771V145.248L70.5517 145.282L78.942 145.332V150.771Z" fill="black" fill-opacity="0.2"/>
<path d="M54.3106 175.876V179.91L53.9103 179.614C53.0399 178.951 51.891 178.669 50.1329 178.669C48.1137 178.683 47.2781 178.951 45.8681 180.023C42.4563 182.632 43.3267 187.568 47.487 189.148C48.34 189.472 48.7055 189.528 50.1329 189.528C51.9259 189.528 52.7962 189.289 53.8407 188.499L54.3106 188.132V188.724V189.317H56.5736H58.8365V180.573V171.829H56.5736H54.3106V175.876ZM52.9007 181.983C54.2932 182.547 54.8503 184.07 54.1018 185.227C53.5447 186.115 52.7614 186.496 51.5429 186.496C49.8892 186.496 48.8796 185.89 48.5488 184.691C48.3574 184 48.6011 183.069 49.0711 182.59C49.9762 181.701 51.6125 181.447 52.9007 181.983Z" fill="#79AE92"/>
<path d="M54.3106 175.876V179.91L53.9103 179.614C53.0399 178.951 51.891 178.669 50.1329 178.669C48.1137 178.683 47.2781 178.951 45.8681 180.023C42.4563 182.632 43.3267 187.568 47.487 189.148C48.34 189.472 48.7055 189.528 50.1329 189.528C51.9259 189.528 52.7962 189.289 53.8407 188.499L54.3106 188.132V188.724V189.317H56.5736H58.8365V180.573V171.829H56.5736H54.3106V175.876ZM52.9007 181.983C54.2932 182.547 54.8503 184.07 54.1018 185.227C53.5447 186.115 52.7614 186.496 51.5429 186.496C49.8892 186.496 48.8796 185.89 48.5488 184.691C48.3574 184 48.6011 183.069 49.0711 182.59C49.9762 181.701 51.6125 181.447 52.9007 181.983Z" fill="black" fill-opacity="0.2"/>
<path d="M54.3106 175.876V179.91L53.9103 179.614C53.0399 178.951 51.891 178.669 50.1329 178.669C48.1137 178.683 47.2781 178.951 45.8681 180.023C42.4563 182.632 43.3267 187.568 47.487 189.148C48.34 189.472 48.7055 189.528 50.1329 189.528C51.9259 189.528 52.7962 189.289 53.8407 188.499L54.3106 188.132V188.724V189.317H56.5736H58.8365V180.573V171.829H56.5736H54.3106V175.876ZM52.9007 181.983C54.2932 182.547 54.8503 184.07 54.1018 185.227C53.5447 186.115 52.7614 186.496 51.5429 186.496C49.8892 186.496 48.8796 185.89 48.5488 184.691C48.3574 184 48.6011 183.069 49.0711 182.59C49.9762 181.701 51.6125 181.447 52.9007 181.983Z" fill="black" fill-opacity="0.2"/>
<path d="M86.34 172.844C84.843 173.676 84.756 175.284 86.1311 176.229C87.3148 177.033 89.1774 176.779 89.9955 175.721C90.3089 175.284 90.3785 175.059 90.3089 174.41C90.2392 173.705 90.1522 173.564 89.5081 173.07C88.8641 172.59 88.7074 172.534 87.8544 172.534C87.1582 172.534 86.7578 172.619 86.34 172.844Z" fill="#79AE92"/>
<path d="M86.34 172.844C84.843 173.676 84.756 175.284 86.1311 176.229C87.3148 177.033 89.1774 176.779 89.9955 175.721C90.3089 175.284 90.3785 175.059 90.3089 174.41C90.2392 173.705 90.1522 173.564 89.5081 173.07C88.8641 172.59 88.7074 172.534 87.8544 172.534C87.1582 172.534 86.7578 172.619 86.34 172.844Z" fill="black" fill-opacity="0.2"/>
<path d="M86.34 172.844C84.843 173.676 84.756 175.284 86.1311 176.229C87.3148 177.033 89.1774 176.779 89.9955 175.721C90.3089 175.284 90.3785 175.059 90.3089 174.41C90.2392 173.705 90.1522 173.564 89.5081 173.07C88.8641 172.59 88.7074 172.534 87.8544 172.534C87.1582 172.534 86.7578 172.619 86.34 172.844Z" fill="black" fill-opacity="0.2"/>
<path d="M64.7551 178.824C63.4496 179.106 62.5618 179.557 61.4826 180.488C60.09 181.673 59.7941 182.307 59.7941 184.099C59.7941 185.452 59.8463 185.65 60.2989 186.426C60.9604 187.512 62.2833 188.541 63.7107 189.091C64.7725 189.5 64.964 189.528 66.844 189.528C69.1418 189.528 70.1166 189.317 71.4743 188.541C72.2228 188.104 73.2847 187.159 73.2847 186.919C73.2847 186.877 72.5884 186.553 71.7354 186.214L70.1688 185.608L69.5595 186.045C68.0103 187.145 65.2773 186.905 64.5114 185.594C63.937 184.62 63.7281 184.663 68.8458 184.663C72.9713 184.663 73.4762 184.635 73.5806 184.437C73.7373 184.099 73.3369 182.181 72.9539 181.489C71.7354 179.261 68.1321 178.091 64.7551 178.824ZM68.3758 181.348C68.6718 181.546 68.9851 181.898 69.0895 182.124L69.2636 182.547H66.8266C65.2599 182.547 64.407 182.491 64.407 182.406C64.407 182.068 64.964 181.419 65.4166 181.222C65.6777 181.095 66.3392 181.01 66.8788 180.996C67.6795 180.996 67.9581 181.066 68.3758 181.348Z" fill="#79AE92"/>
<path d="M64.7551 178.824C63.4496 179.106 62.5618 179.557 61.4826 180.488C60.09 181.673 59.7941 182.307 59.7941 184.099C59.7941 185.452 59.8463 185.65 60.2989 186.426C60.9604 187.512 62.2833 188.541 63.7107 189.091C64.7725 189.5 64.964 189.528 66.844 189.528C69.1418 189.528 70.1166 189.317 71.4743 188.541C72.2228 188.104 73.2847 187.159 73.2847 186.919C73.2847 186.877 72.5884 186.553 71.7354 186.214L70.1688 185.608L69.5595 186.045C68.0103 187.145 65.2773 186.905 64.5114 185.594C63.937 184.62 63.7281 184.663 68.8458 184.663C72.9713 184.663 73.4762 184.635 73.5806 184.437C73.7373 184.099 73.3369 182.181 72.9539 181.489C71.7354 179.261 68.1321 178.091 64.7551 178.824ZM68.3758 181.348C68.6718 181.546 68.9851 181.898 69.0895 182.124L69.2636 182.547H66.8266C65.2599 182.547 64.407 182.491 64.407 182.406C64.407 182.068 64.964 181.419 65.4166 181.222C65.6777 181.095 66.3392 181.01 66.8788 180.996C67.6795 180.996 67.9581 181.066 68.3758 181.348Z" fill="black" fill-opacity="0.2"/>
<path d="M64.7551 178.824C63.4496 179.106 62.5618 179.557 61.4826 180.488C60.09 181.673 59.7941 182.307 59.7941 184.099C59.7941 185.452 59.8463 185.65 60.2989 186.426C60.9604 187.512 62.2833 188.541 63.7107 189.091C64.7725 189.5 64.964 189.528 66.844 189.528C69.1418 189.528 70.1166 189.317 71.4743 188.541C72.2228 188.104 73.2847 187.159 73.2847 186.919C73.2847 186.877 72.5884 186.553 71.7354 186.214L70.1688 185.608L69.5595 186.045C68.0103 187.145 65.2773 186.905 64.5114 185.594C63.937 184.62 63.7281 184.663 68.8458 184.663C72.9713 184.663 73.4762 184.635 73.5806 184.437C73.7373 184.099 73.3369 182.181 72.9539 181.489C71.7354 179.261 68.1321 178.091 64.7551 178.824ZM68.3758 181.348C68.6718 181.546 68.9851 181.898 69.0895 182.124L69.2636 182.547H66.8266C65.2599 182.547 64.407 182.491 64.407 182.406C64.407 182.068 64.964 181.419 65.4166 181.222C65.6777 181.095 66.3392 181.01 66.8788 180.996C67.6795 180.996 67.9581 181.066 68.3758 181.348Z" fill="black" fill-opacity="0.2"/>
<path d="M78.0194 178.739C77.6191 178.81 76.8705 179.05 76.3831 179.261C74.3987 180.136 73.7546 182.251 75.0602 183.605C75.565 184.127 76.9576 184.832 78.3153 185.241C78.9246 185.424 79.5339 185.72 79.6731 185.89C79.9168 186.186 79.9168 186.256 79.6557 186.567C79.1509 187.187 77.4624 186.976 75.7913 186.073L75.2517 185.791L74.3465 187.004C73.3195 188.386 73.3021 188.33 74.9383 188.964C76.2091 189.472 77.4972 189.641 79.2902 189.557C82.406 189.415 84.0771 188.527 84.4079 186.792C84.5994 185.833 84.3557 184.874 83.7986 184.282C83.259 183.704 81.8838 183.041 80.5957 182.745C79.1509 182.392 78.6809 182.166 78.6809 181.8C78.6809 181.616 78.7679 181.405 78.8898 181.306C79.2902 180.982 81.1005 181.137 82.5453 181.631C82.789 181.701 82.9805 181.504 83.5375 180.587C83.9379 179.966 84.2512 179.416 84.2512 179.388C84.2512 179.346 83.729 179.177 83.0849 179.007C81.762 178.669 79.2031 178.542 78.0194 178.739Z" fill="#79AE92"/>
<path d="M78.0194 178.739C77.6191 178.81 76.8705 179.05 76.3831 179.261C74.3987 180.136 73.7546 182.251 75.0602 183.605C75.565 184.127 76.9576 184.832 78.3153 185.241C78.9246 185.424 79.5339 185.72 79.6731 185.89C79.9168 186.186 79.9168 186.256 79.6557 186.567C79.1509 187.187 77.4624 186.976 75.7913 186.073L75.2517 185.791L74.3465 187.004C73.3195 188.386 73.3021 188.33 74.9383 188.964C76.2091 189.472 77.4972 189.641 79.2902 189.557C82.406 189.415 84.0771 188.527 84.4079 186.792C84.5994 185.833 84.3557 184.874 83.7986 184.282C83.259 183.704 81.8838 183.041 80.5957 182.745C79.1509 182.392 78.6809 182.166 78.6809 181.8C78.6809 181.616 78.7679 181.405 78.8898 181.306C79.2902 180.982 81.1005 181.137 82.5453 181.631C82.789 181.701 82.9805 181.504 83.5375 180.587C83.9379 179.966 84.2512 179.416 84.2512 179.388C84.2512 179.346 83.729 179.177 83.0849 179.007C81.762 178.669 79.2031 178.542 78.0194 178.739Z" fill="black" fill-opacity="0.2"/>
<path d="M78.0194 178.739C77.6191 178.81 76.8705 179.05 76.3831 179.261C74.3987 180.136 73.7546 182.251 75.0602 183.605C75.565 184.127 76.9576 184.832 78.3153 185.241C78.9246 185.424 79.5339 185.72 79.6731 185.89C79.9168 186.186 79.9168 186.256 79.6557 186.567C79.1509 187.187 77.4624 186.976 75.7913 186.073L75.2517 185.791L74.3465 187.004C73.3195 188.386 73.3021 188.33 74.9383 188.964C76.2091 189.472 77.4972 189.641 79.2902 189.557C82.406 189.415 84.0771 188.527 84.4079 186.792C84.5994 185.833 84.3557 184.874 83.7986 184.282C83.259 183.704 81.8838 183.041 80.5957 182.745C79.1509 182.392 78.6809 182.166 78.6809 181.8C78.6809 181.616 78.7679 181.405 78.8898 181.306C79.2902 180.982 81.1005 181.137 82.5453 181.631C82.789 181.701 82.9805 181.504 83.5375 180.587C83.9379 179.966 84.2512 179.416 84.2512 179.388C84.2512 179.346 83.729 179.177 83.0849 179.007C81.762 178.669 79.2031 178.542 78.0194 178.739Z" fill="black" fill-opacity="0.2"/>
<path d="M95.2699 178.866C92.3281 179.684 90.6222 181.997 90.9355 184.733C91.1444 186.623 92.4151 188.189 94.3822 189.035C95.3047 189.43 95.7051 189.528 96.8714 189.571C98.5773 189.641 100.04 189.416 100.892 188.95L101.519 188.598L101.449 189.458C101.328 190.925 100.196 191.714 98.2117 191.714C96.9758 191.714 96.0532 191.461 95.3047 190.882L94.7825 190.487L92.9896 191.178L91.1966 191.87L91.597 192.448C92.3281 193.491 93.8773 194.338 95.6877 194.69C96.1403 194.775 97.3414 194.845 98.351 194.845C101.275 194.845 103.434 194.126 104.739 192.73C105.801 191.602 105.836 191.305 105.836 184.776V178.88H103.66H101.484V179.36V179.854L100.614 179.374C99.1691 178.584 96.9932 178.373 95.2699 178.866ZM100.092 182.011C101.624 182.858 102.007 184.465 100.962 185.65C100.196 186.51 98.0899 186.792 96.941 186.172C96.2273 185.791 95.5658 184.79 95.5658 184.099C95.5833 183.14 96.4188 182.124 97.4806 181.8C98.1595 181.588 99.5347 181.701 100.092 182.011Z" fill="#79AE92"/>
<path d="M95.2699 178.866C92.3281 179.684 90.6222 181.997 90.9355 184.733C91.1444 186.623 92.4151 188.189 94.3822 189.035C95.3047 189.43 95.7051 189.528 96.8714 189.571C98.5773 189.641 100.04 189.416 100.892 188.95L101.519 188.598L101.449 189.458C101.328 190.925 100.196 191.714 98.2117 191.714C96.9758 191.714 96.0532 191.461 95.3047 190.882L94.7825 190.487L92.9896 191.178L91.1966 191.87L91.597 192.448C92.3281 193.491 93.8773 194.338 95.6877 194.69C96.1403 194.775 97.3414 194.845 98.351 194.845C101.275 194.845 103.434 194.126 104.739 192.73C105.801 191.602 105.836 191.305 105.836 184.776V178.88H103.66H101.484V179.36V179.854L100.614 179.374C99.1691 178.584 96.9932 178.373 95.2699 178.866ZM100.092 182.011C101.624 182.858 102.007 184.465 100.962 185.65C100.196 186.51 98.0899 186.792 96.941 186.172C96.2273 185.791 95.5658 184.79 95.5658 184.099C95.5833 183.14 96.4188 182.124 97.4806 181.8C98.1595 181.588 99.5347 181.701 100.092 182.011Z" fill="black" fill-opacity="0.2"/>
<path d="M95.2699 178.866C92.3281 179.684 90.6222 181.997 90.9355 184.733C91.1444 186.623 92.4151 188.189 94.3822 189.035C95.3047 189.43 95.7051 189.528 96.8714 189.571C98.5773 189.641 100.04 189.416 100.892 188.95L101.519 188.598L101.449 189.458C101.328 190.925 100.196 191.714 98.2117 191.714C96.9758 191.714 96.0532 191.461 95.3047 190.882L94.7825 190.487L92.9896 191.178L91.1966 191.87L91.597 192.448C92.3281 193.491 93.8773 194.338 95.6877 194.69C96.1403 194.775 97.3414 194.845 98.351 194.845C101.275 194.845 103.434 194.126 104.739 192.73C105.801 191.602 105.836 191.305 105.836 184.776V178.88H103.66H101.484V179.36V179.854L100.614 179.374C99.1691 178.584 96.9932 178.373 95.2699 178.866ZM100.092 182.011C101.624 182.858 102.007 184.465 100.962 185.65C100.196 186.51 98.0899 186.792 96.941 186.172C96.2273 185.791 95.5658 184.79 95.5658 184.099C95.5833 183.14 96.4188 182.124 97.4806 181.8C98.1595 181.588 99.5347 181.701 100.092 182.011Z" fill="black" fill-opacity="0.2"/>
<path d="M114.714 178.725C114.018 178.909 113.234 179.261 112.642 179.67L112.103 180.037V179.459V178.88H109.927H107.751V184.099V189.317H109.927H112.103V186.158C112.103 183.125 112.12 182.999 112.503 182.533C113.635 181.165 115.567 181.038 116.576 182.251C116.959 182.717 116.977 182.829 116.977 186.017V189.317H119.257H121.52L121.468 185.326C121.416 181.56 121.398 181.32 121.033 180.784C120.215 179.529 118.509 178.754 116.402 178.655C115.723 178.627 114.958 178.655 114.714 178.725Z" fill="#79AE92"/>
<path d="M114.714 178.725C114.018 178.909 113.234 179.261 112.642 179.67L112.103 180.037V179.459V178.88H109.927H107.751V184.099V189.317H109.927H112.103V186.158C112.103 183.125 112.12 182.999 112.503 182.533C113.635 181.165 115.567 181.038 116.576 182.251C116.959 182.717 116.977 182.829 116.977 186.017V189.317H119.257H121.52L121.468 185.326C121.416 181.56 121.398 181.32 121.033 180.784C120.215 179.529 118.509 178.754 116.402 178.655C115.723 178.627 114.958 178.655 114.714 178.725Z" fill="black" fill-opacity="0.2"/>
<path d="M114.714 178.725C114.018 178.909 113.234 179.261 112.642 179.67L112.103 180.037V179.459V178.88H109.927H107.751V184.099V189.317H109.927H112.103V186.158C112.103 183.125 112.12 182.999 112.503 182.533C113.635 181.165 115.567 181.038 116.576 182.251C116.959 182.717 116.977 182.829 116.977 186.017V189.317H119.257H121.52L121.468 185.326C121.416 181.56 121.398 181.32 121.033 180.784C120.215 179.529 118.509 178.754 116.402 178.655C115.723 178.627 114.958 178.655 114.714 178.725Z" fill="black" fill-opacity="0.2"/>
<path d="M85.4697 184.099V189.317H87.7327H89.9956V184.099V178.88H87.7327H85.4697V184.099Z" fill="#79AE92"/>
<path d="M85.4697 184.099V189.317H87.7327H89.9956V184.099V178.88H87.7327H85.4697V184.099Z" fill="black" fill-opacity="0.2"/>
<path d="M85.4697 184.099V189.317H87.7327H89.9956V184.099V178.88H87.7327H85.4697V184.099Z" fill="black" fill-opacity="0.2"/>
</svg>
