<svg width="140" height="203" viewBox="0 0 140 203" fill="none" xmlns="http://www.w3.org/2000/svg">
<path d="M74.9279 0.413235C74.839 0.478754 74.6873 1.38428 74.5794 2.42179C74.4862 3.45937 74.3322 4.90859 74.2552 5.6332C74.1782 6.35781 74.0389 7.80709 73.931 8.84461C73.8379 9.88219 73.6688 11.3972 73.5766 12.2206L73.4076 13.7027L72.076 14.1254C69.96 14.8247 66.8362 16.261 65.7836 17.0638C64.9239 17.6862 65.0124 17.736 61.3475 14.4414C59.4487 12.7527 57.874 11.3124 57.8299 11.2463C57.639 10.9819 55.6517 9.25981 55.5335 9.2593C55.3119 9.25834 47.1607 18.3507 47.1597 18.5814C47.1592 18.7132 48.2309 20.2995 49.538 22.134C50.8599 23.9686 52.02 25.6212 52.1523 25.7865C52.2697 25.9683 52.5783 26.365 52.8133 26.6956C53.063 27.0261 53.5478 27.6708 53.9004 28.1501L54.5172 29.0096L54.085 29.8809C53.8465 30.3577 53.5782 30.9002 53.4887 31.0811C52.8331 32.3634 51.7413 35.3902 51.2157 37.365C50.8551 38.731 51.0477 38.6165 48.6973 38.8699C47.8399 38.9651 46.2433 39.1559 45.1493 39.283C44.0554 39.41 42.4589 39.5844 41.6015 39.6795C40.7441 39.7747 39.7979 39.8859 39.5022 39.9341L38.9403 40.0305L38.9116 46.6702L38.8829 53.3098L40.1085 53.4799C40.773 53.5816 42.0134 53.7518 42.87 53.8543C43.7265 53.9569 44.9522 54.1105 45.602 54.1957C46.2517 54.2808 47.6104 54.435 48.6295 54.5383C49.6485 54.658 50.5493 54.7772 50.6526 54.8106C50.7412 54.8275 50.9603 55.4051 51.1348 56.0649C51.6433 58.0607 52.7088 61.0969 53.3533 62.3848C53.4412 62.5664 53.7048 63.1112 53.9391 63.5901L54.3638 64.4651L53.7248 65.3191C53.3829 65.7954 52.9967 66.2716 52.8927 66.3864C52.7887 66.5178 52.5212 66.8791 52.2982 67.2077C52.0751 67.5362 51.748 67.9961 51.5697 68.226C50.4999 69.6054 48.4333 72.5786 48.4772 72.6776C48.5212 72.7437 49.143 72.4663 49.8834 72.0741C51.8087 71.0444 54.0436 70.1809 56.5584 69.4998C60.4193 68.462 63.3161 68.2933 77.2494 68.3371C89.6016 68.3905 91.8913 68.4993 94.2231 69.152C96.0531 69.6542 96.8053 69.9704 98.5002 70.9499C100.298 71.9956 101.535 72.9731 102.932 74.4949C103.535 75.1565 104.109 75.7027 104.183 75.703C104.257 75.7034 105.608 74.2758 107.181 72.5362L110.032 69.3851L108.416 67.1209C107.521 65.8649 106.801 64.7414 106.802 64.6261C106.803 64.4943 107.191 63.5403 107.668 62.5209C108.145 61.485 108.698 60.2022 108.877 59.6593C109.072 59.1164 109.281 58.5242 109.341 58.3432C109.416 58.1623 109.551 57.7181 109.656 57.356C109.746 56.994 109.881 56.5332 109.956 56.3194C110.03 56.1055 110.091 55.7927 110.092 55.6115C110.094 55.1666 110.493 55.0201 112.459 54.8309C113.39 54.7196 114.721 54.577 115.416 54.4977C116.11 54.4183 117.367 54.2754 118.224 54.1803C119.082 54.0852 120.324 53.9258 121.004 53.8299L122.216 53.6703L122.245 47.0307L122.273 40.391L121.801 40.3066C121.535 40.2395 118.995 39.9319 116.145 39.5901C110.371 38.9061 110.312 38.8894 110.254 38.609C110.225 38.4936 110.123 38.0812 110.021 37.6689C109.818 36.8277 109.615 36.0854 109.439 35.6069C109.381 35.4254 109.177 34.8314 108.987 34.2868C108.812 33.7424 108.271 32.4549 107.803 31.4149C107.334 30.3914 106.954 29.4341 106.955 29.3023C106.956 29.1211 110.91 23.5034 111.266 23.1754C111.326 23.1263 112.054 22.1409 112.886 20.9747L114.417 18.8559L110.227 14.1421L106.036 9.42835L105.547 9.77222C105.265 9.96872 104.88 10.2801 104.672 10.4934C104.464 10.7067 104.004 11.1331 103.634 11.4445C103.263 11.7559 102.937 12.0511 102.892 12.1003C102.773 12.2481 96.9143 17.4291 96.6921 17.5765C96.5884 17.6419 96.2637 17.5581 95.9542 17.3756C95.6594 17.1931 94.9815 16.7947 94.4509 16.4794C93.2572 15.7657 90.7796 14.6676 89.2156 14.1501L88.0353 13.7496L87.9498 13.0242C87.8925 12.6121 87.7087 10.6836 87.5251 8.73866C87.3562 6.79377 87.1165 4.12362 86.9893 2.805L86.7632 0.415011L80.9271 0.356812C77.7209 0.309991 75.0168 0.347716 74.9279 0.413235ZM83.1859 31.5226C86.5367 32.2785 89.3213 34.1359 91.4365 37.0118C91.9212 37.6894 92.4203 38.433 92.5228 38.6641C92.6253 38.8787 92.9034 39.4896 93.1523 40.0179C93.6207 41.0414 93.8831 41.8499 94.2599 43.5485C94.5647 44.8185 94.5918 48.8058 94.3209 49.9579C93.8696 51.8013 93.4504 53.0846 92.9287 54.1368C92.6157 54.7615 92.3621 55.3041 92.362 55.3371C92.3611 55.5348 90.5039 57.8993 89.8807 58.5062C88.5602 59.7856 86.382 61.2096 85.0948 61.5994C84.7249 61.7132 84.2957 61.8761 84.1182 61.9412C82.8155 62.4958 78.6633 62.5437 77.2619 62.0269C76.8931 61.8935 76.3029 61.6932 75.934 61.5763C75.2553 61.3427 73.3981 60.2967 72.6177 59.6837C71.2775 58.6564 69.2045 56.2584 68.7069 55.1688C68.6046 54.9048 68.3262 54.3599 68.1211 53.9471C66.949 51.6683 66.3589 48.0246 66.6815 45.1756C66.7889 44.2535 66.941 43.2656 67.016 43.0023C67.4214 41.5047 67.8255 40.3202 68.183 39.6462C68.3917 39.2352 68.6748 38.6763 68.7941 38.4297C69.1521 37.6404 70.8157 35.621 71.8689 34.67C73.6786 33.0467 76.2403 31.7726 78.3546 31.4358C79.6262 31.2271 82.0493 31.2705 83.1859 31.5226Z" fill="#79AE92"/>
<path d="M74.9279 0.413235C74.839 0.478754 74.6873 1.38428 74.5794 2.42179C74.4862 3.45937 74.3322 4.90859 74.2552 5.6332C74.1782 6.35781 74.0389 7.80709 73.931 8.84461C73.8379 9.88219 73.6688 11.3972 73.5766 12.2206L73.4076 13.7027L72.076 14.1254C69.96 14.8247 66.8362 16.261 65.7836 17.0638C64.9239 17.6862 65.0124 17.736 61.3475 14.4414C59.4487 12.7527 57.874 11.3124 57.8299 11.2463C57.639 10.9819 55.6517 9.25981 55.5335 9.2593C55.3119 9.25834 47.1607 18.3507 47.1597 18.5814C47.1592 18.7132 48.2309 20.2995 49.538 22.134C50.8599 23.9686 52.02 25.6212 52.1523 25.7865C52.2697 25.9683 52.5783 26.365 52.8133 26.6956C53.063 27.0261 53.5478 27.6708 53.9004 28.1501L54.5172 29.0096L54.085 29.8809C53.8465 30.3577 53.5782 30.9002 53.4887 31.0811C52.8331 32.3634 51.7413 35.3902 51.2157 37.365C50.8551 38.731 51.0477 38.6165 48.6973 38.8699C47.8399 38.9651 46.2433 39.1559 45.1493 39.283C44.0554 39.41 42.4589 39.5844 41.6015 39.6795C40.7441 39.7747 39.7979 39.8859 39.5022 39.9341L38.9403 40.0305L38.9116 46.6702L38.8829 53.3098L40.1085 53.4799C40.773 53.5816 42.0134 53.7518 42.87 53.8543C43.7265 53.9569 44.9522 54.1105 45.602 54.1957C46.2517 54.2808 47.6104 54.435 48.6295 54.5383C49.6485 54.658 50.5493 54.7772 50.6526 54.8106C50.7412 54.8275 50.9603 55.4051 51.1348 56.0649C51.6433 58.0607 52.7088 61.0969 53.3533 62.3848C53.4412 62.5664 53.7048 63.1112 53.9391 63.5901L54.3638 64.4651L53.7248 65.3191C53.3829 65.7954 52.9967 66.2716 52.8927 66.3864C52.7887 66.5178 52.5212 66.8791 52.2982 67.2077C52.0751 67.5362 51.748 67.9961 51.5697 68.226C50.4999 69.6054 48.4333 72.5786 48.4772 72.6776C48.5212 72.7437 49.143 72.4663 49.8834 72.0741C51.8087 71.0444 54.0436 70.1809 56.5584 69.4998C60.4193 68.462 63.3161 68.2933 77.2494 68.3371C89.6016 68.3905 91.8913 68.4993 94.2231 69.152C96.0531 69.6542 96.8053 69.9704 98.5002 70.9499C100.298 71.9956 101.535 72.9731 102.932 74.4949C103.535 75.1565 104.109 75.7027 104.183 75.703C104.257 75.7034 105.608 74.2758 107.181 72.5362L110.032 69.3851L108.416 67.1209C107.521 65.8649 106.801 64.7414 106.802 64.6261C106.803 64.4943 107.191 63.5403 107.668 62.5209C108.145 61.485 108.698 60.2022 108.877 59.6593C109.072 59.1164 109.281 58.5242 109.341 58.3432C109.416 58.1623 109.551 57.7181 109.656 57.356C109.746 56.994 109.881 56.5332 109.956 56.3194C110.03 56.1055 110.091 55.7927 110.092 55.6115C110.094 55.1666 110.493 55.0201 112.459 54.8309C113.39 54.7196 114.721 54.577 115.416 54.4977C116.11 54.4183 117.367 54.2754 118.224 54.1803C119.082 54.0852 120.324 53.9258 121.004 53.8299L122.216 53.6703L122.245 47.0307L122.273 40.391L121.801 40.3066C121.535 40.2395 118.995 39.9319 116.145 39.5901C110.371 38.9061 110.312 38.8894 110.254 38.609C110.225 38.4936 110.123 38.0812 110.021 37.6689C109.818 36.8277 109.615 36.0854 109.439 35.6069C109.381 35.4254 109.177 34.8314 108.987 34.2868C108.812 33.7424 108.271 32.4549 107.803 31.4149C107.334 30.3914 106.954 29.4341 106.955 29.3023C106.956 29.1211 110.91 23.5034 111.266 23.1754C111.326 23.1263 112.054 22.1409 112.886 20.9747L114.417 18.8559L110.227 14.1421L106.036 9.42835L105.547 9.77222C105.265 9.96872 104.88 10.2801 104.672 10.4934C104.464 10.7067 104.004 11.1331 103.634 11.4445C103.263 11.7559 102.937 12.0511 102.892 12.1003C102.773 12.2481 96.9143 17.4291 96.6921 17.5765C96.5884 17.6419 96.2637 17.5581 95.9542 17.3756C95.6594 17.1931 94.9815 16.7947 94.4509 16.4794C93.2572 15.7657 90.7796 14.6676 89.2156 14.1501L88.0353 13.7496L87.9498 13.0242C87.8925 12.6121 87.7087 10.6836 87.5251 8.73866C87.3562 6.79377 87.1165 4.12362 86.9893 2.805L86.7632 0.415011L80.9271 0.356812C77.7209 0.309991 75.0168 0.347716 74.9279 0.413235ZM83.1859 31.5226C86.5367 32.2785 89.3213 34.1359 91.4365 37.0118C91.9212 37.6894 92.4203 38.433 92.5228 38.6641C92.6253 38.8787 92.9034 39.4896 93.1523 40.0179C93.6207 41.0414 93.8831 41.8499 94.2599 43.5485C94.5647 44.8185 94.5918 48.8058 94.3209 49.9579C93.8696 51.8013 93.4504 53.0846 92.9287 54.1368C92.6157 54.7615 92.3621 55.3041 92.362 55.3371C92.3611 55.5348 90.5039 57.8993 89.8807 58.5062C88.5602 59.7856 86.382 61.2096 85.0948 61.5994C84.7249 61.7132 84.2957 61.8761 84.1182 61.9412C82.8155 62.4958 78.6633 62.5437 77.2619 62.0269C76.8931 61.8935 76.3029 61.6932 75.934 61.5763C75.2553 61.3427 73.3981 60.2967 72.6177 59.6837C71.2775 58.6564 69.2045 56.2584 68.7069 55.1688C68.6046 54.9048 68.3262 54.3599 68.1211 53.9471C66.949 51.6683 66.3589 48.0246 66.6815 45.1756C66.7889 44.2535 66.941 43.2656 67.016 43.0023C67.4214 41.5047 67.8255 40.3202 68.183 39.6462C68.3917 39.2352 68.6748 38.6763 68.7941 38.4297C69.1521 37.6404 70.8157 35.621 71.8689 34.67C73.6786 33.0467 76.2403 31.7726 78.3546 31.4358C79.6262 31.2271 82.0493 31.2705 83.1859 31.5226Z" fill="black" fill-opacity="0.2"/>
<path d="M74.9279 0.413235C74.839 0.478754 74.6873 1.38428 74.5794 2.42179C74.4862 3.45937 74.3322 4.90859 74.2552 5.6332C74.1782 6.35781 74.0389 7.80709 73.931 8.84461C73.8379 9.88219 73.6688 11.3972 73.5766 12.2206L73.4076 13.7027L72.076 14.1254C69.96 14.8247 66.8362 16.261 65.7836 17.0638C64.9239 17.6862 65.0124 17.736 61.3475 14.4414C59.4487 12.7527 57.874 11.3124 57.8299 11.2463C57.639 10.9819 55.6517 9.25981 55.5335 9.2593C55.3119 9.25834 47.1607 18.3507 47.1597 18.5814C47.1592 18.7132 48.2309 20.2995 49.538 22.134C50.8599 23.9686 52.02 25.6212 52.1523 25.7865C52.2697 25.9683 52.5783 26.365 52.8133 26.6956C53.063 27.0261 53.5478 27.6708 53.9004 28.1501L54.5172 29.0096L54.085 29.8809C53.8465 30.3577 53.5782 30.9002 53.4887 31.0811C52.8331 32.3634 51.7413 35.3902 51.2157 37.365C50.8551 38.731 51.0477 38.6165 48.6973 38.8699C47.8399 38.9651 46.2433 39.1559 45.1493 39.283C44.0554 39.41 42.4589 39.5844 41.6015 39.6795C40.7441 39.7747 39.7979 39.8859 39.5022 39.9341L38.9403 40.0305L38.9116 46.6702L38.8829 53.3098L40.1085 53.4799C40.773 53.5816 42.0134 53.7518 42.87 53.8543C43.7265 53.9569 44.9522 54.1105 45.602 54.1957C46.2517 54.2808 47.6104 54.435 48.6295 54.5383C49.6485 54.658 50.5493 54.7772 50.6526 54.8106C50.7412 54.8275 50.9603 55.4051 51.1348 56.0649C51.6433 58.0607 52.7088 61.0969 53.3533 62.3848C53.4412 62.5664 53.7048 63.1112 53.9391 63.5901L54.3638 64.4651L53.7248 65.3191C53.3829 65.7954 52.9967 66.2716 52.8927 66.3864C52.7887 66.5178 52.5212 66.8791 52.2982 67.2077C52.0751 67.5362 51.748 67.9961 51.5697 68.226C50.4999 69.6054 48.4333 72.5786 48.4772 72.6776C48.5212 72.7437 49.143 72.4663 49.8834 72.0741C51.8087 71.0444 54.0436 70.1809 56.5584 69.4998C60.4193 68.462 63.3161 68.2933 77.2494 68.3371C89.6016 68.3905 91.8913 68.4993 94.2231 69.152C96.0531 69.6542 96.8053 69.9704 98.5002 70.9499C100.298 71.9956 101.535 72.9731 102.932 74.4949C103.535 75.1565 104.109 75.7027 104.183 75.703C104.257 75.7034 105.608 74.2758 107.181 72.5362L110.032 69.3851L108.416 67.1209C107.521 65.8649 106.801 64.7414 106.802 64.6261C106.803 64.4943 107.191 63.5403 107.668 62.5209C108.145 61.485 108.698 60.2022 108.877 59.6593C109.072 59.1164 109.281 58.5242 109.341 58.3432C109.416 58.1623 109.551 57.7181 109.656 57.356C109.746 56.994 109.881 56.5332 109.956 56.3194C110.03 56.1055 110.091 55.7927 110.092 55.6115C110.094 55.1666 110.493 55.0201 112.459 54.8309C113.39 54.7196 114.721 54.577 115.416 54.4977C116.11 54.4183 117.367 54.2754 118.224 54.1803C119.082 54.0852 120.324 53.9258 121.004 53.8299L122.216 53.6703L122.245 47.0307L122.273 40.391L121.801 40.3066C121.535 40.2395 118.995 39.9319 116.145 39.5901C110.371 38.9061 110.312 38.8894 110.254 38.609C110.225 38.4936 110.123 38.0812 110.021 37.6689C109.818 36.8277 109.615 36.0854 109.439 35.6069C109.381 35.4254 109.177 34.8314 108.987 34.2868C108.812 33.7424 108.271 32.4549 107.803 31.4149C107.334 30.3914 106.954 29.4341 106.955 29.3023C106.956 29.1211 110.91 23.5034 111.266 23.1754C111.326 23.1263 112.054 22.1409 112.886 20.9747L114.417 18.8559L110.227 14.1421L106.036 9.42835L105.547 9.77222C105.265 9.96872 104.88 10.2801 104.672 10.4934C104.464 10.7067 104.004 11.1331 103.634 11.4445C103.263 11.7559 102.937 12.0511 102.892 12.1003C102.773 12.2481 96.9143 17.4291 96.6921 17.5765C96.5884 17.6419 96.2637 17.5581 95.9542 17.3756C95.6594 17.1931 94.9815 16.7947 94.4509 16.4794C93.2572 15.7657 90.7796 14.6676 89.2156 14.1501L88.0353 13.7496L87.9498 13.0242C87.8925 12.6121 87.7087 10.6836 87.5251 8.73866C87.3562 6.79377 87.1165 4.12362 86.9893 2.805L86.7632 0.415011L80.9271 0.356812C77.7209 0.309991 75.0168 0.347716 74.9279 0.413235ZM83.1859 31.5226C86.5367 32.2785 89.3213 34.1359 91.4365 37.0118C91.9212 37.6894 92.4203 38.433 92.5228 38.6641C92.6253 38.8787 92.9034 39.4896 93.1523 40.0179C93.6207 41.0414 93.8831 41.8499 94.2599 43.5485C94.5647 44.8185 94.5918 48.8058 94.3209 49.9579C93.8696 51.8013 93.4504 53.0846 92.9287 54.1368C92.6157 54.7615 92.3621 55.3041 92.362 55.3371C92.3611 55.5348 90.5039 57.8993 89.8807 58.5062C88.5602 59.7856 86.382 61.2096 85.0948 61.5994C84.7249 61.7132 84.2957 61.8761 84.1182 61.9412C82.8155 62.4958 78.6633 62.5437 77.2619 62.0269C76.8931 61.8935 76.3029 61.6932 75.934 61.5763C75.2553 61.3427 73.3981 60.2967 72.6177 59.6837C71.2775 58.6564 69.2045 56.2584 68.7069 55.1688C68.6046 54.9048 68.3262 54.3599 68.1211 53.9471C66.949 51.6683 66.3589 48.0246 66.6815 45.1756C66.7889 44.2535 66.941 43.2656 67.016 43.0023C67.4214 41.5047 67.8255 40.3202 68.183 39.6462C68.3917 39.2352 68.6748 38.6763 68.7941 38.4297C69.1521 37.6404 70.8157 35.621 71.8689 34.67C73.6786 33.0467 76.2403 31.7726 78.3546 31.4358C79.6262 31.2271 82.0493 31.2705 83.1859 31.5226Z" fill="black" fill-opacity="0.2"/>
<path d="M127.92 67.1063C126.042 67.4441 124.147 68.2927 122.857 69.3745C122.427 69.7351 116.86 75.7742 110.491 82.8148C104.122 89.8555 98.8663 95.6158 98.8072 95.6155C98.7628 95.6153 98.898 95.1216 99.1371 94.4966C99.3613 93.8879 99.6455 93.0983 99.7505 92.7363C100.005 91.8807 100.007 88.1736 99.7592 87.2993C99.6574 86.9364 99.5119 86.4085 99.4244 86.1445C98.9733 84.5279 97.6971 82.397 96.5787 81.3377C94.8129 79.666 93.309 78.9016 91.0057 78.5127C89.352 78.2419 65.6822 78.0736 63.0214 78.3257C56.9609 78.9091 52.0163 81.112 47.551 85.2446C46.0972 86.5729 26.6779 108.006 26.6768 108.27C26.6759 108.468 29.0726 111.18 44.071 128.001L49.4676 134.022L51.5163 131.79L53.5503 129.541L71.5765 129.57C85.6872 129.582 89.795 129.533 90.4902 129.372C94.9423 128.304 97.4141 127.326 100.007 125.59C100.526 125.247 100.985 124.952 101.015 124.952C101.044 124.952 101.756 124.395 102.586 123.707C103.787 122.724 107.603 118.605 120.118 104.786C128.922 95.0703 136.48 86.6508 136.925 86.0596C138.605 83.7932 139.383 81.457 139.41 78.6727C139.42 76.399 139.072 74.7994 138.149 72.9336C136.611 69.813 133.725 67.5927 130.654 67.1675C129.177 66.9634 128.719 66.9615 127.92 67.1063Z" fill="#79AE92"/>
<path d="M127.92 67.1063C126.042 67.4441 124.147 68.2927 122.857 69.3745C122.427 69.7351 116.86 75.7742 110.491 82.8148C104.122 89.8555 98.8663 95.6158 98.8072 95.6155C98.7628 95.6153 98.898 95.1216 99.1371 94.4966C99.3613 93.8879 99.6455 93.0983 99.7505 92.7363C100.005 91.8807 100.007 88.1736 99.7592 87.2993C99.6574 86.9364 99.5119 86.4085 99.4244 86.1445C98.9733 84.5279 97.6971 82.397 96.5787 81.3377C94.8129 79.666 93.309 78.9016 91.0057 78.5127C89.352 78.2419 65.6822 78.0736 63.0214 78.3257C56.9609 78.9091 52.0163 81.112 47.551 85.2446C46.0972 86.5729 26.6779 108.006 26.6768 108.27C26.6759 108.468 29.0726 111.18 44.071 128.001L49.4676 134.022L51.5163 131.79L53.5503 129.541L71.5765 129.57C85.6872 129.582 89.795 129.533 90.4902 129.372C94.9423 128.304 97.4141 127.326 100.007 125.59C100.526 125.247 100.985 124.952 101.015 124.952C101.044 124.952 101.756 124.395 102.586 123.707C103.787 122.724 107.603 118.605 120.118 104.786C128.922 95.0703 136.48 86.6508 136.925 86.0596C138.605 83.7932 139.383 81.457 139.41 78.6727C139.42 76.399 139.072 74.7994 138.149 72.9336C136.611 69.813 133.725 67.5927 130.654 67.1675C129.177 66.9634 128.719 66.9615 127.92 67.1063Z" fill="black" fill-opacity="0.2"/>
<path d="M127.92 67.1063C126.042 67.4441 124.147 68.2927 122.857 69.3745C122.427 69.7351 116.86 75.7742 110.491 82.8148C104.122 89.8555 98.8663 95.6158 98.8072 95.6155C98.7628 95.6153 98.898 95.1216 99.1371 94.4966C99.3613 93.8879 99.6455 93.0983 99.7505 92.7363C100.005 91.8807 100.007 88.1736 99.7592 87.2993C99.6574 86.9364 99.5119 86.4085 99.4244 86.1445C98.9733 84.5279 97.6971 82.397 96.5787 81.3377C94.8129 79.666 93.309 78.9016 91.0057 78.5127C89.352 78.2419 65.6822 78.0736 63.0214 78.3257C56.9609 78.9091 52.0163 81.112 47.551 85.2446C46.0972 86.5729 26.6779 108.006 26.6768 108.27C26.6759 108.468 29.0726 111.18 44.071 128.001L49.4676 134.022L51.5163 131.79L53.5503 129.541L71.5765 129.57C85.6872 129.582 89.795 129.533 90.4902 129.372C94.9423 128.304 97.4141 127.326 100.007 125.59C100.526 125.247 100.985 124.952 101.015 124.952C101.044 124.952 101.756 124.395 102.586 123.707C103.787 122.724 107.603 118.605 120.118 104.786C128.922 95.0703 136.48 86.6508 136.925 86.0596C138.605 83.7932 139.383 81.457 139.41 78.6727C139.42 76.399 139.072 74.7994 138.149 72.9336C136.611 69.813 133.725 67.5927 130.654 67.1675C129.177 66.9634 128.719 66.9615 127.92 67.1063Z" fill="black" fill-opacity="0.2"/>
<path d="M8.41996 120.598C3.98052 125.571 0.342522 129.723 0.312473 129.839C0.29727 129.937 7.95761 138.67 17.3388 149.222L34.3956 168.408L42.6355 159.299C47.1637 154.294 50.8758 150.092 50.8763 149.977C50.8775 149.697 16.9107 111.573 16.6595 111.572C16.5708 111.571 12.8593 115.641 8.41996 120.598ZM39.4266 149.647C40.0306 150.062 40.4719 150.508 40.824 151.103C41.3081 151.912 41.3371 152.028 41.3314 153.362C41.3255 154.713 41.3104 154.796 40.7747 155.667C39.8224 157.195 38.3565 157.93 36.8507 157.61C34.8136 157.173 33.2876 154.695 33.7402 152.539C34.1629 150.465 35.6908 149.071 37.5822 149.062C38.4244 149.066 38.6605 149.133 39.4266 149.647Z" fill="#79AE92"/>
<path d="M8.41996 120.598C3.98052 125.571 0.342522 129.723 0.312473 129.839C0.29727 129.937 7.95761 138.67 17.3388 149.222L34.3956 168.408L42.6355 159.299C47.1637 154.294 50.8758 150.092 50.8763 149.977C50.8775 149.697 16.9107 111.573 16.6595 111.572C16.5708 111.571 12.8593 115.641 8.41996 120.598ZM39.4266 149.647C40.0306 150.062 40.4719 150.508 40.824 151.103C41.3081 151.912 41.3371 152.028 41.3314 153.362C41.3255 154.713 41.3104 154.796 40.7747 155.667C39.8224 157.195 38.3565 157.93 36.8507 157.61C34.8136 157.173 33.2876 154.695 33.7402 152.539C34.1629 150.465 35.6908 149.071 37.5822 149.062C38.4244 149.066 38.6605 149.133 39.4266 149.647Z" fill="black" fill-opacity="0.2"/>
<path d="M8.41996 120.598C3.98052 125.571 0.342522 129.723 0.312473 129.839C0.29727 129.937 7.95761 138.67 17.3388 149.222L34.3956 168.408L42.6355 159.299C47.1637 154.294 50.8758 150.092 50.8763 149.977C50.8775 149.697 16.9107 111.573 16.6595 111.572C16.5708 111.571 12.8593 115.641 8.41996 120.598ZM39.4266 149.647C40.0306 150.062 40.4719 150.508 40.824 151.103C41.3081 151.912 41.3371 152.028 41.3314 153.362C41.3255 154.713 41.3104 154.796 40.7747 155.667C39.8224 157.195 38.3565 157.93 36.8507 157.61C34.8136 157.173 33.2876 154.695 33.7402 152.539C34.1629 150.465 35.6908 149.071 37.5822 149.062C38.4244 149.066 38.6605 149.133 39.4266 149.647Z" fill="black" fill-opacity="0.2"/>
<path d="M86.5728 177.596C85.9505 178.006 85.5341 178.63 85.2047 179.633C84.6209 181.377 84.5624 181.229 85.8035 181.234C86.823 181.239 86.9118 181.206 87.0908 180.828C87.4486 180.088 88.1282 180.107 90.0456 180.907C91.1517 181.373 92.2304 181.361 92.8678 180.886C93.4014 180.493 94.4892 178.372 94.4922 177.68C94.4937 177.334 94.4347 177.317 93.4891 177.313C92.5434 177.309 92.4546 177.342 92.1571 177.802C91.7259 178.442 91.2383 178.44 89.6158 177.791C88.1554 177.224 87.2249 177.154 86.5728 177.596Z" fill="#79AE92"/>
<path d="M86.5728 177.596C85.9505 178.006 85.5341 178.63 85.2047 179.633C84.6209 181.377 84.5624 181.229 85.8035 181.234C86.823 181.239 86.9118 181.206 87.0908 180.828C87.4486 180.088 88.1282 180.107 90.0456 180.907C91.1517 181.373 92.2304 181.361 92.8678 180.886C93.4014 180.493 94.4892 178.372 94.4922 177.68C94.4937 177.334 94.4347 177.317 93.4891 177.313C92.5434 177.309 92.4546 177.342 92.1571 177.802C91.7259 178.442 91.2383 178.44 89.6158 177.791C88.1554 177.224 87.2249 177.154 86.5728 177.596Z" fill="black" fill-opacity="0.2"/>
<path d="M86.5728 177.596C85.9505 178.006 85.5341 178.63 85.2047 179.633C84.6209 181.377 84.5624 181.229 85.8035 181.234C86.823 181.239 86.9118 181.206 87.0908 180.828C87.4486 180.088 88.1282 180.107 90.0456 180.907C91.1517 181.373 92.2304 181.361 92.8678 180.886C93.4014 180.493 94.4892 178.372 94.4922 177.68C94.4937 177.334 94.4347 177.317 93.4891 177.313C92.5434 177.309 92.4546 177.342 92.1571 177.802C91.7259 178.442 91.2383 178.44 89.6158 177.791C88.1554 177.224 87.2249 177.154 86.5728 177.596Z" fill="black" fill-opacity="0.2"/>
<path d="M76.893 181.443L76.8834 183.667L76.1446 183.664L75.4059 183.661L75.3987 185.308L75.3916 186.956L76.1304 186.959L76.8691 186.962L76.8594 189.219C76.8435 192.893 77.1478 194.279 78.2218 195.338C78.8398 195.934 79.5627 196.2 80.656 196.205C81.5721 196.209 83.1846 195.771 83.2744 195.491C83.3193 195.376 83.1453 194.601 82.9126 193.743C82.6218 192.655 82.4317 192.193 82.2837 192.241C82.1801 192.29 81.8549 192.322 81.5742 192.321C80.8058 192.334 80.6893 191.938 80.7009 189.252L80.7107 186.995L81.8634 186.951L83.0013 186.906L83.008 185.341L83.0148 183.776L81.8773 183.722L80.7251 183.667L80.7346 181.459L80.7442 179.235L78.8234 179.227L76.9026 179.219L76.893 181.443Z" fill="#79AE92"/>
<path d="M76.893 181.443L76.8834 183.667L76.1446 183.664L75.4059 183.661L75.3987 185.308L75.3916 186.956L76.1304 186.959L76.8691 186.962L76.8594 189.219C76.8435 192.893 77.1478 194.279 78.2218 195.338C78.8398 195.934 79.5627 196.2 80.656 196.205C81.5721 196.209 83.1846 195.771 83.2744 195.491C83.3193 195.376 83.1453 194.601 82.9126 193.743C82.6218 192.655 82.4317 192.193 82.2837 192.241C82.1801 192.29 81.8549 192.322 81.5742 192.321C80.8058 192.334 80.6893 191.938 80.7009 189.252L80.7107 186.995L81.8634 186.951L83.0013 186.906L83.008 185.341L83.0148 183.776L81.8773 183.722L80.7251 183.667L80.7346 181.459L80.7442 179.235L78.8234 179.227L76.9026 179.219L76.893 181.443Z" fill="black" fill-opacity="0.2"/>
<path d="M76.893 181.443L76.8834 183.667L76.1446 183.664L75.4059 183.661L75.3987 185.308L75.3916 186.956L76.1304 186.959L76.8691 186.962L76.8594 189.219C76.8435 192.893 77.1478 194.279 78.2218 195.338C78.8398 195.934 79.5627 196.2 80.656 196.205C81.5721 196.209 83.1846 195.771 83.2744 195.491C83.3193 195.376 83.1453 194.601 82.9126 193.743C82.6218 192.655 82.4317 192.193 82.2837 192.241C82.1801 192.29 81.8549 192.322 81.5742 192.321C80.8058 192.334 80.6893 191.938 80.7009 189.252L80.7107 186.995L81.8634 186.951L83.0013 186.906L83.008 185.341L83.0148 183.776L81.8773 183.722L80.7251 183.667L80.7346 181.459L80.7442 179.235L78.8234 179.227L76.9026 179.219L76.893 181.443Z" fill="black" fill-opacity="0.2"/>
<path d="M44.8212 183.413C43.889 183.705 43.222 184.197 42.3904 185.165C39.7765 188.251 40.6392 193.774 44.0005 195.503C45.519 196.3 48.0904 196.196 49.2614 195.328L49.7951 194.934L49.7913 195.808C49.7885 196.45 49.6982 196.829 49.4601 197.223C48.8798 198.16 48.4058 198.438 47.253 198.499C46.0115 198.576 45.0969 198.242 44.5533 197.515L44.1861 197.019L42.6901 197.853C41.8755 198.311 41.2087 198.753 41.2083 198.835C41.2069 199.148 41.9703 200.305 42.4414 200.702C43.4571 201.58 44.2535 201.913 45.9222 202.151C48.964 202.609 51.9099 201.32 52.954 199.051C53.5507 197.752 53.629 196.714 53.6583 189.959L53.6859 183.566L51.7651 183.558L49.8443 183.55L49.8417 184.159L49.8391 184.753L49.5008 184.405C48.5889 183.429 46.3156 182.941 44.8212 183.413ZM48.6318 187.169C49.811 187.833 50.2761 189.615 49.6349 190.963C49.1576 191.999 48.4908 192.441 47.4565 192.436C46.0529 192.43 45.199 191.718 44.9243 190.317C44.7653 189.509 44.9768 188.422 45.3782 187.864C46.151 186.829 47.5412 186.538 48.6318 187.169Z" fill="#79AE92"/>
<path d="M44.8212 183.413C43.889 183.705 43.222 184.197 42.3904 185.165C39.7765 188.251 40.6392 193.774 44.0005 195.503C45.519 196.3 48.0904 196.196 49.2614 195.328L49.7951 194.934L49.7913 195.808C49.7885 196.45 49.6982 196.829 49.4601 197.223C48.8798 198.16 48.4058 198.438 47.253 198.499C46.0115 198.576 45.0969 198.242 44.5533 197.515L44.1861 197.019L42.6901 197.853C41.8755 198.311 41.2087 198.753 41.2083 198.835C41.2069 199.148 41.9703 200.305 42.4414 200.702C43.4571 201.58 44.2535 201.913 45.9222 202.151C48.964 202.609 51.9099 201.32 52.954 199.051C53.5507 197.752 53.629 196.714 53.6583 189.959L53.6859 183.566L51.7651 183.558L49.8443 183.55L49.8417 184.159L49.8391 184.753L49.5008 184.405C48.5889 183.429 46.3156 182.941 44.8212 183.413ZM48.6318 187.169C49.811 187.833 50.2761 189.615 49.6349 190.963C49.1576 191.999 48.4908 192.441 47.4565 192.436C46.0529 192.43 45.199 191.718 44.9243 190.317C44.7653 189.509 44.9768 188.422 45.3782 187.864C46.151 186.829 47.5412 186.538 48.6318 187.169Z" fill="black" fill-opacity="0.2"/>
<path d="M44.8212 183.413C43.889 183.705 43.222 184.197 42.3904 185.165C39.7765 188.251 40.6392 193.774 44.0005 195.503C45.519 196.3 48.0904 196.196 49.2614 195.328L49.7951 194.934L49.7913 195.808C49.7885 196.45 49.6982 196.829 49.4601 197.223C48.8798 198.16 48.4058 198.438 47.253 198.499C46.0115 198.576 45.0969 198.242 44.5533 197.515L44.1861 197.019L42.6901 197.853C41.8755 198.311 41.2087 198.753 41.2083 198.835C41.2069 199.148 41.9703 200.305 42.4414 200.702C43.4571 201.58 44.2535 201.913 45.9222 202.151C48.964 202.609 51.9099 201.32 52.954 199.051C53.5507 197.752 53.629 196.714 53.6583 189.959L53.6859 183.566L51.7651 183.558L49.8443 183.55L49.8417 184.159L49.8391 184.753L49.5008 184.405C48.5889 183.429 46.3156 182.941 44.8212 183.413ZM48.6318 187.169C49.811 187.833 50.2761 189.615 49.6349 190.963C49.1576 191.999 48.4908 192.441 47.4565 192.436C46.0529 192.43 45.199 191.718 44.9243 190.317C44.7653 189.509 44.9768 188.422 45.3782 187.864C46.151 186.829 47.5412 186.538 48.6318 187.169Z" fill="black" fill-opacity="0.2"/>
<path d="M58.7097 183.522C57.6001 183.847 56.8443 184.371 55.9235 185.454C54.7355 186.833 54.4811 187.574 54.472 189.666C54.4652 191.248 54.5085 191.478 54.8887 192.386C55.4447 193.657 56.5624 194.865 57.7712 195.513C58.6705 195.994 58.8329 196.028 60.4286 196.035C62.379 196.043 63.2074 195.8 64.3638 194.899C65.0014 194.391 65.9075 193.291 65.9087 193.011C65.9089 192.961 65.3195 192.58 64.5972 192.181L63.2705 191.467L62.7512 191.975C61.4306 193.255 59.1121 192.965 58.4686 191.43C57.9859 190.291 57.8084 190.339 62.1524 190.358C65.6541 190.373 66.0828 190.342 66.1724 190.112C66.3071 189.717 65.977 187.475 65.6554 186.666C64.6324 184.059 61.5798 182.678 58.7097 183.522ZM61.7702 186.485C62.0204 186.716 62.2845 187.13 62.3721 187.394L62.5177 187.888L60.4491 187.879C59.1193 187.874 58.3956 187.805 58.396 187.706C58.3978 187.31 58.8739 186.555 59.259 186.326C59.4813 186.178 60.0432 186.082 60.5013 186.067C61.1809 186.07 61.417 186.154 61.7702 186.485Z" fill="#79AE92"/>
<path d="M58.7097 183.522C57.6001 183.847 56.8443 184.371 55.9235 185.454C54.7355 186.833 54.4811 187.574 54.472 189.666C54.4652 191.248 54.5085 191.478 54.8887 192.386C55.4447 193.657 56.5624 194.865 57.7712 195.513C58.6705 195.994 58.8329 196.028 60.4286 196.035C62.379 196.043 63.2074 195.8 64.3638 194.899C65.0014 194.391 65.9075 193.291 65.9087 193.011C65.9089 192.961 65.3195 192.58 64.5972 192.181L63.2705 191.467L62.7512 191.975C61.4306 193.255 59.1121 192.965 58.4686 191.43C57.9859 190.291 57.8084 190.339 62.1524 190.358C65.6541 190.373 66.0828 190.342 66.1724 190.112C66.3071 189.717 65.977 187.475 65.6554 186.666C64.6324 184.059 61.5798 182.678 58.7097 183.522ZM61.7702 186.485C62.0204 186.716 62.2845 187.13 62.3721 187.394L62.5177 187.888L60.4491 187.879C59.1193 187.874 58.3956 187.805 58.396 187.706C58.3978 187.31 58.8739 186.555 59.259 186.326C59.4813 186.178 60.0432 186.082 60.5013 186.067C61.1809 186.07 61.417 186.154 61.7702 186.485Z" fill="black" fill-opacity="0.2"/>
<path d="M58.7097 183.522C57.6001 183.847 56.8443 184.371 55.9235 185.454C54.7355 186.833 54.4811 187.574 54.472 189.666C54.4652 191.248 54.5085 191.478 54.8887 192.386C55.4447 193.657 56.5624 194.865 57.7712 195.513C58.6705 195.994 58.8329 196.028 60.4286 196.035C62.379 196.043 63.2074 195.8 64.3638 194.899C65.0014 194.391 65.9075 193.291 65.9087 193.011C65.9089 192.961 65.3195 192.58 64.5972 192.181L63.2705 191.467L62.7512 191.975C61.4306 193.255 59.1121 192.965 58.4686 191.43C57.9859 190.291 57.8084 190.339 62.1524 190.358C65.6541 190.373 66.0828 190.342 66.1724 190.112C66.3071 189.717 65.977 187.475 65.6554 186.666C64.6324 184.059 61.5798 182.678 58.7097 183.522ZM61.7702 186.485C62.0204 186.716 62.2845 187.13 62.3721 187.394L62.5177 187.888L60.4491 187.879C59.1193 187.874 58.3956 187.805 58.396 187.706C58.3978 187.31 58.8739 186.555 59.259 186.326C59.4813 186.178 60.0432 186.082 60.5013 186.067C61.1809 186.07 61.417 186.154 61.7702 186.485Z" fill="black" fill-opacity="0.2"/>
<path d="M69.9688 183.472C69.6286 183.553 68.9921 183.83 68.5773 184.076C66.8885 185.09 66.3311 187.559 67.4324 189.145C67.8583 189.757 69.0367 190.586 70.1871 191.069C70.7034 191.285 71.219 191.633 71.3363 191.831C71.5417 192.178 71.5413 192.261 71.3182 192.622C70.8865 193.345 69.4544 193.092 68.0405 192.031L67.5839 191.7L66.8094 193.113C65.9307 194.724 65.9162 194.658 67.3019 195.406C68.3779 196.004 69.4705 196.206 70.9928 196.114C73.6383 195.96 75.0612 194.929 75.3507 192.903C75.5181 191.784 75.3161 190.662 74.8462 189.968C74.3911 189.291 73.2272 188.511 72.1353 188.161C70.9108 187.744 70.513 187.478 70.5148 187.05C70.5157 186.836 70.5907 186.589 70.6946 186.474C71.0361 186.097 72.5719 186.284 73.7958 186.866C74.0023 186.95 74.1658 186.72 74.6433 185.651C74.9863 184.927 75.255 184.286 75.2551 184.253C75.2553 184.204 74.8129 184.004 74.2671 183.804C73.1459 183.404 70.9745 183.246 69.9688 183.472Z" fill="#79AE92"/>
<path d="M69.9688 183.472C69.6286 183.553 68.9921 183.83 68.5773 184.076C66.8885 185.09 66.3311 187.559 67.4324 189.145C67.8583 189.757 69.0367 190.586 70.1871 191.069C70.7034 191.285 71.219 191.633 71.3363 191.831C71.5417 192.178 71.5413 192.261 71.3182 192.622C70.8865 193.345 69.4544 193.092 68.0405 192.031L67.5839 191.7L66.8094 193.113C65.9307 194.724 65.9162 194.658 67.3019 195.406C68.3779 196.004 69.4705 196.206 70.9928 196.114C73.6383 195.96 75.0612 194.929 75.3507 192.903C75.5181 191.784 75.3161 190.662 74.8462 189.968C74.3911 189.291 73.2272 188.511 72.1353 188.161C70.9108 187.744 70.513 187.478 70.5148 187.05C70.5157 186.836 70.5907 186.589 70.6946 186.474C71.0361 186.097 72.5719 186.284 73.7958 186.866C74.0023 186.95 74.1658 186.72 74.6433 185.651C74.9863 184.927 75.255 184.286 75.2551 184.253C75.2553 184.204 74.8129 184.004 74.2671 183.804C73.1459 183.404 70.9745 183.246 69.9688 183.472Z" fill="black" fill-opacity="0.2"/>
<path d="M69.9688 183.472C69.6286 183.553 68.9921 183.83 68.5773 184.076C66.8885 185.09 66.3311 187.559 67.4324 189.145C67.8583 189.757 69.0367 190.586 70.1871 191.069C70.7034 191.285 71.219 191.633 71.3363 191.831C71.5417 192.178 71.5413 192.261 71.3182 192.622C70.8865 193.345 69.4544 193.092 68.0405 192.031L67.5839 191.7L66.8094 193.113C65.9307 194.724 65.9162 194.658 67.3019 195.406C68.3779 196.004 69.4705 196.206 70.9928 196.114C73.6383 195.96 75.0612 194.929 75.3507 192.903C75.5181 191.784 75.3161 190.662 74.8462 189.968C74.3911 189.291 73.2272 188.511 72.1353 188.161C70.9108 187.744 70.513 187.478 70.5148 187.05C70.5157 186.836 70.5907 186.589 70.6946 186.474C71.0361 186.097 72.5719 186.284 73.7958 186.866C74.0023 186.95 74.1658 186.72 74.6433 185.651C74.9863 184.927 75.255 184.286 75.2551 184.253C75.2553 184.204 74.8129 184.004 74.2671 183.804C73.1459 183.404 70.9745 183.246 69.9688 183.472Z" fill="black" fill-opacity="0.2"/>
<path d="M86.9906 183.53C85.4964 183.951 84.1165 185.28 83.4 186.957C83.0418 187.796 82.9963 188.076 82.9889 189.79C82.9813 191.536 83.0099 191.767 83.4047 192.708C83.9018 193.929 85.0781 195.252 86.0954 195.767C86.9653 196.199 88.5309 196.338 89.522 196.079C89.9214 195.982 90.6323 195.606 91.0919 195.245L91.9072 194.623L91.9044 195.265L91.9016 195.924L93.7485 195.932L95.5954 195.94L95.6218 189.844L95.6482 183.732L93.7716 183.773L91.8801 183.814L91.8339 184.242L91.7877 184.687L90.7707 184.09C89.9011 183.592 89.5765 183.491 88.6015 183.454C87.9663 183.418 87.2421 183.448 86.9906 183.53ZM90.8742 187.501C91.5957 188.08 91.9757 189.038 91.8972 190.108C91.819 191.096 91.5063 191.672 90.7206 192.261C90.2907 192.589 90.0688 192.638 89.2564 192.585C87.6611 192.479 86.8967 191.569 86.9045 189.757C86.909 188.719 87.2816 187.996 88.0969 187.373C88.7789 186.849 90.1527 186.921 90.8742 187.501Z" fill="#79AE92"/>
<path d="M86.9906 183.53C85.4964 183.951 84.1165 185.28 83.4 186.957C83.0418 187.796 82.9963 188.076 82.9889 189.79C82.9813 191.536 83.0099 191.767 83.4047 192.708C83.9018 193.929 85.0781 195.252 86.0954 195.767C86.9653 196.199 88.5309 196.338 89.522 196.079C89.9214 195.982 90.6323 195.606 91.0919 195.245L91.9072 194.623L91.9044 195.265L91.9016 195.924L93.7485 195.932L95.5954 195.94L95.6218 189.844L95.6482 183.732L93.7716 183.773L91.8801 183.814L91.8339 184.242L91.7877 184.687L90.7707 184.09C89.9011 183.592 89.5765 183.491 88.6015 183.454C87.9663 183.418 87.2421 183.448 86.9906 183.53ZM90.8742 187.501C91.5957 188.08 91.9757 189.038 91.8972 190.108C91.819 191.096 91.5063 191.672 90.7206 192.261C90.2907 192.589 90.0688 192.638 89.2564 192.585C87.6611 192.479 86.8967 191.569 86.9045 189.757C86.909 188.719 87.2816 187.996 88.0969 187.373C88.7789 186.849 90.1527 186.921 90.8742 187.501Z" fill="black" fill-opacity="0.2"/>
<path d="M86.9906 183.53C85.4964 183.951 84.1165 185.28 83.4 186.957C83.0418 187.796 82.9963 188.076 82.9889 189.79C82.9813 191.536 83.0099 191.767 83.4047 192.708C83.9018 193.929 85.0781 195.252 86.0954 195.767C86.9653 196.199 88.5309 196.338 89.522 196.079C89.9214 195.982 90.6323 195.606 91.0919 195.245L91.9072 194.623L91.9044 195.265L91.9016 195.924L93.7485 195.932L95.5954 195.94L95.6218 189.844L95.6482 183.732L93.7716 183.773L91.8801 183.814L91.8339 184.242L91.7877 184.687L90.7707 184.09C89.9011 183.592 89.5765 183.491 88.6015 183.454C87.9663 183.418 87.2421 183.448 86.9906 183.53ZM90.8742 187.501C91.5957 188.08 91.9757 189.038 91.8972 190.108C91.819 191.096 91.5063 191.672 90.7206 192.261C90.2907 192.589 90.0688 192.638 89.2564 192.585C87.6611 192.479 86.8967 191.569 86.9045 189.757C86.909 188.719 87.2816 187.996 88.0969 187.373C88.7789 186.849 90.1527 186.921 90.8742 187.501Z" fill="black" fill-opacity="0.2"/>
<path d="M101.041 183.672C99.8135 183.997 98.8801 184.586 97.9151 185.636C96.6679 187.031 96.3237 188.035 96.3884 190.177C96.4266 191.577 96.4845 191.858 96.9386 192.782C98.0221 195.061 100.085 196.289 102.878 196.301C104.991 196.31 106.619 195.559 107.956 193.983C110.422 191.028 109.57 186.247 106.254 184.354C104.751 183.491 102.698 183.235 101.041 183.672ZM104.393 187.625C105.055 188.188 105.435 189.277 105.327 190.314C105.235 191.187 104.892 191.779 104.166 192.319C103.736 192.647 103.514 192.695 102.702 192.643C101.106 192.537 100.342 191.627 100.35 189.815C100.354 188.777 100.727 188.054 101.542 187.431C102.269 186.891 103.642 186.979 104.393 187.625Z" fill="#79AE92"/>
<path d="M101.041 183.672C99.8135 183.997 98.8801 184.586 97.9151 185.636C96.6679 187.031 96.3237 188.035 96.3884 190.177C96.4266 191.577 96.4845 191.858 96.9386 192.782C98.0221 195.061 100.085 196.289 102.878 196.301C104.991 196.31 106.619 195.559 107.956 193.983C110.422 191.028 109.57 186.247 106.254 184.354C104.751 183.491 102.698 183.235 101.041 183.672ZM104.393 187.625C105.055 188.188 105.435 189.277 105.327 190.314C105.235 191.187 104.892 191.779 104.166 192.319C103.736 192.647 103.514 192.695 102.702 192.643C101.106 192.537 100.342 191.627 100.35 189.815C100.354 188.777 100.727 188.054 101.542 187.431C102.269 186.891 103.642 186.979 104.393 187.625Z" fill="black" fill-opacity="0.2"/>
<path d="M101.041 183.672C99.8135 183.997 98.8801 184.586 97.9151 185.636C96.6679 187.031 96.3237 188.035 96.3884 190.177C96.4266 191.577 96.4845 191.858 96.9386 192.782C98.0221 195.061 100.085 196.289 102.878 196.301C104.991 196.31 106.619 195.559 107.956 193.983C110.422 191.028 109.57 186.247 106.254 184.354C104.751 183.491 102.698 183.235 101.041 183.672ZM104.393 187.625C105.055 188.188 105.435 189.277 105.327 190.314C105.235 191.187 104.892 191.779 104.166 192.319C103.736 192.647 103.514 192.695 102.702 192.643C101.106 192.537 100.342 191.627 100.35 189.815C100.354 188.777 100.727 188.054 101.542 187.431C102.269 186.891 103.642 186.979 104.393 187.625Z" fill="black" fill-opacity="0.2"/>
</svg>
