<svg width="175" height="198" viewBox="0 0 175 198" fill="none" xmlns="http://www.w3.org/2000/svg">
<path d="M80.0329 0.0693671C76.5047 0.270977 75.4778 0.581152 74.2024 1.74429C72.9742 2.87641 72.7562 3.51224 72.0081 8.41293C71.8402 9.51403 71.626 10.8323 71.5495 11.313C71.4573 11.8093 71.3196 12.6467 71.2434 13.174C71.1514 13.7168 71.0134 14.5077 70.9209 14.942L70.767 15.7174L69.9451 15.919C66.9736 16.6014 62.1859 17.9661 60.749 18.5555C60.1332 18.8036 59.6279 19.0052 58.5382 19.4239C55.6484 20.5561 51.4348 22.7117 47.239 25.2086L46.6712 25.5498L45.2573 24.5883C44.4789 24.061 43.8116 23.5957 43.7637 23.5337C43.716 23.4872 43.0804 23.0374 42.3337 22.5256C41.5871 22.0294 40.4908 21.2539 39.8712 20.8197C38.0755 19.517 36.4238 18.4779 35.8372 18.2918C35.5359 18.1833 34.7758 18.1057 34.1428 18.1057C32.3386 18.1057 31.3603 18.633 28.4784 21.1919C27.4391 22.1224 22.4811 27.0076 21.7734 27.7985C19.2099 30.6986 18.8026 31.443 18.813 33.304C18.821 34.7463 19.1421 35.5683 20.3699 37.2121C20.7846 37.786 22.1081 39.5539 23.2882 41.1668C24.4682 42.7642 25.6323 44.3305 25.8713 44.6252C26.5405 45.4161 26.5095 45.5402 25.1443 47.6338C24.046 49.3398 21.8692 53.465 20.8535 55.7913C19.4005 59.1566 17.75 64.0108 17.0859 66.9574C16.9936 67.4226 16.8234 68.1205 16.7147 68.5082C16.5132 69.2681 16.5448 69.2526 14.4259 69.5783C12.655 69.8575 11.7063 70.0125 8.62302 70.5243C8.11701 70.6019 7.2157 70.7414 6.599 70.8345C4.06898 71.2222 2.79053 71.8425 1.89563 73.1297C0.87498 74.572 0.707127 75.6886 0.616194 82.0781C0.539788 88.235 0.810065 91.2902 1.60994 92.8255C2.02593 93.6319 3.21895 94.7175 4.15503 95.1363C4.55172 95.3224 6.34207 95.6791 8.40137 96.0202C10.3655 96.3304 12.3614 96.6406 12.8367 96.7336C13.3119 96.8112 14.2148 96.9507 14.8167 97.0438C16.6542 97.3385 16.67 97.3385 16.8964 98.2069C18.9006 105.682 19.881 108.365 22.6013 113.715C24.0575 116.584 24.6968 117.717 25.8779 119.5C26.3566 120.198 26.7403 120.896 26.7412 121.051C26.742 121.19 26.2087 122.043 25.5648 122.943C24.921 123.842 23.8529 125.3 23.2091 126.2C22.5652 127.099 21.6072 128.417 21.0732 129.146C19.6754 131.069 19.3631 131.829 19.3714 133.318C19.3827 135.334 19.6381 135.737 23.1411 139.537C25.2588 141.832 26.8975 143.383 29.8396 145.926C32.3998 148.113 33.1934 148.532 34.9027 148.532C36.7227 148.532 36.5965 148.609 45.2193 142.499C47.3631 140.964 47.3473 140.979 48.4592 141.708C50.0954 142.794 55.0318 145.384 57.3478 146.361C57.792 146.547 58.3631 146.795 58.6171 146.919C59.6641 147.369 61.7257 148.129 63.5332 148.718C65.5785 149.385 66.0699 149.524 69.3188 150.331C70.4915 150.626 71.5062 150.951 71.5701 151.06C71.634 151.153 71.7312 151.556 71.7808 151.944C71.8636 152.595 71.9618 153.184 72.3535 155.309C72.4354 155.805 72.6971 157.325 72.9263 158.69C73.4992 162.086 73.6287 162.614 74.0289 163.42C74.653 164.645 76.0836 165.777 77.4783 166.134C77.7002 166.181 79.0462 166.32 80.487 166.444C82.4503 166.599 83.2734 166.615 83.7949 166.491C84.68 166.274 85.6089 165.405 85.8417 164.583C85.9501 164.149 85.9918 160.287 85.9461 152.099C85.8836 140.917 85.848 140.204 85.5757 139.615C85.2392 138.87 84.5076 138.234 83.7784 138.017C83.493 137.924 82.2894 137.769 81.1177 137.676C78.7268 137.474 75.7174 137.025 73.7525 136.59C73.3246 136.482 72.7066 136.342 72.4055 136.28C70.7417 135.908 67.4442 134.9 66.3021 134.419C66.1276 134.357 65.3822 134.063 64.6368 133.783C62.8922 133.116 58.528 130.961 57.0509 130.03C56.4156 129.627 55.8599 129.301 55.8124 129.301C55.7016 129.301 53.3504 127.704 52.7147 127.223C52.4921 127.037 52.0631 126.727 51.777 126.51C48.0586 123.811 43.3473 119.019 40.2536 114.817C38.0529 111.839 35.7513 107.776 34.244 104.255C33.9553 103.573 33.6507 102.875 33.5864 102.704C33.0575 101.51 31.7365 97.3385 31.3468 95.5705C30.2597 90.7939 29.9604 88.204 29.9323 83.1637C29.9073 78.6973 30.1161 76.402 30.855 72.6955C30.9939 72.0597 31.1325 71.3618 31.1629 71.1447C31.3477 70.2297 32.0149 67.8414 32.5129 66.337C36.3411 54.6747 44.0715 44.6407 54.4472 37.848C57.0648 36.1421 57.6327 35.8164 60.2842 34.5137C63.567 32.8853 66.9307 31.5826 69.7594 30.8382C70.1544 30.7296 70.6918 30.59 70.9445 30.5125C73.7099 29.7526 77.1093 29.1788 81.2852 28.791C83.5314 28.5894 84.0052 28.4033 84.6961 27.4263L85.1671 26.7594L85.1474 14.7249C85.1327 6.42785 85.0791 2.48869 84.9503 2.10097C84.7244 1.32555 84.0556 0.596654 83.2783 0.255475C82.6595 -0.023679 82.1529 -0.0546995 80.0329 0.0693671Z" fill="#79AE92"/>
<path d="M80.0329 0.0693671C76.5047 0.270977 75.4778 0.581152 74.2024 1.74429C72.9742 2.87641 72.7562 3.51224 72.0081 8.41293C71.8402 9.51403 71.626 10.8323 71.5495 11.313C71.4573 11.8093 71.3196 12.6467 71.2434 13.174C71.1514 13.7168 71.0134 14.5077 70.9209 14.942L70.767 15.7174L69.9451 15.919C66.9736 16.6014 62.1859 17.9661 60.749 18.5555C60.1332 18.8036 59.6279 19.0052 58.5382 19.4239C55.6484 20.5561 51.4348 22.7117 47.239 25.2086L46.6712 25.5498L45.2573 24.5883C44.4789 24.061 43.8116 23.5957 43.7637 23.5337C43.716 23.4872 43.0804 23.0374 42.3337 22.5256C41.5871 22.0294 40.4908 21.2539 39.8712 20.8197C38.0755 19.517 36.4238 18.4779 35.8372 18.2918C35.5359 18.1833 34.7758 18.1057 34.1428 18.1057C32.3386 18.1057 31.3603 18.633 28.4784 21.1919C27.4391 22.1224 22.4811 27.0076 21.7734 27.7985C19.2099 30.6986 18.8026 31.443 18.813 33.304C18.821 34.7463 19.1421 35.5683 20.3699 37.2121C20.7846 37.786 22.1081 39.5539 23.2882 41.1668C24.4682 42.7642 25.6323 44.3305 25.8713 44.6252C26.5405 45.4161 26.5095 45.5402 25.1443 47.6338C24.046 49.3398 21.8692 53.465 20.8535 55.7913C19.4005 59.1566 17.75 64.0108 17.0859 66.9574C16.9936 67.4226 16.8234 68.1205 16.7147 68.5082C16.5132 69.2681 16.5448 69.2526 14.4259 69.5783C12.655 69.8575 11.7063 70.0125 8.62302 70.5243C8.11701 70.6019 7.2157 70.7414 6.599 70.8345C4.06898 71.2222 2.79053 71.8425 1.89563 73.1297C0.87498 74.572 0.707127 75.6886 0.616194 82.0781C0.539788 88.235 0.810065 91.2902 1.60994 92.8255C2.02593 93.6319 3.21895 94.7175 4.15503 95.1363C4.55172 95.3224 6.34207 95.6791 8.40137 96.0202C10.3655 96.3304 12.3614 96.6406 12.8367 96.7336C13.3119 96.8112 14.2148 96.9507 14.8167 97.0438C16.6542 97.3385 16.67 97.3385 16.8964 98.2069C18.9006 105.682 19.881 108.365 22.6013 113.715C24.0575 116.584 24.6968 117.717 25.8779 119.5C26.3566 120.198 26.7403 120.896 26.7412 121.051C26.742 121.19 26.2087 122.043 25.5648 122.943C24.921 123.842 23.8529 125.3 23.2091 126.2C22.5652 127.099 21.6072 128.417 21.0732 129.146C19.6754 131.069 19.3631 131.829 19.3714 133.318C19.3827 135.334 19.6381 135.737 23.1411 139.537C25.2588 141.832 26.8975 143.383 29.8396 145.926C32.3998 148.113 33.1934 148.532 34.9027 148.532C36.7227 148.532 36.5965 148.609 45.2193 142.499C47.3631 140.964 47.3473 140.979 48.4592 141.708C50.0954 142.794 55.0318 145.384 57.3478 146.361C57.792 146.547 58.3631 146.795 58.6171 146.919C59.6641 147.369 61.7257 148.129 63.5332 148.718C65.5785 149.385 66.0699 149.524 69.3188 150.331C70.4915 150.626 71.5062 150.951 71.5701 151.06C71.634 151.153 71.7312 151.556 71.7808 151.944C71.8636 152.595 71.9618 153.184 72.3535 155.309C72.4354 155.805 72.6971 157.325 72.9263 158.69C73.4992 162.086 73.6287 162.614 74.0289 163.42C74.653 164.645 76.0836 165.777 77.4783 166.134C77.7002 166.181 79.0462 166.32 80.487 166.444C82.4503 166.599 83.2734 166.615 83.7949 166.491C84.68 166.274 85.6089 165.405 85.8417 164.583C85.9501 164.149 85.9918 160.287 85.9461 152.099C85.8836 140.917 85.848 140.204 85.5757 139.615C85.2392 138.87 84.5076 138.234 83.7784 138.017C83.493 137.924 82.2894 137.769 81.1177 137.676C78.7268 137.474 75.7174 137.025 73.7525 136.59C73.3246 136.482 72.7066 136.342 72.4055 136.28C70.7417 135.908 67.4442 134.9 66.3021 134.419C66.1276 134.357 65.3822 134.063 64.6368 133.783C62.8922 133.116 58.528 130.961 57.0509 130.03C56.4156 129.627 55.8599 129.301 55.8124 129.301C55.7016 129.301 53.3504 127.704 52.7147 127.223C52.4921 127.037 52.0631 126.727 51.777 126.51C48.0586 123.811 43.3473 119.019 40.2536 114.817C38.0529 111.839 35.7513 107.776 34.244 104.255C33.9553 103.573 33.6507 102.875 33.5864 102.704C33.0575 101.51 31.7365 97.3385 31.3468 95.5705C30.2597 90.7939 29.9604 88.204 29.9323 83.1637C29.9073 78.6973 30.1161 76.402 30.855 72.6955C30.9939 72.0597 31.1325 71.3618 31.1629 71.1447C31.3477 70.2297 32.0149 67.8414 32.5129 66.337C36.3411 54.6747 44.0715 44.6407 54.4472 37.848C57.0648 36.1421 57.6327 35.8164 60.2842 34.5137C63.567 32.8853 66.9307 31.5826 69.7594 30.8382C70.1544 30.7296 70.6918 30.59 70.9445 30.5125C73.7099 29.7526 77.1093 29.1788 81.2852 28.791C83.5314 28.5894 84.0052 28.4033 84.6961 27.4263L85.1671 26.7594L85.1474 14.7249C85.1327 6.42785 85.0791 2.48869 84.9503 2.10097C84.7244 1.32555 84.0556 0.596654 83.2783 0.255475C82.6595 -0.023679 82.1529 -0.0546995 80.0329 0.0693671Z" fill="black" fill-opacity="0.2"/>
<path d="M80.0329 0.0693671C76.5047 0.270977 75.4778 0.581152 74.2024 1.74429C72.9742 2.87641 72.7562 3.51224 72.0081 8.41293C71.8402 9.51403 71.626 10.8323 71.5495 11.313C71.4573 11.8093 71.3196 12.6467 71.2434 13.174C71.1514 13.7168 71.0134 14.5077 70.9209 14.942L70.767 15.7174L69.9451 15.919C66.9736 16.6014 62.1859 17.9661 60.749 18.5555C60.1332 18.8036 59.6279 19.0052 58.5382 19.4239C55.6484 20.5561 51.4348 22.7117 47.239 25.2086L46.6712 25.5498L45.2573 24.5883C44.4789 24.061 43.8116 23.5957 43.7637 23.5337C43.716 23.4872 43.0804 23.0374 42.3337 22.5256C41.5871 22.0294 40.4908 21.2539 39.8712 20.8197C38.0755 19.517 36.4238 18.4779 35.8372 18.2918C35.5359 18.1833 34.7758 18.1057 34.1428 18.1057C32.3386 18.1057 31.3603 18.633 28.4784 21.1919C27.4391 22.1224 22.4811 27.0076 21.7734 27.7985C19.2099 30.6986 18.8026 31.443 18.813 33.304C18.821 34.7463 19.1421 35.5683 20.3699 37.2121C20.7846 37.786 22.1081 39.5539 23.2882 41.1668C24.4682 42.7642 25.6323 44.3305 25.8713 44.6252C26.5405 45.4161 26.5095 45.5402 25.1443 47.6338C24.046 49.3398 21.8692 53.465 20.8535 55.7913C19.4005 59.1566 17.75 64.0108 17.0859 66.9574C16.9936 67.4226 16.8234 68.1205 16.7147 68.5082C16.5132 69.2681 16.5448 69.2526 14.4259 69.5783C12.655 69.8575 11.7063 70.0125 8.62302 70.5243C8.11701 70.6019 7.2157 70.7414 6.599 70.8345C4.06898 71.2222 2.79053 71.8425 1.89563 73.1297C0.87498 74.572 0.707127 75.6886 0.616194 82.0781C0.539788 88.235 0.810065 91.2902 1.60994 92.8255C2.02593 93.6319 3.21895 94.7175 4.15503 95.1363C4.55172 95.3224 6.34207 95.6791 8.40137 96.0202C10.3655 96.3304 12.3614 96.6406 12.8367 96.7336C13.3119 96.8112 14.2148 96.9507 14.8167 97.0438C16.6542 97.3385 16.67 97.3385 16.8964 98.2069C18.9006 105.682 19.881 108.365 22.6013 113.715C24.0575 116.584 24.6968 117.717 25.8779 119.5C26.3566 120.198 26.7403 120.896 26.7412 121.051C26.742 121.19 26.2087 122.043 25.5648 122.943C24.921 123.842 23.8529 125.3 23.2091 126.2C22.5652 127.099 21.6072 128.417 21.0732 129.146C19.6754 131.069 19.3631 131.829 19.3714 133.318C19.3827 135.334 19.6381 135.737 23.1411 139.537C25.2588 141.832 26.8975 143.383 29.8396 145.926C32.3998 148.113 33.1934 148.532 34.9027 148.532C36.7227 148.532 36.5965 148.609 45.2193 142.499C47.3631 140.964 47.3473 140.979 48.4592 141.708C50.0954 142.794 55.0318 145.384 57.3478 146.361C57.792 146.547 58.3631 146.795 58.6171 146.919C59.6641 147.369 61.7257 148.129 63.5332 148.718C65.5785 149.385 66.0699 149.524 69.3188 150.331C70.4915 150.626 71.5062 150.951 71.5701 151.06C71.634 151.153 71.7312 151.556 71.7808 151.944C71.8636 152.595 71.9618 153.184 72.3535 155.309C72.4354 155.805 72.6971 157.325 72.9263 158.69C73.4992 162.086 73.6287 162.614 74.0289 163.42C74.653 164.645 76.0836 165.777 77.4783 166.134C77.7002 166.181 79.0462 166.32 80.487 166.444C82.4503 166.599 83.2734 166.615 83.7949 166.491C84.68 166.274 85.6089 165.405 85.8417 164.583C85.9501 164.149 85.9918 160.287 85.9461 152.099C85.8836 140.917 85.848 140.204 85.5757 139.615C85.2392 138.87 84.5076 138.234 83.7784 138.017C83.493 137.924 82.2894 137.769 81.1177 137.676C78.7268 137.474 75.7174 137.025 73.7525 136.59C73.3246 136.482 72.7066 136.342 72.4055 136.28C70.7417 135.908 67.4442 134.9 66.3021 134.419C66.1276 134.357 65.3822 134.063 64.6368 133.783C62.8922 133.116 58.528 130.961 57.0509 130.03C56.4156 129.627 55.8599 129.301 55.8124 129.301C55.7016 129.301 53.3504 127.704 52.7147 127.223C52.4921 127.037 52.0631 126.727 51.777 126.51C48.0586 123.811 43.3473 119.019 40.2536 114.817C38.0529 111.839 35.7513 107.776 34.244 104.255C33.9553 103.573 33.6507 102.875 33.5864 102.704C33.0575 101.51 31.7365 97.3385 31.3468 95.5705C30.2597 90.7939 29.9604 88.204 29.9323 83.1637C29.9073 78.6973 30.1161 76.402 30.855 72.6955C30.9939 72.0597 31.1325 71.3618 31.1629 71.1447C31.3477 70.2297 32.0149 67.8414 32.5129 66.337C36.3411 54.6747 44.0715 44.6407 54.4472 37.848C57.0648 36.1421 57.6327 35.8164 60.2842 34.5137C63.567 32.8853 66.9307 31.5826 69.7594 30.8382C70.1544 30.7296 70.6918 30.59 70.9445 30.5125C73.7099 29.7526 77.1093 29.1788 81.2852 28.791C83.5314 28.5894 84.0052 28.4033 84.6961 27.4263L85.1671 26.7594L85.1474 14.7249C85.1327 6.42785 85.0791 2.48869 84.9503 2.10097C84.7244 1.32555 84.0556 0.596654 83.2783 0.255475C82.6595 -0.023679 82.1529 -0.0546995 80.0329 0.0693671Z" fill="black" fill-opacity="0.2"/>
<path d="M110.135 5.79243C106.767 6.38176 104.247 8.53743 103.11 11.8252C102.752 12.8643 102.735 15.5628 103.105 16.6484C103.958 19.2228 105.63 21.0993 108.058 22.1849L108.645 22.4485L108.696 31.5985C108.747 40.64 108.747 40.764 108.419 41.4619C108.2 41.9117 107.838 42.3149 107.428 42.5785L106.781 42.9973L99.027 43.0748L91.2727 43.1523L91.2409 45.9749L91.2251 48.8129H99.0591C106.513 48.8129 107.668 48.7509 108.71 48.3477C111.458 47.2931 113.237 45.4786 114.313 42.6095C114.484 42.1908 114.519 39.9266 114.524 32.2964L114.517 22.5106L115.574 21.9833C117.105 21.2234 118.773 19.5174 119.477 18.0286C121.76 13.1434 119.245 7.69998 113.934 6.00955C113.347 5.82345 110.799 5.66837 110.135 5.79243Z" fill="#79AE92"/>
<path d="M110.135 5.79243C106.767 6.38176 104.247 8.53743 103.11 11.8252C102.752 12.8643 102.735 15.5628 103.105 16.6484C103.958 19.2228 105.63 21.0993 108.058 22.1849L108.645 22.4485L108.696 31.5985C108.747 40.64 108.747 40.764 108.419 41.4619C108.2 41.9117 107.838 42.3149 107.428 42.5785L106.781 42.9973L99.027 43.0748L91.2727 43.1523L91.2409 45.9749L91.2251 48.8129H99.0591C106.513 48.8129 107.668 48.7509 108.71 48.3477C111.458 47.2931 113.237 45.4786 114.313 42.6095C114.484 42.1908 114.519 39.9266 114.524 32.2964L114.517 22.5106L115.574 21.9833C117.105 21.2234 118.773 19.5174 119.477 18.0286C121.76 13.1434 119.245 7.69998 113.934 6.00955C113.347 5.82345 110.799 5.66837 110.135 5.79243Z" fill="black" fill-opacity="0.2"/>
<path d="M110.135 5.79243C106.767 6.38176 104.247 8.53743 103.11 11.8252C102.752 12.8643 102.735 15.5628 103.105 16.6484C103.958 19.2228 105.63 21.0993 108.058 22.1849L108.645 22.4485L108.696 31.5985C108.747 40.64 108.747 40.764 108.419 41.4619C108.2 41.9117 107.838 42.3149 107.428 42.5785L106.781 42.9973L99.027 43.0748L91.2727 43.1523L91.2409 45.9749L91.2251 48.8129H99.0591C106.513 48.8129 107.668 48.7509 108.71 48.3477C111.458 47.2931 113.237 45.4786 114.313 42.6095C114.484 42.1908 114.519 39.9266 114.524 32.2964L114.517 22.5106L115.574 21.9833C117.105 21.2234 118.773 19.5174 119.477 18.0286C121.76 13.1434 119.245 7.69998 113.934 6.00955C113.347 5.82345 110.799 5.66837 110.135 5.79243Z" fill="black" fill-opacity="0.2"/>
<path d="M138.246 31.9863C134.534 33.2425 132.288 36.3132 132.277 40.1283C132.286 41.7877 132.465 42.5321 133.185 44.0054C133.857 45.3546 135.719 47.1691 137.068 47.805L138.052 48.2702L138.111 56.071C138.15 62.9567 138.123 63.9338 137.904 64.368C137.56 65.0349 137.229 65.3916 136.661 65.7017C136.235 65.9344 134.194 65.9499 113.794 66.0274L91.4008 66.1049L91.3691 68.9275L91.3533 71.7655H113.921C133.941 71.7655 136.6 71.7345 137.453 71.5174C140.425 70.7575 142.912 68.4312 143.751 65.5777C143.86 65.221 143.921 62.0727 143.923 56.6913L143.924 48.3788L144.95 47.867C150.268 45.2461 151.432 38.2362 147.231 34.142C146.085 33.0254 145.196 32.4826 143.658 31.9708C142.088 31.459 139.794 31.459 138.246 31.9863Z" fill="#79AE92"/>
<path d="M138.246 31.9863C134.534 33.2425 132.288 36.3132 132.277 40.1283C132.286 41.7877 132.465 42.5321 133.185 44.0054C133.857 45.3546 135.719 47.1691 137.068 47.805L138.052 48.2702L138.111 56.071C138.15 62.9567 138.123 63.9338 137.904 64.368C137.56 65.0349 137.229 65.3916 136.661 65.7017C136.235 65.9344 134.194 65.9499 113.794 66.0274L91.4008 66.1049L91.3691 68.9275L91.3533 71.7655H113.921C133.941 71.7655 136.6 71.7345 137.453 71.5174C140.425 70.7575 142.912 68.4312 143.751 65.5777C143.86 65.221 143.921 62.0727 143.923 56.6913L143.924 48.3788L144.95 47.867C150.268 45.2461 151.432 38.2362 147.231 34.142C146.085 33.0254 145.196 32.4826 143.658 31.9708C142.088 31.459 139.794 31.459 138.246 31.9863Z" fill="black" fill-opacity="0.2"/>
<path d="M138.246 31.9863C134.534 33.2425 132.288 36.3132 132.277 40.1283C132.286 41.7877 132.465 42.5321 133.185 44.0054C133.857 45.3546 135.719 47.1691 137.068 47.805L138.052 48.2702L138.111 56.071C138.15 62.9567 138.123 63.9338 137.904 64.368C137.56 65.0349 137.229 65.3916 136.661 65.7017C136.235 65.9344 134.194 65.9499 113.794 66.0274L91.4008 66.1049L91.3691 68.9275L91.3533 71.7655H113.921C133.941 71.7655 136.6 71.7345 137.453 71.5174C140.425 70.7575 142.912 68.4312 143.751 65.5777C143.86 65.221 143.921 62.0727 143.923 56.6913L143.924 48.3788L144.95 47.867C150.268 45.2461 151.432 38.2362 147.231 34.142C146.085 33.0254 145.196 32.4826 143.658 31.9708C142.088 31.459 139.794 31.459 138.246 31.9863Z" fill="black" fill-opacity="0.2"/>
<path d="M80.2585 40.4536C73.2369 41.3841 67.3136 43.4468 61.699 46.9362C56.6206 50.0844 51.2222 55.4658 48.0536 60.5216C44.7909 65.7479 42.9362 70.8657 41.897 77.4878C41.5301 79.8141 41.5692 86.8084 41.9781 89.1812C42.5189 92.5 43.5052 96.2376 44.3233 98.2072C44.4034 98.3777 44.6601 98.9981 44.9008 99.6029C46.3447 103.108 49.2038 107.791 51.5292 110.443C56.0687 115.639 60.0109 118.74 66.0897 121.858C67.5817 122.633 71.7053 124.215 73.3695 124.649C75.113 125.114 75.7151 125.254 76.7767 125.471C80.0247 126.122 83.0651 126.448 83.8076 126.2C84.5975 125.952 85.1645 125.456 85.4928 124.742C85.7742 124.122 85.7821 122.695 85.5627 83.3966C85.4167 57.2493 85.271 42.5007 85.1742 42.1596C84.9805 41.4927 84.3119 40.7948 83.5981 40.5002C83.0112 40.2675 81.8558 40.252 80.2585 40.4536Z" fill="#79AE92"/>
<path d="M80.2585 40.4536C73.2369 41.3841 67.3136 43.4468 61.699 46.9362C56.6206 50.0844 51.2222 55.4658 48.0536 60.5216C44.7909 65.7479 42.9362 70.8657 41.897 77.4878C41.5301 79.8141 41.5692 86.8084 41.9781 89.1812C42.5189 92.5 43.5052 96.2376 44.3233 98.2072C44.4034 98.3777 44.6601 98.9981 44.9008 99.6029C46.3447 103.108 49.2038 107.791 51.5292 110.443C56.0687 115.639 60.0109 118.74 66.0897 121.858C67.5817 122.633 71.7053 124.215 73.3695 124.649C75.113 125.114 75.7151 125.254 76.7767 125.471C80.0247 126.122 83.0651 126.448 83.8076 126.2C84.5975 125.952 85.1645 125.456 85.4928 124.742C85.7742 124.122 85.7821 122.695 85.5627 83.3966C85.4167 57.2493 85.271 42.5007 85.1742 42.1596C84.9805 41.4927 84.3119 40.7948 83.5981 40.5002C83.0112 40.2675 81.8558 40.252 80.2585 40.4536Z" fill="black" fill-opacity="0.2"/>
<path d="M80.2585 40.4536C73.2369 41.3841 67.3136 43.4468 61.699 46.9362C56.6206 50.0844 51.2222 55.4658 48.0536 60.5216C44.7909 65.7479 42.9362 70.8657 41.897 77.4878C41.5301 79.8141 41.5692 86.8084 41.9781 89.1812C42.5189 92.5 43.5052 96.2376 44.3233 98.2072C44.4034 98.3777 44.6601 98.9981 44.9008 99.6029C46.3447 103.108 49.2038 107.791 51.5292 110.443C56.0687 115.639 60.0109 118.74 66.0897 121.858C67.5817 122.633 71.7053 124.215 73.3695 124.649C75.113 125.114 75.7151 125.254 76.7767 125.471C80.0247 126.122 83.0651 126.448 83.8076 126.2C84.5975 125.952 85.1645 125.456 85.4928 124.742C85.7742 124.122 85.7821 122.695 85.5627 83.3966C85.4167 57.2493 85.271 42.5007 85.1742 42.1596C84.9805 41.4927 84.3119 40.7948 83.5981 40.5002C83.0112 40.2675 81.8558 40.252 80.2585 40.4536Z" fill="black" fill-opacity="0.2"/>
<path d="M91.2733 57.4198L91.2893 60.2888L106.451 60.2578L121.596 60.2113L122.116 59.8546C123.062 59.1877 123.438 58.5364 123.449 57.5438C123.441 56.1946 122.85 55.2951 121.613 54.7833C121.09 54.5817 119.206 54.5507 106.134 54.5507H91.2573L91.2733 57.4198Z" fill="#79AE92"/>
<path d="M91.2733 57.4198L91.2893 60.2888L106.451 60.2578L121.596 60.2113L122.116 59.8546C123.062 59.1877 123.438 58.5364 123.449 57.5438C123.441 56.1946 122.85 55.2951 121.613 54.7833C121.09 54.5817 119.206 54.5507 106.134 54.5507H91.2573L91.2733 57.4198Z" fill="black" fill-opacity="0.2"/>
<path d="M91.2733 57.4198L91.2893 60.2888L106.451 60.2578L121.596 60.2113L122.116 59.8546C123.062 59.1877 123.438 58.5364 123.449 57.5438C123.441 56.1946 122.85 55.2951 121.613 54.7833C121.09 54.5817 119.206 54.5507 106.134 54.5507H91.2573L91.2733 57.4198Z" fill="black" fill-opacity="0.2"/>
<path d="M162.194 75.0378C161.672 75.2084 160.93 75.503 160.536 75.6891C159.51 76.1699 157.385 78.3256 156.869 79.3956C156.634 79.8764 156.32 80.3106 156.194 80.3572C156.051 80.4037 141.428 80.4502 123.671 80.4502H91.4019L91.4179 83.3193L91.4339 86.1883H123.941H156.432L156.976 87.2274C158.368 89.9259 161.655 91.911 164.741 91.911C165.88 91.9265 167.888 91.4147 168.897 90.8874C169.876 90.3601 171.372 89.0109 172.031 88.0804C173.177 86.452 173.656 84.2498 173.375 82.0941C172.928 78.7133 170.269 75.8132 166.814 74.9447C165.515 74.619 163.363 74.6656 162.194 75.0378Z" fill="#79AE92"/>
<path d="M162.194 75.0378C161.672 75.2084 160.93 75.503 160.536 75.6891C159.51 76.1699 157.385 78.3256 156.869 79.3956C156.634 79.8764 156.32 80.3106 156.194 80.3572C156.051 80.4037 141.428 80.4502 123.671 80.4502H91.4019L91.4179 83.3193L91.4339 86.1883H123.941H156.432L156.976 87.2274C158.368 89.9259 161.655 91.911 164.741 91.911C165.88 91.9265 167.888 91.4147 168.897 90.8874C169.876 90.3601 171.372 89.0109 172.031 88.0804C173.177 86.452 173.656 84.2498 173.375 82.0941C172.928 78.7133 170.269 75.8132 166.814 74.9447C165.515 74.619 163.363 74.6656 162.194 75.0378Z" fill="black" fill-opacity="0.2"/>
<path d="M162.194 75.0378C161.672 75.2084 160.93 75.503 160.536 75.6891C159.51 76.1699 157.385 78.3256 156.869 79.3956C156.634 79.8764 156.32 80.3106 156.194 80.3572C156.051 80.4037 141.428 80.4502 123.671 80.4502H91.4019L91.4179 83.3193L91.4339 86.1883H123.941H156.432L156.976 87.2274C158.368 89.9259 161.655 91.911 164.741 91.911C165.88 91.9265 167.888 91.4147 168.897 90.8874C169.876 90.3601 171.372 89.0109 172.031 88.0804C173.177 86.452 173.656 84.2498 173.375 82.0941C172.928 78.7133 170.269 75.8132 166.814 74.9447C165.515 74.619 163.363 74.6656 162.194 75.0378Z" fill="black" fill-opacity="0.2"/>
<path d="M91.4978 97.6641L91.5134 100.456H113.48C137.726 100.456 136.523 100.409 137.525 101.417C137.812 101.696 138.115 102.131 138.195 102.363C138.308 102.658 138.387 105.465 138.415 110.552L138.458 118.29L137.653 118.678C134.575 120.136 132.74 123.036 132.759 126.432C132.772 128.743 133.558 130.713 135.118 132.295C136.948 134.14 138.915 134.962 141.558 134.962C143.948 134.962 145.733 134.28 147.449 132.729C151.118 129.379 151.23 123.889 147.697 120.384C147.06 119.748 146.297 119.205 145.52 118.818L144.314 118.213L144.268 110.055C144.224 102.208 144.207 101.867 143.885 100.905C143.418 99.5096 142.715 98.393 141.681 97.3695C140.63 96.3149 139.694 95.7566 138.156 95.2448L137.03 94.8726H114.256H91.4823L91.4978 97.6641Z" fill="#79AE92"/>
<path d="M91.4978 97.6641L91.5134 100.456H113.48C137.726 100.456 136.523 100.409 137.525 101.417C137.812 101.696 138.115 102.131 138.195 102.363C138.308 102.658 138.387 105.465 138.415 110.552L138.458 118.29L137.653 118.678C134.575 120.136 132.74 123.036 132.759 126.432C132.772 128.743 133.558 130.713 135.118 132.295C136.948 134.14 138.915 134.962 141.558 134.962C143.948 134.962 145.733 134.28 147.449 132.729C151.118 129.379 151.23 123.889 147.697 120.384C147.06 119.748 146.297 119.205 145.52 118.818L144.314 118.213L144.268 110.055C144.224 102.208 144.207 101.867 143.885 100.905C143.418 99.5096 142.715 98.393 141.681 97.3695C140.63 96.3149 139.694 95.7566 138.156 95.2448L137.03 94.8726H114.256H91.4823L91.4978 97.6641Z" fill="black" fill-opacity="0.2"/>
<path d="M91.4978 97.6641L91.5134 100.456H113.48C137.726 100.456 136.523 100.409 137.525 101.417C137.812 101.696 138.115 102.131 138.195 102.363C138.308 102.658 138.387 105.465 138.415 110.552L138.458 118.29L137.653 118.678C134.575 120.136 132.74 123.036 132.759 126.432C132.772 128.743 133.558 130.713 135.118 132.295C136.948 134.14 138.915 134.962 141.558 134.962C143.948 134.962 145.733 134.28 147.449 132.729C151.118 129.379 151.23 123.889 147.697 120.384C147.06 119.748 146.297 119.205 145.52 118.818L144.314 118.213L144.268 110.055C144.224 102.208 144.207 101.867 143.885 100.905C143.418 99.5096 142.715 98.393 141.681 97.3695C140.63 96.3149 139.694 95.7566 138.156 95.2448L137.03 94.8726H114.256H91.4823L91.4978 97.6641Z" fill="black" fill-opacity="0.2"/>
<path d="M91.7362 106.318C91.5944 106.427 91.5507 107.109 91.5943 109.234L91.6572 112.01H106.613C121.474 112.01 121.569 112.01 122.2 111.684C122.547 111.514 123.035 111.079 123.287 110.723C123.663 110.195 123.741 109.932 123.737 109.172C123.728 107.636 122.932 106.706 121.331 106.365C120.349 106.163 92.0675 106.117 91.7362 106.318Z" fill="#79AE92"/>
<path d="M91.7362 106.318C91.5944 106.427 91.5507 107.109 91.5943 109.234L91.6572 112.01H106.613C121.474 112.01 121.569 112.01 122.2 111.684C122.547 111.514 123.035 111.079 123.287 110.723C123.663 110.195 123.741 109.932 123.737 109.172C123.728 107.636 122.932 106.706 121.331 106.365C120.349 106.163 92.0675 106.117 91.7362 106.318Z" fill="black" fill-opacity="0.2"/>
<path d="M91.7362 106.318C91.5944 106.427 91.5507 107.109 91.5943 109.234L91.6572 112.01H106.613C121.474 112.01 121.569 112.01 122.2 111.684C122.547 111.514 123.035 111.079 123.287 110.723C123.663 110.195 123.741 109.932 123.737 109.172C123.728 107.636 122.932 106.706 121.331 106.365C120.349 106.163 92.0675 106.117 91.7362 106.318Z" fill="black" fill-opacity="0.2"/>
<path d="M91.6897 117.856C91.6429 117.981 91.6344 119.283 91.6585 120.772L91.7211 123.486L99.4764 123.564C107.786 123.641 107.722 123.641 108.439 124.432C109.235 125.316 109.218 125.083 109.273 134.916L109.324 144.112L108.251 144.64C106.231 145.663 104.596 147.633 103.802 150.006C103.382 151.262 103.639 154.829 104.181 155.418C104.26 155.511 104.324 155.666 104.325 155.79C104.327 156.147 105.619 157.884 106.462 158.659C107.353 159.466 108.892 160.288 110.129 160.629C111.191 160.923 113.707 160.892 114.765 160.582C117.483 159.776 119.672 157.76 120.654 155.123C120.934 154.348 120.995 153.867 120.986 152.254C120.976 150.455 120.943 150.238 120.51 149.199C119.628 147.121 118.291 145.694 116.132 144.531L115.259 144.066L115.125 134.249C114.976 124.665 114.975 124.401 114.638 123.595C113.467 120.788 111.288 118.834 108.451 118.027C107.642 117.81 106.471 117.763 99.6336 117.701C93.1129 117.655 91.7521 117.686 91.6897 117.856Z" fill="#79AE92"/>
<path d="M91.6897 117.856C91.6429 117.981 91.6344 119.283 91.6585 120.772L91.7211 123.486L99.4764 123.564C107.786 123.641 107.722 123.641 108.439 124.432C109.235 125.316 109.218 125.083 109.273 134.916L109.324 144.112L108.251 144.64C106.231 145.663 104.596 147.633 103.802 150.006C103.382 151.262 103.639 154.829 104.181 155.418C104.26 155.511 104.324 155.666 104.325 155.79C104.327 156.147 105.619 157.884 106.462 158.659C107.353 159.466 108.892 160.288 110.129 160.629C111.191 160.923 113.707 160.892 114.765 160.582C117.483 159.776 119.672 157.76 120.654 155.123C120.934 154.348 120.995 153.867 120.986 152.254C120.976 150.455 120.943 150.238 120.51 149.199C119.628 147.121 118.291 145.694 116.132 144.531L115.259 144.066L115.125 134.249C114.976 124.665 114.975 124.401 114.638 123.595C113.467 120.788 111.288 118.834 108.451 118.027C107.642 117.81 106.471 117.763 99.6336 117.701C93.1129 117.655 91.7521 117.686 91.6897 117.856Z" fill="black" fill-opacity="0.2"/>
<path d="M91.6897 117.856C91.6429 117.981 91.6344 119.283 91.6585 120.772L91.7211 123.486L99.4764 123.564C107.786 123.641 107.722 123.641 108.439 124.432C109.235 125.316 109.218 125.083 109.273 134.916L109.324 144.112L108.251 144.64C106.231 145.663 104.596 147.633 103.802 150.006C103.382 151.262 103.639 154.829 104.181 155.418C104.26 155.511 104.324 155.666 104.325 155.79C104.327 156.147 105.619 157.884 106.462 158.659C107.353 159.466 108.892 160.288 110.129 160.629C111.191 160.923 113.707 160.892 114.765 160.582C117.483 159.776 119.672 157.76 120.654 155.123C120.934 154.348 120.995 153.867 120.986 152.254C120.976 150.455 120.943 150.238 120.51 149.199C119.628 147.121 118.291 145.694 116.132 144.531L115.259 144.066L115.125 134.249C114.976 124.665 114.975 124.401 114.638 123.595C113.467 120.788 111.288 118.834 108.451 118.027C107.642 117.81 106.471 117.763 99.6336 117.701C93.1129 117.655 91.7521 117.686 91.6897 117.856Z" fill="black" fill-opacity="0.2"/>
<path d="M89.1194 181.876L89.1731 191.491H91.2305H93.2879L93.2342 181.876L93.1806 172.261H91.1232H89.0658L89.1194 181.876Z" fill="#79AE92"/>
<path d="M89.1194 181.876L89.1731 191.491H91.2305H93.2879L93.2342 181.876L93.1806 172.261H91.1232H89.0658L89.1194 181.876Z" fill="black" fill-opacity="0.2"/>
<path d="M89.1194 181.876L89.1731 191.491H91.2305H93.2879L93.2342 181.876L93.1806 172.261H91.1232H89.0658L89.1194 181.876Z" fill="black" fill-opacity="0.2"/>
<path d="M123.89 173.377C122.534 174.292 122.464 176.06 123.72 177.099C124.802 177.983 126.493 177.703 127.231 176.54C127.513 176.06 127.575 175.811 127.508 175.098C127.44 174.323 127.36 174.167 126.771 173.625C126.183 173.097 126.04 173.035 125.265 173.035C124.631 173.035 124.268 173.128 123.89 173.377Z" fill="#79AE92"/>
<path d="M123.89 173.377C122.534 174.292 122.464 176.06 123.72 177.099C124.802 177.983 126.493 177.703 127.231 176.54C127.513 176.06 127.575 175.811 127.508 175.098C127.44 174.323 127.36 174.167 126.771 173.625C126.183 173.097 126.04 173.035 125.265 173.035C124.631 173.035 124.268 173.128 123.89 173.377Z" fill="black" fill-opacity="0.2"/>
<path d="M123.89 173.377C122.534 174.292 122.464 176.06 123.72 177.099C124.802 177.983 126.493 177.703 127.231 176.54C127.513 176.06 127.575 175.811 127.508 175.098C127.44 174.323 127.36 174.167 126.771 173.625C126.183 173.097 126.04 173.035 125.265 173.035C124.631 173.035 124.268 173.128 123.89 173.377Z" fill="black" fill-opacity="0.2"/>
<path d="M31.4902 177.921L31.5019 180.014H30.7106H29.9193L29.9279 181.565L29.9366 183.116H30.7279H31.5192L31.5326 185.52C31.5531 189.18 31.9717 190.452 33.4323 191.289C34.0992 191.677 34.3368 191.723 35.6029 191.723C37.2647 191.723 38.5919 191.336 38.4629 190.901C37.6889 188.327 37.5284 187.939 37.2443 188.079C36.7552 188.342 36.1691 188.249 35.9139 187.893C35.7066 187.614 35.6562 187.086 35.6464 185.334L35.634 183.116H36.821H38.0079L37.9993 181.565L37.9906 180.014H36.8037H35.6167L35.605 177.921L35.5933 175.827H33.5359H31.4785L31.4902 177.921Z" fill="#79AE92"/>
<path d="M31.4902 177.921L31.5019 180.014H30.7106H29.9193L29.9279 181.565L29.9366 183.116H30.7279H31.5192L31.5326 185.52C31.5531 189.18 31.9717 190.452 33.4323 191.289C34.0992 191.677 34.3368 191.723 35.6029 191.723C37.2647 191.723 38.5919 191.336 38.4629 190.901C37.6889 188.327 37.5284 187.939 37.2443 188.079C36.7552 188.342 36.1691 188.249 35.9139 187.893C35.7066 187.614 35.6562 187.086 35.6464 185.334L35.634 183.116H36.821H38.0079L37.9993 181.565L37.9906 180.014H36.8037H35.6167L35.605 177.921L35.5933 175.827H33.5359H31.4785L31.4902 177.921Z" fill="black" fill-opacity="0.2"/>
<path d="M31.4902 177.921L31.5019 180.014H30.7106H29.9193L29.9279 181.565L29.9366 183.116H30.7279H31.5192L31.5326 185.52C31.5531 189.18 31.9717 190.452 33.4323 191.289C34.0992 191.677 34.3368 191.723 35.6029 191.723C37.2647 191.723 38.5919 191.336 38.4629 190.901C37.6889 188.327 37.5284 187.939 37.2443 188.079C36.7552 188.342 36.1691 188.249 35.9139 187.893C35.7066 187.614 35.6562 187.086 35.6464 185.334L35.634 183.116H36.821H38.0079L37.9993 181.565L37.9906 180.014H36.8037H35.6167L35.605 177.921L35.5933 175.827H33.5359H31.4785L31.4902 177.921Z" fill="black" fill-opacity="0.2"/>
<path d="M42.6902 179.875C39.7662 180.558 37.6612 183.365 37.9147 186.249C38.2015 189.428 41.0001 191.801 44.466 191.801C46.84 191.801 48.9555 190.871 50.0862 189.304L50.4003 188.87L48.9561 188.157L47.512 187.443L46.8974 187.924C45.8417 188.746 44.624 188.917 43.4975 188.405C42.6725 188.033 42.322 187.629 42.1915 186.932L42.0935 186.373H46.3032H50.4971L50.6911 187.102C51.1442 188.886 52.4661 190.374 54.3225 191.227C55.3222 191.693 55.4964 191.724 57.1264 191.708C58.5508 191.708 59.041 191.646 59.7674 191.351C60.2728 191.165 60.7146 190.933 60.7775 190.855C60.8245 190.762 60.5834 190.111 60.2313 189.397L59.5751 188.095L59.0224 188.312C58.3119 188.606 56.9825 188.606 56.427 188.327C53.6971 186.932 54.6087 182.961 57.6473 182.961C57.9955 182.961 58.5342 183.07 58.8356 183.194C59.1528 183.318 59.4539 183.396 59.5171 183.365C59.5644 183.334 59.8933 182.729 60.2376 182.031C60.8479 180.79 60.8477 180.759 60.5458 180.542C59.4018 179.72 55.9663 179.503 54.5296 180.139C52.7458 180.945 51.3611 182.372 50.816 183.954L50.5513 184.729L50.3733 184.031C49.7752 181.783 48.2479 180.356 45.9346 179.875C44.9681 179.674 43.5595 179.674 42.6902 179.875ZM45.6015 182.574C46.0458 182.791 46.5562 183.504 46.5584 183.892C46.5589 183.985 45.7838 184.047 44.3594 184.047H42.1438L42.2994 183.582C42.5956 182.775 43.2896 182.341 44.2708 182.341C44.7456 182.341 45.3476 182.45 45.6015 182.574Z" fill="#79AE92"/>
<path d="M42.6902 179.875C39.7662 180.558 37.6612 183.365 37.9147 186.249C38.2015 189.428 41.0001 191.801 44.466 191.801C46.84 191.801 48.9555 190.871 50.0862 189.304L50.4003 188.87L48.9561 188.157L47.512 187.443L46.8974 187.924C45.8417 188.746 44.624 188.917 43.4975 188.405C42.6725 188.033 42.322 187.629 42.1915 186.932L42.0935 186.373H46.3032H50.4971L50.6911 187.102C51.1442 188.886 52.4661 190.374 54.3225 191.227C55.3222 191.693 55.4964 191.724 57.1264 191.708C58.5508 191.708 59.041 191.646 59.7674 191.351C60.2728 191.165 60.7146 190.933 60.7775 190.855C60.8245 190.762 60.5834 190.111 60.2313 189.397L59.5751 188.095L59.0224 188.312C58.3119 188.606 56.9825 188.606 56.427 188.327C53.6971 186.932 54.6087 182.961 57.6473 182.961C57.9955 182.961 58.5342 183.07 58.8356 183.194C59.1528 183.318 59.4539 183.396 59.5171 183.365C59.5644 183.334 59.8933 182.729 60.2376 182.031C60.8479 180.79 60.8477 180.759 60.5458 180.542C59.4018 179.72 55.9663 179.503 54.5296 180.139C52.7458 180.945 51.3611 182.372 50.816 183.954L50.5513 184.729L50.3733 184.031C49.7752 181.783 48.2479 180.356 45.9346 179.875C44.9681 179.674 43.5595 179.674 42.6902 179.875ZM45.6015 182.574C46.0458 182.791 46.5562 183.504 46.5584 183.892C46.5589 183.985 45.7838 184.047 44.3594 184.047H42.1438L42.2994 183.582C42.5956 182.775 43.2896 182.341 44.2708 182.341C44.7456 182.341 45.3476 182.45 45.6015 182.574Z" fill="black" fill-opacity="0.2"/>
<path d="M42.6902 179.875C39.7662 180.558 37.6612 183.365 37.9147 186.249C38.2015 189.428 41.0001 191.801 44.466 191.801C46.84 191.801 48.9555 190.871 50.0862 189.304L50.4003 188.87L48.9561 188.157L47.512 187.443L46.8974 187.924C45.8417 188.746 44.624 188.917 43.4975 188.405C42.6725 188.033 42.322 187.629 42.1915 186.932L42.0935 186.373H46.3032H50.4971L50.6911 187.102C51.1442 188.886 52.4661 190.374 54.3225 191.227C55.3222 191.693 55.4964 191.724 57.1264 191.708C58.5508 191.708 59.041 191.646 59.7674 191.351C60.2728 191.165 60.7146 190.933 60.7775 190.855C60.8245 190.762 60.5834 190.111 60.2313 189.397L59.5751 188.095L59.0224 188.312C58.3119 188.606 56.9825 188.606 56.427 188.327C53.6971 186.932 54.6087 182.961 57.6473 182.961C57.9955 182.961 58.5342 183.07 58.8356 183.194C59.1528 183.318 59.4539 183.396 59.5171 183.365C59.5644 183.334 59.8933 182.729 60.2376 182.031C60.8479 180.79 60.8477 180.759 60.5458 180.542C59.4018 179.72 55.9663 179.503 54.5296 180.139C52.7458 180.945 51.3611 182.372 50.816 183.954L50.5513 184.729L50.3733 184.031C49.7752 181.783 48.2479 180.356 45.9346 179.875C44.9681 179.674 43.5595 179.674 42.6902 179.875ZM45.6015 182.574C46.0458 182.791 46.5562 183.504 46.5584 183.892C46.5589 183.985 45.7838 184.047 44.3594 184.047H42.1438L42.2994 183.582C42.5956 182.775 43.2896 182.341 44.2708 182.341C44.7456 182.341 45.3476 182.45 45.6015 182.574Z" fill="black" fill-opacity="0.2"/>
<path d="M67.7428 179.844C67.1108 180.046 66.4008 180.434 65.8653 180.883L65.3769 181.287L65.3733 180.651L65.3698 180.015H63.3915H61.4133L61.4453 185.753L61.4773 191.491H63.4556H65.4339L65.4145 188.017C65.3959 184.683 65.4109 184.543 65.7562 184.032C66.7765 182.527 68.5324 182.388 69.4578 183.721C69.8088 184.233 69.8254 184.357 69.8449 187.862L69.8652 191.491H71.9384H73.9958L73.9238 187.102C73.8532 182.961 73.8359 182.698 73.5003 182.108C72.7488 180.728 71.193 179.875 69.2775 179.767C68.6601 179.736 67.9639 179.767 67.7428 179.844Z" fill="#79AE92"/>
<path d="M67.7428 179.844C67.1108 180.046 66.4008 180.434 65.8653 180.883L65.3769 181.287L65.3733 180.651L65.3698 180.015H63.3915H61.4133L61.4453 185.753L61.4773 191.491H63.4556H65.4339L65.4145 188.017C65.3959 184.683 65.4109 184.543 65.7562 184.032C66.7765 182.527 68.5324 182.388 69.4578 183.721C69.8088 184.233 69.8254 184.357 69.8449 187.862L69.8652 191.491H71.9384H73.9958L73.9238 187.102C73.8532 182.961 73.8359 182.698 73.5003 182.108C72.7488 180.728 71.193 179.875 69.2775 179.767C68.6601 179.736 67.9639 179.767 67.7428 179.844Z" fill="black" fill-opacity="0.2"/>
<path d="M67.7428 179.844C67.1108 180.046 66.4008 180.434 65.8653 180.883L65.3769 181.287L65.3733 180.651L65.3698 180.015H63.3915H61.4133L61.4453 185.753L61.4773 191.491H63.4556H65.4339L65.4145 188.017C65.3959 184.683 65.4109 184.543 65.7562 184.032C66.7765 182.527 68.5324 182.388 69.4578 183.721C69.8088 184.233 69.8254 184.357 69.8449 187.862L69.8652 191.491H71.9384H73.9958L73.9238 187.102C73.8532 182.961 73.8359 182.698 73.5003 182.108C72.7488 180.728 71.193 179.875 69.2775 179.767C68.6601 179.736 67.9639 179.767 67.7428 179.844Z" fill="black" fill-opacity="0.2"/>
<path d="M79.5021 179.922C77.4317 180.434 75.8087 181.69 74.9796 183.427C74.5572 184.311 74.5113 184.59 74.5178 185.753C74.543 187.443 74.9607 188.544 76.0273 189.677C77.3647 191.103 79.1886 191.801 81.5784 191.801C84.4429 191.801 86.8254 190.498 87.8894 188.327C89.4542 185.133 87.8038 181.488 84.2196 180.154C83.0937 179.751 80.6874 179.627 79.5021 179.922ZM82.7819 183.427C84.0514 184.047 84.5672 185.722 83.8938 186.994C83.3928 187.971 82.683 188.389 81.5751 188.389C80.0717 188.389 79.15 187.722 78.842 186.404C78.6636 185.644 78.8795 184.621 79.3038 184.093C80.1213 183.116 81.6074 182.837 82.7819 183.427Z" fill="#79AE92"/>
<path d="M79.5021 179.922C77.4317 180.434 75.8087 181.69 74.9796 183.427C74.5572 184.311 74.5113 184.59 74.5178 185.753C74.543 187.443 74.9607 188.544 76.0273 189.677C77.3647 191.103 79.1886 191.801 81.5784 191.801C84.4429 191.801 86.8254 190.498 87.8894 188.327C89.4542 185.133 87.8038 181.488 84.2196 180.154C83.0937 179.751 80.6874 179.627 79.5021 179.922ZM82.7819 183.427C84.0514 184.047 84.5672 185.722 83.8938 186.994C83.3928 187.971 82.683 188.389 81.5751 188.389C80.0717 188.389 79.15 187.722 78.842 186.404C78.6636 185.644 78.8795 184.621 79.3038 184.093C80.1213 183.116 81.6074 182.837 82.7819 183.427Z" fill="black" fill-opacity="0.2"/>
<path d="M79.5021 179.922C77.4317 180.434 75.8087 181.69 74.9796 183.427C74.5572 184.311 74.5113 184.59 74.5178 185.753C74.543 187.443 74.9607 188.544 76.0273 189.677C77.3647 191.103 79.1886 191.801 81.5784 191.801C84.4429 191.801 86.8254 190.498 87.8894 188.327C89.4542 185.133 87.8038 181.488 84.2196 180.154C83.0937 179.751 80.6874 179.627 79.5021 179.922ZM82.7819 183.427C84.0514 184.047 84.5672 185.722 83.8938 186.994C83.3928 187.971 82.683 188.389 81.5751 188.389C80.0717 188.389 79.15 187.722 78.842 186.404C78.6636 185.644 78.8795 184.621 79.3038 184.093C80.1213 183.116 81.6074 182.837 82.7819 183.427Z" fill="black" fill-opacity="0.2"/>
<path d="M99.2527 179.875C98.2251 180.077 96.7258 180.821 95.8911 181.55C93.7807 183.395 93.4358 186.807 95.1264 189.149C96.2747 190.731 98.1156 191.63 100.49 191.754C104.226 191.972 106.687 190.467 107.903 187.226C107.997 186.978 108.06 187.055 108.222 187.645C108.658 189.196 109.996 190.731 111.456 191.382C113.026 192.065 115.985 191.863 117.246 190.979L117.703 190.653L117.613 191.553C117.448 193.274 116.488 194.127 114.699 194.127C113.56 194.127 112.735 193.833 112.035 193.181L111.558 192.731L109.948 193.507C109.064 193.926 108.338 194.313 108.339 194.36C108.34 194.608 109.201 195.709 109.789 196.19C111.522 197.648 115.37 198.066 118.024 197.089C119.413 196.562 120.374 195.74 121.001 194.53L121.548 193.46L121.558 186.745L121.568 180.015H119.574H117.596L117.599 180.557L117.602 181.085L116.935 180.65C113.806 178.588 109.367 180.123 108.31 183.612C108.046 184.496 107.81 184.791 107.807 184.233C107.804 183.659 106.958 182.325 106.115 181.581C104.334 179.999 101.845 179.379 99.2527 179.875ZM102.533 183.519C103.328 184.093 103.6 184.605 103.669 185.644C103.721 186.466 103.675 186.683 103.361 187.148C102.764 188.017 102.07 188.389 101.025 188.389C100.345 188.389 99.9961 188.296 99.599 188.032C98.6618 187.412 98.4059 186.931 98.3994 185.768C98.3943 184.853 98.4564 184.652 98.8492 184.14C99.1006 183.814 99.5259 183.457 99.7943 183.333C100.489 183.023 101.993 183.132 102.533 183.519ZM116.46 183.519C117.255 184.093 117.527 184.605 117.596 185.644C117.648 186.466 117.602 186.683 117.288 187.148C116.691 188.017 115.997 188.389 114.952 188.389C114.272 188.389 113.923 188.296 113.526 188.032C112.589 187.412 112.333 186.931 112.326 185.768C112.321 184.853 112.383 184.652 112.776 184.14C113.028 183.814 113.453 183.457 113.721 183.333C114.416 183.023 115.92 183.132 116.46 183.519Z" fill="#79AE92"/>
<path d="M99.2527 179.875C98.2251 180.077 96.7258 180.821 95.8911 181.55C93.7807 183.395 93.4358 186.807 95.1264 189.149C96.2747 190.731 98.1156 191.63 100.49 191.754C104.226 191.972 106.687 190.467 107.903 187.226C107.997 186.978 108.06 187.055 108.222 187.645C108.658 189.196 109.996 190.731 111.456 191.382C113.026 192.065 115.985 191.863 117.246 190.979L117.703 190.653L117.613 191.553C117.448 193.274 116.488 194.127 114.699 194.127C113.56 194.127 112.735 193.833 112.035 193.181L111.558 192.731L109.948 193.507C109.064 193.926 108.338 194.313 108.339 194.36C108.34 194.608 109.201 195.709 109.789 196.19C111.522 197.648 115.37 198.066 118.024 197.089C119.413 196.562 120.374 195.74 121.001 194.53L121.548 193.46L121.558 186.745L121.568 180.015H119.574H117.596L117.599 180.557L117.602 181.085L116.935 180.65C113.806 178.588 109.367 180.123 108.31 183.612C108.046 184.496 107.81 184.791 107.807 184.233C107.804 183.659 106.958 182.325 106.115 181.581C104.334 179.999 101.845 179.379 99.2527 179.875ZM102.533 183.519C103.328 184.093 103.6 184.605 103.669 185.644C103.721 186.466 103.675 186.683 103.361 187.148C102.764 188.017 102.07 188.389 101.025 188.389C100.345 188.389 99.9961 188.296 99.599 188.032C98.6618 187.412 98.4059 186.931 98.3994 185.768C98.3943 184.853 98.4564 184.652 98.8492 184.14C99.1006 183.814 99.5259 183.457 99.7943 183.333C100.489 183.023 101.993 183.132 102.533 183.519ZM116.46 183.519C117.255 184.093 117.527 184.605 117.596 185.644C117.648 186.466 117.602 186.683 117.288 187.148C116.691 188.017 115.997 188.389 114.952 188.389C114.272 188.389 113.923 188.296 113.526 188.032C112.589 187.412 112.333 186.931 112.326 185.768C112.321 184.853 112.383 184.652 112.776 184.14C113.028 183.814 113.453 183.457 113.721 183.333C114.416 183.023 115.92 183.132 116.46 183.519Z" fill="black" fill-opacity="0.2"/>
<path d="M99.2527 179.875C98.2251 180.077 96.7258 180.821 95.8911 181.55C93.7807 183.395 93.4358 186.807 95.1264 189.149C96.2747 190.731 98.1156 191.63 100.49 191.754C104.226 191.972 106.687 190.467 107.903 187.226C107.997 186.978 108.06 187.055 108.222 187.645C108.658 189.196 109.996 190.731 111.456 191.382C113.026 192.065 115.985 191.863 117.246 190.979L117.703 190.653L117.613 191.553C117.448 193.274 116.488 194.127 114.699 194.127C113.56 194.127 112.735 193.833 112.035 193.181L111.558 192.731L109.948 193.507C109.064 193.926 108.338 194.313 108.339 194.36C108.34 194.608 109.201 195.709 109.789 196.19C111.522 197.648 115.37 198.066 118.024 197.089C119.413 196.562 120.374 195.74 121.001 194.53L121.548 193.46L121.558 186.745L121.568 180.015H119.574H117.596L117.599 180.557L117.602 181.085L116.935 180.65C113.806 178.588 109.367 180.123 108.31 183.612C108.046 184.496 107.81 184.791 107.807 184.233C107.804 183.659 106.958 182.325 106.115 181.581C104.334 179.999 101.845 179.379 99.2527 179.875ZM102.533 183.519C103.328 184.093 103.6 184.605 103.669 185.644C103.721 186.466 103.675 186.683 103.361 187.148C102.764 188.017 102.07 188.389 101.025 188.389C100.345 188.389 99.9961 188.296 99.599 188.032C98.6618 187.412 98.4059 186.931 98.3994 185.768C98.3943 184.853 98.4564 184.652 98.8492 184.14C99.1006 183.814 99.5259 183.457 99.7943 183.333C100.489 183.023 101.993 183.132 102.533 183.519ZM116.46 183.519C117.255 184.093 117.527 184.605 117.596 185.644C117.648 186.466 117.602 186.683 117.288 187.148C116.691 188.017 115.997 188.389 114.952 188.389C114.272 188.389 113.923 188.296 113.526 188.032C112.589 187.412 112.333 186.931 112.326 185.768C112.321 184.853 112.383 184.652 112.776 184.14C113.028 183.814 113.453 183.457 113.721 183.333C114.416 183.023 115.92 183.132 116.46 183.519Z" fill="black" fill-opacity="0.2"/>
<path d="M132.045 179.999C129.376 180.898 127.839 183.442 128.141 186.45C128.342 188.513 129.491 190.234 131.301 191.196C132.253 191.692 132.38 191.723 133.883 191.723C135.592 191.723 136.367 191.475 137.327 190.591L137.752 190.188L137.756 190.839L137.759 191.491H139.738H141.716L141.684 185.753L141.652 180.014H139.674H137.695L137.698 180.542L137.701 181.084L136.907 180.557C135.589 179.689 133.609 179.456 132.045 179.999ZM136.448 183.457C137.846 184.388 138.204 186.156 137.262 187.458C136.571 188.404 134.658 188.715 133.609 188.032C132.958 187.614 132.351 186.512 132.346 185.753C132.356 184.698 133.11 183.581 134.073 183.225C134.689 182.992 135.94 183.116 136.448 183.457Z" fill="#79AE92"/>
<path d="M132.045 179.999C129.376 180.898 127.839 183.442 128.141 186.45C128.342 188.513 129.491 190.234 131.301 191.196C132.253 191.692 132.38 191.723 133.883 191.723C135.592 191.723 136.367 191.475 137.327 190.591L137.752 190.188L137.756 190.839L137.759 191.491H139.738H141.716L141.684 185.753L141.652 180.014H139.674H137.695L137.698 180.542L137.701 181.084L136.907 180.557C135.589 179.689 133.609 179.456 132.045 179.999ZM136.448 183.457C137.846 184.388 138.204 186.156 137.262 187.458C136.571 188.404 134.658 188.715 133.609 188.032C132.958 187.614 132.351 186.512 132.346 185.753C132.356 184.698 133.11 183.581 134.073 183.225C134.689 182.992 135.94 183.116 136.448 183.457Z" fill="black" fill-opacity="0.2"/>
<path d="M132.045 179.999C129.376 180.898 127.839 183.442 128.141 186.45C128.342 188.513 129.491 190.234 131.301 191.196C132.253 191.692 132.38 191.723 133.883 191.723C135.592 191.723 136.367 191.475 137.327 190.591L137.752 190.188L137.756 190.839L137.759 191.491H139.738H141.716L141.684 185.753L141.652 180.014H139.674H137.695L137.698 180.542L137.701 181.084L136.907 180.557C135.589 179.689 133.609 179.456 132.045 179.999ZM136.448 183.457C137.846 184.388 138.204 186.156 137.262 187.458C136.571 188.404 134.658 188.715 133.609 188.032C132.958 187.614 132.351 186.512 132.346 185.753C132.356 184.698 133.11 183.581 134.073 183.225C134.689 182.992 135.94 183.116 136.448 183.457Z" fill="black" fill-opacity="0.2"/>
<path d="M123.167 185.753L123.199 191.491H125.257H127.314L127.282 185.753L127.25 180.015H125.193H123.135L123.167 185.753Z" fill="#79AE92"/>
<path d="M123.167 185.753L123.199 191.491H125.257H127.314L127.282 185.753L127.25 180.015H125.193H123.135L123.167 185.753Z" fill="black" fill-opacity="0.2"/>
<path d="M123.167 185.753L123.199 191.491H125.257H127.314L127.282 185.753L127.25 180.015H125.193H123.135L123.167 185.753Z" fill="black" fill-opacity="0.2"/>
</svg>
