<svg width="64" height="64" viewBox="0 0 64 64" fill="none" xmlns="http://www.w3.org/2000/svg">
<path d="M54.8586 13.5546L33.8026 32.3199C33.3141 32.7555 32.6824 32.9962 32.0279 32.9962C31.3734 32.9962 30.7418 32.7555 30.2533 32.3199L9.10926 13.5653C9.61403 13.4113 10.1389 13.3331 10.6666 13.3333H53.3333C53.8497 13.3328 54.3635 13.4073 54.8586 13.5546ZM58.4746 17.2479C58.5999 17.7013 58.6666 18.1759 58.6666 18.6666V45.3333C58.6666 46.7477 58.1047 48.1043 57.1045 49.1045C56.1043 50.1047 54.7477 50.6666 53.3333 50.6666H10.6666C9.2521 50.6666 7.89555 50.1047 6.89535 49.1045C5.89516 48.1043 5.33326 46.7477 5.33326 45.3333V18.6666C5.33273 18.1854 5.39731 17.7064 5.52526 17.2426L26.7039 36.3039C28.1693 37.6099 30.0637 38.3316 32.0266 38.3316C33.9895 38.3316 35.8839 37.6099 37.3493 36.3039L58.4746 17.2479Z" fill="#79AE92"/>
<path d="M54.8586 13.5546L33.8026 32.3199C33.3141 32.7555 32.6824 32.9962 32.0279 32.9962C31.3734 32.9962 30.7418 32.7555 30.2533 32.3199L9.10926 13.5653C9.61403 13.4113 10.1389 13.3331 10.6666 13.3333H53.3333C53.8497 13.3328 54.3635 13.4073 54.8586 13.5546ZM58.4746 17.2479C58.5999 17.7013 58.6666 18.1759 58.6666 18.6666V45.3333C58.6666 46.7477 58.1047 48.1043 57.1045 49.1045C56.1043 50.1047 54.7477 50.6666 53.3333 50.6666H10.6666C9.2521 50.6666 7.89555 50.1047 6.89535 49.1045C5.89516 48.1043 5.33326 46.7477 5.33326 45.3333V18.6666C5.33273 18.1854 5.39731 17.7064 5.52526 17.2426L26.7039 36.3039C28.1693 37.6099 30.0637 38.3316 32.0266 38.3316C33.9895 38.3316 35.8839 37.6099 37.3493 36.3039L58.4746 17.2479Z" fill="black" fill-opacity="0.2"/>
<path d="M54.8586 13.5546L33.8026 32.3199C33.3141 32.7555 32.6824 32.9962 32.0279 32.9962C31.3734 32.9962 30.7418 32.7555 30.2533 32.3199L9.10926 13.5653C9.61403 13.4113 10.1389 13.3331 10.6666 13.3333H53.3333C53.8497 13.3328 54.3635 13.4073 54.8586 13.5546ZM58.4746 17.2479C58.5999 17.7013 58.6666 18.1759 58.6666 18.6666V45.3333C58.6666 46.7477 58.1047 48.1043 57.1045 49.1045C56.1043 50.1047 54.7477 50.6666 53.3333 50.6666H10.6666C9.2521 50.6666 7.89555 50.1047 6.89535 49.1045C5.89516 48.1043 5.33326 46.7477 5.33326 45.3333V18.6666C5.33273 18.1854 5.39731 17.7064 5.52526 17.2426L26.7039 36.3039C28.1693 37.6099 30.0637 38.3316 32.0266 38.3316C33.9895 38.3316 35.8839 37.6099 37.3493 36.3039L58.4746 17.2479Z" fill="black" fill-opacity="0.2"/>
</svg>
