<svg width="64" height="64" viewBox="0 0 64 64" fill="none" xmlns="http://www.w3.org/2000/svg">
<path d="M43.6662 8.66625C46.7578 8.67548 49.7201 9.9077 51.9062 12.0938C54.0923 14.2799 55.3245 17.2422 55.3338 20.3337V43.6662C55.3245 46.7578 54.0923 49.7201 51.9062 51.9062C49.7201 54.0923 46.7578 55.3245 43.6662 55.3338H20.3337C17.2422 55.3245 14.2799 54.0923 12.0938 51.9062C9.9077 49.7201 8.67548 46.7578 8.66625 43.6662V20.3337C8.67548 17.2422 9.9077 14.2799 12.0938 12.0938C14.2799 9.9077 17.2422 8.67548 20.3337 8.66625H43.6662ZM43.6662 4H20.3337C11.35 4 4 11.35 4 20.3337V43.6662C4 52.65 11.35 60 20.3337 60H43.6662C52.65 60 60 52.65 60 43.6662V20.3337C60 11.35 52.65 4 43.6662 4Z" fill="#79AE92"/>
<path d="M43.6662 8.66625C46.7578 8.67548 49.7201 9.9077 51.9062 12.0938C54.0923 14.2799 55.3245 17.2422 55.3338 20.3337V43.6662C55.3245 46.7578 54.0923 49.7201 51.9062 51.9062C49.7201 54.0923 46.7578 55.3245 43.6662 55.3338H20.3337C17.2422 55.3245 14.2799 54.0923 12.0938 51.9062C9.9077 49.7201 8.67548 46.7578 8.66625 43.6662V20.3337C8.67548 17.2422 9.9077 14.2799 12.0938 12.0938C14.2799 9.9077 17.2422 8.67548 20.3337 8.66625H43.6662ZM43.6662 4H20.3337C11.35 4 4 11.35 4 20.3337V43.6662C4 52.65 11.35 60 20.3337 60H43.6662C52.65 60 60 52.65 60 43.6662V20.3337C60 11.35 52.65 4 43.6662 4Z" fill="black" fill-opacity="0.2"/>
<path d="M43.6662 8.66625C46.7578 8.67548 49.7201 9.9077 51.9062 12.0938C54.0923 14.2799 55.3245 17.2422 55.3338 20.3337V43.6662C55.3245 46.7578 54.0923 49.7201 51.9062 51.9062C49.7201 54.0923 46.7578 55.3245 43.6662 55.3338H20.3337C17.2422 55.3245 14.2799 54.0923 12.0938 51.9062C9.9077 49.7201 8.67548 46.7578 8.66625 43.6662V20.3337C8.67548 17.2422 9.9077 14.2799 12.0938 12.0938C14.2799 9.9077 17.2422 8.67548 20.3337 8.66625H43.6662ZM43.6662 4H20.3337C11.35 4 4 11.35 4 20.3337V43.6662C4 52.65 11.35 60 20.3337 60H43.6662C52.65 60 60 52.65 60 43.6662V20.3337C60 11.35 52.65 4 43.6662 4Z" fill="black" fill-opacity="0.2"/>
<path d="M47.1663 20.3337C46.474 20.3337 45.7973 20.1285 45.2218 19.7439C44.6462 19.3593 44.1976 18.8127 43.9327 18.1731C43.6678 17.5336 43.5985 16.8299 43.7335 16.1509C43.8686 15.472 44.2019 14.8484 44.6914 14.3589C45.1809 13.8694 45.8045 13.536 46.4834 13.401C47.1624 13.2659 47.8661 13.3353 48.5057 13.6002C49.1452 13.8651 49.6918 14.3137 50.0764 14.8892C50.461 15.4648 50.6663 16.1415 50.6663 16.8337C50.6672 17.2936 50.5774 17.7492 50.4019 18.1743C50.2263 18.5994 49.9685 18.9856 49.6433 19.3108C49.3181 19.636 48.9319 19.8938 48.5068 20.0693C48.0817 20.2449 47.6262 20.3347 47.1663 20.3337Z" fill="#79AE92"/>
<path d="M47.1663 20.3337C46.474 20.3337 45.7973 20.1285 45.2218 19.7439C44.6462 19.3593 44.1976 18.8127 43.9327 18.1731C43.6678 17.5336 43.5985 16.8299 43.7335 16.1509C43.8686 15.472 44.2019 14.8484 44.6914 14.3589C45.1809 13.8694 45.8045 13.536 46.4834 13.401C47.1624 13.2659 47.8661 13.3353 48.5057 13.6002C49.1452 13.8651 49.6918 14.3137 50.0764 14.8892C50.461 15.4648 50.6663 16.1415 50.6663 16.8337C50.6672 17.2936 50.5774 17.7492 50.4019 18.1743C50.2263 18.5994 49.9685 18.9856 49.6433 19.3108C49.3181 19.636 48.9319 19.8938 48.5068 20.0693C48.0817 20.2449 47.6262 20.3347 47.1663 20.3337Z" fill="black" fill-opacity="0.2"/>
<path d="M47.1663 20.3337C46.474 20.3337 45.7973 20.1285 45.2218 19.7439C44.6462 19.3593 44.1976 18.8127 43.9327 18.1731C43.6678 17.5336 43.5985 16.8299 43.7335 16.1509C43.8686 15.472 44.2019 14.8484 44.6914 14.3589C45.1809 13.8694 45.8045 13.536 46.4834 13.401C47.1624 13.2659 47.8661 13.3353 48.5057 13.6002C49.1452 13.8651 49.6918 14.3137 50.0764 14.8892C50.461 15.4648 50.6663 16.1415 50.6663 16.8337C50.6672 17.2936 50.5774 17.7492 50.4019 18.1743C50.2263 18.5994 49.9685 18.9856 49.6433 19.3108C49.3181 19.636 48.9319 19.8938 48.5068 20.0693C48.0817 20.2449 47.6262 20.3347 47.1663 20.3337Z" fill="black" fill-opacity="0.2"/>
<path d="M32 22.6663C33.846 22.6663 35.6506 23.2137 37.1856 24.2393C38.7205 25.2649 39.9168 26.7226 40.6233 28.4281C41.3297 30.1337 41.5146 32.0104 41.1544 33.8209C40.7943 35.6315 39.9053 37.2946 38.6 38.6C37.2946 39.9053 35.6315 40.7943 33.8209 41.1544C32.0104 41.5146 30.1337 41.3297 28.4281 40.6233C26.7226 39.9168 25.2649 38.7205 24.2393 37.1856C23.2137 35.6506 22.6663 33.846 22.6663 32C22.6689 29.5253 23.6531 27.1528 25.403 25.403C27.1528 23.6531 29.5254 22.6689 32 22.6663ZM32 18C29.2311 18 26.5243 18.8211 24.222 20.3594C21.9197 21.8978 20.1253 24.0843 19.0657 26.6424C18.0061 29.2006 17.7288 32.0155 18.269 34.7313C18.8092 37.447 20.1426 39.9416 22.1005 41.8995C24.0584 43.8574 26.553 45.1908 29.2687 45.731C31.9845 46.2712 34.7994 45.9939 37.3576 44.9343C39.9157 43.8747 42.1022 42.0803 43.6406 39.778C45.1789 37.4757 46 34.7689 46 32C46 28.287 44.525 24.726 41.8995 22.1005C39.274 19.475 35.713 18 32 18Z" fill="#79AE92"/>
<path d="M32 22.6663C33.846 22.6663 35.6506 23.2137 37.1856 24.2393C38.7205 25.2649 39.9168 26.7226 40.6233 28.4281C41.3297 30.1337 41.5146 32.0104 41.1544 33.8209C40.7943 35.6315 39.9053 37.2946 38.6 38.6C37.2946 39.9053 35.6315 40.7943 33.8209 41.1544C32.0104 41.5146 30.1337 41.3297 28.4281 40.6233C26.7226 39.9168 25.2649 38.7205 24.2393 37.1856C23.2137 35.6506 22.6663 33.846 22.6663 32C22.6689 29.5253 23.6531 27.1528 25.403 25.403C27.1528 23.6531 29.5254 22.6689 32 22.6663ZM32 18C29.2311 18 26.5243 18.8211 24.222 20.3594C21.9197 21.8978 20.1253 24.0843 19.0657 26.6424C18.0061 29.2006 17.7288 32.0155 18.269 34.7313C18.8092 37.447 20.1426 39.9416 22.1005 41.8995C24.0584 43.8574 26.553 45.1908 29.2687 45.731C31.9845 46.2712 34.7994 45.9939 37.3576 44.9343C39.9157 43.8747 42.1022 42.0803 43.6406 39.778C45.1789 37.4757 46 34.7689 46 32C46 28.287 44.525 24.726 41.8995 22.1005C39.274 19.475 35.713 18 32 18Z" fill="black" fill-opacity="0.2"/>
<path d="M32 22.6663C33.846 22.6663 35.6506 23.2137 37.1856 24.2393C38.7205 25.2649 39.9168 26.7226 40.6233 28.4281C41.3297 30.1337 41.5146 32.0104 41.1544 33.8209C40.7943 35.6315 39.9053 37.2946 38.6 38.6C37.2946 39.9053 35.6315 40.7943 33.8209 41.1544C32.0104 41.5146 30.1337 41.3297 28.4281 40.6233C26.7226 39.9168 25.2649 38.7205 24.2393 37.1856C23.2137 35.6506 22.6663 33.846 22.6663 32C22.6689 29.5253 23.6531 27.1528 25.403 25.403C27.1528 23.6531 29.5254 22.6689 32 22.6663ZM32 18C29.2311 18 26.5243 18.8211 24.222 20.3594C21.9197 21.8978 20.1253 24.0843 19.0657 26.6424C18.0061 29.2006 17.7288 32.0155 18.269 34.7313C18.8092 37.447 20.1426 39.9416 22.1005 41.8995C24.0584 43.8574 26.553 45.1908 29.2687 45.731C31.9845 46.2712 34.7994 45.9939 37.3576 44.9343C39.9157 43.8747 42.1022 42.0803 43.6406 39.778C45.1789 37.4757 46 34.7689 46 32C46 28.287 44.525 24.726 41.8995 22.1005C39.274 19.475 35.713 18 32 18Z" fill="black" fill-opacity="0.2"/>
</svg>
