<svg width="64" height="64" viewBox="0 0 64 64" fill="none" xmlns="http://www.w3.org/2000/svg">
<path d="M32 4C20.9587 4 12 12.0638 12 22C12 38 32 60 32 60C32 60 52 38 52 22C52 12.0638 43.0413 4 32 4ZM32 32C30.4177 32 28.871 31.5308 27.5554 30.6518C26.2398 29.7727 25.2145 28.5233 24.609 27.0615C24.0035 25.5997 23.845 23.9911 24.1537 22.4393C24.4624 20.8874 25.2243 19.462 26.3431 18.3431C27.462 17.2243 28.8874 16.4624 30.4393 16.1537C31.9911 15.845 33.5997 16.0035 35.0615 16.609C36.5233 17.2145 37.7727 18.2398 38.6518 19.5554C39.5308 20.871 40 22.4177 40 24C39.9977 26.121 39.1541 28.1545 37.6543 29.6543C36.1545 31.1541 34.121 31.9977 32 32Z" fill="#79AE92"/>
<path d="M32 4C20.9587 4 12 12.0638 12 22C12 38 32 60 32 60C32 60 52 38 52 22C52 12.0638 43.0413 4 32 4ZM32 32C30.4177 32 28.871 31.5308 27.5554 30.6518C26.2398 29.7727 25.2145 28.5233 24.609 27.0615C24.0035 25.5997 23.845 23.9911 24.1537 22.4393C24.4624 20.8874 25.2243 19.462 26.3431 18.3431C27.462 17.2243 28.8874 16.4624 30.4393 16.1537C31.9911 15.845 33.5997 16.0035 35.0615 16.609C36.5233 17.2145 37.7727 18.2398 38.6518 19.5554C39.5308 20.871 40 22.4177 40 24C39.9977 26.121 39.1541 28.1545 37.6543 29.6543C36.1545 31.1541 34.121 31.9977 32 32Z" fill="black" fill-opacity="0.2"/>
<path d="M32 4C20.9587 4 12 12.0638 12 22C12 38 32 60 32 60C32 60 52 38 52 22C52 12.0638 43.0413 4 32 4ZM32 32C30.4177 32 28.871 31.5308 27.5554 30.6518C26.2398 29.7727 25.2145 28.5233 24.609 27.0615C24.0035 25.5997 23.845 23.9911 24.1537 22.4393C24.4624 20.8874 25.2243 19.462 26.3431 18.3431C27.462 17.2243 28.8874 16.4624 30.4393 16.1537C31.9911 15.845 33.5997 16.0035 35.0615 16.609C36.5233 17.2145 37.7727 18.2398 38.6518 19.5554C39.5308 20.871 40 22.4177 40 24C39.9977 26.121 39.1541 28.1545 37.6543 29.6543C36.1545 31.1541 34.121 31.9977 32 32Z" fill="black" fill-opacity="0.2"/>
</svg>
