<svg width="64" height="64" viewBox="0 0 64 64" fill="none" xmlns="http://www.w3.org/2000/svg">
<path d="M48.8749 60.0001C46.4349 60.0001 43.0074 59.1176 37.8749 56.2501C31.6337 52.7501 26.8062 49.5188 20.5987 43.3276C14.6137 37.3463 11.7012 33.4738 7.62493 26.0563C3.01993 17.6813 3.80493 13.2913 4.68243 11.4151C5.72743 9.17256 7.26993 7.83131 9.26368 6.50006C10.3961 5.75811 11.5945 5.12208 12.8437 4.60006C12.9687 4.54631 13.0849 4.49506 13.1887 4.44881C13.8074 4.17006 14.7449 3.74881 15.9324 4.19881C16.7249 4.49631 17.4324 5.10506 18.5399 6.19881C20.8112 8.43881 23.9149 13.4276 25.0599 15.8776C25.8287 17.5288 26.3374 18.6188 26.3387 19.8413C26.3387 21.2726 25.6187 22.3763 24.7449 23.5676C24.5812 23.7913 24.4187 24.0051 24.2612 24.2126C23.3099 25.4626 23.1012 25.8238 23.2387 26.4688C23.5174 27.7651 25.5962 31.6238 29.0124 35.0326C32.4287 38.4413 36.1762 40.3888 37.4774 40.6663C38.1499 40.8101 38.5187 40.5926 39.8087 39.6076C39.9937 39.4663 40.1837 39.3201 40.3824 39.1738C41.7149 38.1826 42.7674 37.4813 44.1649 37.4813H44.1724C45.3887 37.4813 46.4299 38.0088 48.1549 38.8788C50.4049 40.0138 55.5437 43.0776 57.7974 45.3513C58.8937 46.4563 59.5049 47.1613 59.8037 47.9526C60.2537 49.1438 59.8299 50.0776 59.5537 50.7026C59.5074 50.8063 59.4562 50.9201 59.4024 51.0463C58.8763 52.2932 58.2365 53.4891 57.4912 54.6188C56.1624 56.6063 54.8162 58.1451 52.5687 59.1913C51.4146 59.7372 50.1515 60.0137 48.8749 60.0001Z" fill="#79AE92"/>
<path d="M48.8749 60.0001C46.4349 60.0001 43.0074 59.1176 37.8749 56.2501C31.6337 52.7501 26.8062 49.5188 20.5987 43.3276C14.6137 37.3463 11.7012 33.4738 7.62493 26.0563C3.01993 17.6813 3.80493 13.2913 4.68243 11.4151C5.72743 9.17256 7.26993 7.83131 9.26368 6.50006C10.3961 5.75811 11.5945 5.12208 12.8437 4.60006C12.9687 4.54631 13.0849 4.49506 13.1887 4.44881C13.8074 4.17006 14.7449 3.74881 15.9324 4.19881C16.7249 4.49631 17.4324 5.10506 18.5399 6.19881C20.8112 8.43881 23.9149 13.4276 25.0599 15.8776C25.8287 17.5288 26.3374 18.6188 26.3387 19.8413C26.3387 21.2726 25.6187 22.3763 24.7449 23.5676C24.5812 23.7913 24.4187 24.0051 24.2612 24.2126C23.3099 25.4626 23.1012 25.8238 23.2387 26.4688C23.5174 27.7651 25.5962 31.6238 29.0124 35.0326C32.4287 38.4413 36.1762 40.3888 37.4774 40.6663C38.1499 40.8101 38.5187 40.5926 39.8087 39.6076C39.9937 39.4663 40.1837 39.3201 40.3824 39.1738C41.7149 38.1826 42.7674 37.4813 44.1649 37.4813H44.1724C45.3887 37.4813 46.4299 38.0088 48.1549 38.8788C50.4049 40.0138 55.5437 43.0776 57.7974 45.3513C58.8937 46.4563 59.5049 47.1613 59.8037 47.9526C60.2537 49.1438 59.8299 50.0776 59.5537 50.7026C59.5074 50.8063 59.4562 50.9201 59.4024 51.0463C58.8763 52.2932 58.2365 53.4891 57.4912 54.6188C56.1624 56.6063 54.8162 58.1451 52.5687 59.1913C51.4146 59.7372 50.1515 60.0137 48.8749 60.0001Z" fill="black" fill-opacity="0.2"/>
<path d="M48.8749 60.0001C46.4349 60.0001 43.0074 59.1176 37.8749 56.2501C31.6337 52.7501 26.8062 49.5188 20.5987 43.3276C14.6137 37.3463 11.7012 33.4738 7.62493 26.0563C3.01993 17.6813 3.80493 13.2913 4.68243 11.4151C5.72743 9.17256 7.26993 7.83131 9.26368 6.50006C10.3961 5.75811 11.5945 5.12208 12.8437 4.60006C12.9687 4.54631 13.0849 4.49506 13.1887 4.44881C13.8074 4.17006 14.7449 3.74881 15.9324 4.19881C16.7249 4.49631 17.4324 5.10506 18.5399 6.19881C20.8112 8.43881 23.9149 13.4276 25.0599 15.8776C25.8287 17.5288 26.3374 18.6188 26.3387 19.8413C26.3387 21.2726 25.6187 22.3763 24.7449 23.5676C24.5812 23.7913 24.4187 24.0051 24.2612 24.2126C23.3099 25.4626 23.1012 25.8238 23.2387 26.4688C23.5174 27.7651 25.5962 31.6238 29.0124 35.0326C32.4287 38.4413 36.1762 40.3888 37.4774 40.6663C38.1499 40.8101 38.5187 40.5926 39.8087 39.6076C39.9937 39.4663 40.1837 39.3201 40.3824 39.1738C41.7149 38.1826 42.7674 37.4813 44.1649 37.4813H44.1724C45.3887 37.4813 46.4299 38.0088 48.1549 38.8788C50.4049 40.0138 55.5437 43.0776 57.7974 45.3513C58.8937 46.4563 59.5049 47.1613 59.8037 47.9526C60.2537 49.1438 59.8299 50.0776 59.5537 50.7026C59.5074 50.8063 59.4562 50.9201 59.4024 51.0463C58.8763 52.2932 58.2365 53.4891 57.4912 54.6188C56.1624 56.6063 54.8162 58.1451 52.5687 59.1913C51.4146 59.7372 50.1515 60.0137 48.8749 60.0001Z" fill="black" fill-opacity="0.2"/>
</svg>
