<svg width="268" height="299" viewBox="0 0 268 299" fill="none" xmlns="http://www.w3.org/2000/svg">
<path d="M116.051 30.9333C106.851 48 96.5839 66.9333 93.2506 73.2C75.1173 106.933 36.8506 176.8 35.9173 178.133C35.1173 179.067 36.3173 180 39.3839 180.933L43.9173 182.4L50.3173 170.8C53.784 164.533 58.8506 155.067 61.6506 150C64.4506 144.8 67.784 138.667 68.9839 136.267C70.1839 134 71.6506 132 72.0506 132C72.5839 132 73.6506 139.067 74.5839 147.6C75.5173 156.267 76.8506 167.733 77.5173 173.067C79.6506 189.867 80.0506 188.8 69.1173 190.667C59.1173 192.4 43.1173 191.733 34.7173 189.333C32.0506 188.667 27.1173 186.267 23.6506 184C9.38395 175.067 10.3173 159.733 26.1839 139.6C32.0506 132 32.3173 131.867 37.3839 132.667C46.8506 134.267 54.7173 127.2 54.7173 117.067C54.7173 113.333 55.6506 112.133 60.584 108.933C64.584 106.4 67.3839 103.333 69.3839 99.2C70.8506 95.7333 71.9173 92.8 71.6506 92.5333C71.3839 92.2667 65.9173 95.3333 59.6506 99.4667C50.0506 105.6 47.784 106.667 45.5173 105.467C41.784 103.333 37.6506 103.6 33.3839 106.267C28.7173 108.933 26.7173 113.2 26.7173 120.133C26.7173 124.667 25.6506 126.667 20.7173 132.4C17.3839 136.267 12.4506 143.6 9.78395 148.933C5.91728 156.933 5.11728 160 5.11728 167.067C5.11728 176.667 6.98395 181.333 13.6506 187.467C21.9173 195.333 35.2506 200 49.3839 200C53.1173 200 56.0506 200.4 56.0506 200.933C55.9173 202.133 21.2506 226.933 20.5839 226.267C20.3173 226 22.1839 222 24.7173 217.2C27.2506 212.533 29.3839 208.267 29.3839 207.867C29.3839 206.4 22.3173 203.867 21.3839 204.933C20.7173 205.467 17.7839 210.8 14.5839 216.667C11.5173 222.533 6.58395 231.467 3.78395 236.4C-1.94939 246.933 -2.08272 247.333 1.11728 248.667C22.1839 256.933 132.584 298.667 133.384 298.667C135.384 298.667 266.584 248.667 267.784 247.467C268.584 246.667 263.384 236.533 242.584 198.933C233.917 183.2 226.451 169.333 226.051 167.867C225.517 166.133 226.984 163.067 230.851 158.133C236.051 151.467 236.851 150.933 240.851 151.6C253.117 153.6 260.984 138 252.717 128.267C243.384 117.067 226.317 125.733 228.584 140.4C229.384 145.067 228.984 146.267 224.584 151.6L219.651 157.6L217.651 153.867C216.584 151.733 214.851 148.533 213.784 146.933L211.784 143.733L208.717 146.667L205.517 149.733L209.251 157.2L213.117 164.667L204.984 174.4C200.584 179.733 196.451 184.4 195.917 184.667C195.517 185.067 191.784 181.467 187.917 176.667C183.917 171.867 180.451 168 180.051 168C179.651 168 177.917 169.2 176.184 170.533L172.851 173.067L179.517 180.8C190.584 193.867 190.051 192.4 185.917 199.6C183.917 203.067 180.051 209.333 177.384 213.333C174.717 217.333 172.184 221.333 171.917 222.133C170.584 225.733 139.251 276 138.317 276C137.784 276 137.384 254.4 137.517 228.133L137.651 180.267L145.517 176.8C176.184 163.6 213.117 134.4 226.984 112.667C235.517 99.3333 237.784 92.5333 237.117 82.2667C236.451 71.0667 232.184 65.2 220.984 60C215.917 57.6 212.184 54.6667 210.584 52C205.784 44.1333 196.584 43.2 189.917 49.8667C186.717 53.0667 183.784 54.6667 179.384 55.2C172.584 56.2667 172.851 56 174.984 60.6667C176.184 63.3333 177.384 64 180.984 64C184.317 64 186.451 64.9333 188.717 67.8667C190.584 70 193.784 72 196.051 72.5333C200.851 73.4667 208.451 70.6667 210.317 67.3333C211.917 64.5333 216.584 66.2667 223.251 72C231.917 79.6 230.851 91.2 220.184 107.2C210.984 120.8 188.851 141.6 172.051 152.267L168.584 154.4L152.984 135.2L137.384 116.133V72C137.384 43.6 137.917 28 138.717 28C139.517 28 140.051 28.5333 140.051 29.0667C140.051 29.7333 150.317 49.0667 162.851 72.1333C175.517 95.2 186.851 116.267 188.317 119.067C191.784 125.6 192.451 125.867 195.917 122.133L198.851 119.067L185.651 95.2C178.451 82 163.917 55.3333 153.251 35.7333C142.717 16.1333 133.784 0 133.384 0C132.984 0 125.251 14 116.051 30.9333ZM117.251 55.4667C115.784 61.2 111.917 75.8667 108.717 88C105.651 100.133 99.9173 122 96.0506 136.667C92.184 151.333 88.7173 164.667 88.3173 166.267C87.6506 169.867 85.3839 170.4 85.3839 166.933C85.3839 165.733 84.1839 153.867 82.7173 140.8L80.0506 116.933L92.5839 93.4667C110.317 60.1333 119.251 44.1333 119.651 44.5333C119.917 44.6667 118.851 49.6 117.251 55.4667ZM129.384 83.0667V116.933L115.784 135.067C108.317 145.2 102.051 153.067 101.784 152.8C101.117 152.133 113.384 103.067 122.984 68C124.451 62.5333 125.917 56.8 126.317 55.3333C127.384 50.6667 127.917 49.3333 128.717 49.3333C129.117 49.3333 129.384 64.5333 129.384 83.0667ZM45.3839 116C46.4506 117.867 46.4506 119.467 45.3839 121.333C42.8506 126 34.7173 124 34.7173 118.667C34.7173 113.333 42.8506 111.333 45.3839 116ZM148.984 143.867C154.317 150.4 158.984 156.533 159.384 157.733C160.051 159.067 157.251 161.2 149.517 165.2C143.651 168.133 138.584 170.667 138.184 170.667C137.784 170.667 137.384 162 137.384 151.333C137.384 140.667 137.784 132 138.451 132.133C138.984 132.133 143.784 137.467 148.984 143.867ZM247.251 134.933C250.451 140.267 241.384 145.6 237.784 140.533C235.517 137.467 235.651 136.667 238.184 134C240.851 131.333 245.251 131.867 247.251 134.933ZM129.384 153.733V174.267L125.784 175.867C119.784 178.667 94.4506 186.8 93.784 186.133C91.784 184.133 97.784 173.867 111.917 154.933C120.717 143.067 128.317 133.333 128.717 133.333C129.117 133.333 129.384 142.533 129.384 153.733ZM233.917 201.733C241.117 214.8 246.717 225.733 246.451 226C246.317 226.267 236.984 219.2 226.051 210.4C214.984 201.6 205.251 194.133 204.451 193.733C201.651 192.667 202.317 191.333 210.184 182.133C216.984 174.133 217.917 173.467 219.384 175.6C220.184 176.933 226.851 188.667 233.917 201.733ZM129.384 194C129.384 198.8 129.117 202.667 128.851 202.667C128.451 202.667 106.184 209.467 92.3173 213.867C89.2506 214.933 89.2506 214.8 89.6506 205.867L90.0506 196.8L102.051 193.333C108.717 191.333 116.717 188.8 120.051 187.6C129.384 184.267 129.384 184.267 129.384 194ZM80.0506 207.867V217.2L60.4506 223.333C49.5173 226.667 38.0506 230.4 34.8506 231.467C31.5173 232.4 28.7173 233.067 28.4506 232.933C27.5173 232 75.3839 198.8 77.784 198.667C79.784 198.667 80.0506 200 80.0506 207.867ZM219.651 216.667C230.851 225.333 239.784 232.667 239.517 232.933C239.251 233.2 229.251 230.4 217.251 226.8C205.251 223.067 194.984 220 194.451 220C193.917 220 192.584 221.733 191.517 223.733L189.651 227.467L216.717 235.733C231.517 240.267 244.451 244 245.251 244C248.984 244 246.051 246.667 239.784 249.067C211.117 259.733 147.384 284.267 146.317 284.933C143.651 286.533 146.851 280.8 171.784 240C186.451 215.867 197.251 199.333 198.051 199.867C198.851 200.4 208.584 208 219.651 216.667ZM129.384 244C129.384 261.6 128.851 276 128.317 276C126.851 276 94.3173 226.533 94.184 224.133C94.0506 222.8 98.9839 220.667 110.051 217.2C118.851 214.4 126.851 212.133 127.784 212.133C128.984 212 129.384 219.2 129.384 244Z" fill="white"/>
</svg>
