<svg width="501" height="87" viewBox="0 0 501 87" fill="none" xmlns="http://www.w3.org/2000/svg">
<path d="M245.295 2.07413C230.095 5.67413 221.295 17.1408 223.428 30.6075C225.028 40.7408 233.695 46.4741 254.495 51.2741C271.561 55.2741 275.961 59.8075 269.028 66.6075C266.228 69.5408 264.628 69.9408 256.095 69.9408C246.895 69.9408 243.028 68.7408 229.028 62.4741C227.695 61.9408 221.695 72.4741 221.695 75.2741C221.695 77.4075 231.695 81.8075 241.295 84.0741C267.828 90.3408 291.028 79.0075 291.028 59.8075C291.028 48.7408 283.428 41.5408 267.428 37.4075C245.561 31.8075 244.228 31.2741 242.761 27.9408C239.161 19.8075 250.895 14.0741 265.561 16.8741C269.695 17.5408 274.628 19.0075 276.628 20.0741C281.428 22.6075 281.428 22.6075 283.561 17.5408C287.428 8.07413 287.428 7.80746 282.095 5.5408C271.295 0.87413 256.495 -0.592537 245.295 2.07413Z" fill="white"/>
<path d="M0.361328 43.1408V84.6075H10.3613H20.3613V72.7408V60.8741L36.0947 60.3408C49.5613 59.9408 52.628 59.5408 58.228 56.6075C68.228 51.5408 72.4947 45.4075 73.2947 34.7408C74.4947 20.0741 69.2947 10.7408 56.4947 5.00745C52.7613 3.27412 45.828 2.74078 26.0947 2.20745L0.361328 1.67412V43.1408ZM48.3613 19.9408C53.1613 22.4741 55.9613 30.3408 54.0947 36.0741C51.828 43.0075 47.1613 45.0075 33.428 45.1408L21.028 45.2741L20.628 31.5408L20.228 17.9408H32.3613C40.4947 17.9408 45.6947 18.6075 48.3613 19.9408Z" fill="white"/>
<path d="M92.3613 43.1408V84.6075H101.695H111.028V72.6075V60.6075H120.361H129.561L137.695 72.6075L145.828 84.6075H156.495H167.295L164.095 80.2075C162.361 77.9408 157.961 71.8075 154.361 66.7408C148.361 58.2075 147.961 57.4075 150.228 56.0741C160.361 50.0741 164.361 43.0075 164.361 31.2741C164.361 18.6075 158.895 10.0741 147.695 5.14079C143.428 3.27412 137.295 2.74078 117.428 2.20745L92.3613 1.67412V43.1408ZM138.361 19.5408C142.228 21.2741 145.695 26.8741 145.695 31.2741C145.695 36.0741 141.961 41.5408 137.428 43.4075C134.895 44.4741 128.495 45.2741 122.361 45.2741H111.695L111.295 31.5408L110.895 17.9408H122.895C129.561 17.9408 136.495 18.6075 138.361 19.5408Z" fill="white"/>
<path d="M184.361 43.2741V84.6075H193.695H203.028V43.2741V1.94078H193.695H184.361V43.2741Z" fill="white"/>
<path d="M308.361 43.2741V84.6075H317.695H327.028V60.4741V36.2075L330.095 40.7408C331.695 43.2741 337.295 52.0741 342.361 60.2075C351.428 75.0075 351.828 75.2741 356.495 75.2741C361.428 75.2741 361.428 75.1408 373.161 55.5408L385.028 35.9408L385.428 60.2075L385.695 84.6075H395.028H404.361V43.2741V1.94078H395.961H387.428L372.361 27.1408C363.961 41.1408 356.761 52.2075 356.361 51.9408C355.828 51.6741 348.628 40.3408 340.361 26.7408L325.161 1.94078H316.761H308.361V43.2741Z" fill="white"/>
<path d="M456.881 9.18116C454.246 14.0954 451.306 19.5472 450.351 21.3517C445.157 31.0651 434.197 51.1829 433.93 51.5669C433.701 51.8356 434.044 52.1044 434.923 52.3731L436.221 52.7954L438.054 49.4553C439.047 47.6508 440.498 44.9249 441.3 43.466C442.102 41.9687 443.057 40.2026 443.401 39.5115C443.744 38.8588 444.164 38.2829 444.279 38.2829C444.432 38.2829 444.737 40.3178 445.004 42.7749C445.272 45.2704 445.654 48.5722 445.845 50.1079C446.456 54.9454 446.57 54.6383 443.439 55.1758C440.575 55.6749 435.992 55.4829 433.586 54.7919C432.822 54.5999 431.41 53.9088 430.417 53.2562C426.33 50.6838 426.598 46.2687 431.142 40.4713C432.822 38.2829 432.899 38.2446 434.35 38.4749C437.061 38.9356 439.314 36.9008 439.314 33.9829C439.314 32.9079 439.582 32.5624 440.995 31.641C442.14 30.9115 442.942 30.0285 443.515 28.8383C443.935 27.8401 444.241 26.9954 444.164 26.9187C444.088 26.8419 442.522 27.7249 440.727 28.9151C437.978 30.6812 437.329 30.9883 436.679 30.6428C435.61 30.0285 434.426 30.1053 433.204 30.8731C431.868 31.641 431.295 32.8696 431.295 34.866C431.295 36.1713 430.989 36.7472 429.576 38.3981C428.622 39.5115 427.209 41.6231 426.445 43.1588C425.338 45.4624 425.108 46.3454 425.108 48.3803C425.108 51.1446 425.643 52.4883 427.553 54.2544C429.92 56.5196 433.739 57.8633 437.787 57.8633C438.856 57.8633 439.696 57.9785 439.696 58.1321C439.658 58.4776 429.729 65.6187 429.538 65.4267C429.462 65.3499 429.997 64.1981 430.722 62.816C431.448 61.4722 432.059 60.2437 432.059 60.1285C432.059 59.7062 430.035 58.9767 429.767 59.2838C429.576 59.4374 428.736 60.9731 427.82 62.6624C426.941 64.3517 425.529 66.924 424.727 68.3446C423.084 71.3776 423.046 71.4928 423.963 71.8767C429.997 74.2571 461.616 86.274 461.845 86.274C462.418 86.274 499.995 71.8767 500.339 71.5312C500.568 71.3008 499.079 68.3829 493.122 57.5562C490.639 53.0258 488.501 49.0329 488.386 48.6106C488.234 48.1115 488.654 47.2285 489.761 45.8079C491.25 43.8883 491.48 43.7347 492.625 43.9267C496.138 44.5026 498.392 40.0106 496.024 37.2079C493.351 33.9829 488.463 36.4785 489.112 40.7017C489.341 42.0454 489.226 42.391 487.966 43.9267L486.553 45.6544L485.98 44.5794C485.675 43.9651 485.178 43.0437 484.873 42.5829L484.3 41.6615L483.422 42.5062L482.505 43.3892L483.575 45.5392L484.682 47.6892L482.353 50.4919C481.092 52.0276 479.908 53.3713 479.756 53.4481C479.641 53.5633 478.572 52.5267 477.464 51.1446C476.319 49.7624 475.326 48.649 475.211 48.649C475.097 48.649 474.6 48.9946 474.104 49.3785L473.149 50.1079L475.059 52.3347C478.228 56.0972 478.075 55.6749 476.892 57.7481C476.319 58.7463 475.211 60.5508 474.448 61.7026C473.684 62.8544 472.958 64.0062 472.882 64.2365C472.5 65.2731 463.526 79.7472 463.258 79.7472C463.106 79.7472 462.991 73.5276 463.029 65.9642L463.068 52.1812L465.321 51.1829C474.104 47.3821 484.682 38.974 488.654 32.716C491.098 28.8767 491.747 26.9187 491.556 23.9624C491.365 20.7374 490.143 19.0481 486.935 17.5508C485.484 16.8597 484.415 16.0151 483.956 15.2472C482.582 12.9821 479.947 12.7133 478.037 14.6329C477.121 15.5544 476.281 16.0151 475.02 16.1687C473.073 16.4758 473.149 16.399 473.76 17.7428C474.104 18.5106 474.448 18.7026 475.479 18.7026C476.433 18.7026 477.044 18.9713 477.694 19.816C478.228 20.4303 479.145 21.0062 479.794 21.1597C481.169 21.4285 483.345 20.6222 483.88 19.6624C484.338 18.8562 485.675 19.3553 487.584 21.0062C490.067 23.1946 489.761 26.5347 486.706 31.1419C484.071 35.0579 477.732 41.0472 472.92 44.1187L471.927 44.7329L467.459 39.2044L462.991 33.7142V21.0062C462.991 12.8285 463.144 8.33652 463.373 8.33652C463.602 8.33652 463.755 8.49009 463.755 8.64366C463.755 8.83562 466.695 14.4026 470.285 21.0446C473.913 27.6865 477.159 33.7526 477.579 34.5588C478.572 36.4401 478.763 36.5169 479.756 35.4419L480.596 34.5588L476.815 27.6865C474.753 23.8856 470.591 16.2071 467.536 10.5633C464.519 4.91956 461.96 0.274017 461.845 0.274017C461.731 0.274017 459.516 4.30527 456.881 9.18116ZM457.225 16.2454C456.805 17.8963 455.697 22.1196 454.781 25.6133C453.902 29.1071 452.26 35.4035 451.153 39.6267C450.045 43.8499 449.052 47.6892 448.938 48.1499C448.747 49.1865 448.098 49.3401 448.098 48.3419C448.098 47.9963 447.754 44.5794 447.334 40.8169L446.57 33.9446L450.16 27.1874C455.239 17.5892 457.798 12.9821 457.912 13.0972C457.988 13.1356 457.683 14.5562 457.225 16.2454ZM460.7 24.1928V33.9446L456.805 39.166C454.666 42.0838 452.871 44.349 452.795 44.2722C452.604 44.0803 456.117 29.9517 458.867 19.8544C459.287 18.2803 459.707 16.6294 459.822 16.2071C460.127 14.8633 460.28 14.4794 460.509 14.4794C460.623 14.4794 460.7 18.8562 460.7 24.1928ZM436.641 33.6758C436.947 34.2133 436.947 34.674 436.641 35.2115C435.916 36.5553 433.586 35.9794 433.586 34.4437C433.586 32.9079 435.916 32.3321 436.641 33.6758ZM466.314 41.6999C467.841 43.5812 469.178 45.3472 469.292 45.6928C469.483 46.0767 468.681 46.691 466.466 47.8428C464.786 48.6874 463.335 49.4169 463.22 49.4169C463.106 49.4169 462.991 46.9213 462.991 43.8499C462.991 40.7785 463.106 38.2829 463.297 38.3213C463.449 38.3213 464.824 39.8571 466.314 41.6999ZM494.458 39.1276C495.375 40.6633 492.778 42.199 491.747 40.7401C491.098 39.8571 491.136 39.6267 491.861 38.8588C492.625 38.091 493.885 38.2446 494.458 39.1276ZM460.7 44.541V50.4535L459.669 50.9142C457.95 51.7204 450.695 54.0624 450.504 53.8704C449.931 53.2946 451.649 50.3383 455.697 44.8865C458.218 41.4696 460.394 38.6669 460.509 38.6669C460.623 38.6669 460.7 41.316 460.7 44.541ZM490.639 58.3624C492.702 62.1249 494.305 65.2731 494.229 65.3499C494.191 65.4267 491.518 63.3919 488.386 60.8579C485.217 58.324 482.429 56.174 482.2 56.0588C481.398 55.7517 481.589 55.3678 483.842 52.7187C485.789 50.4151 486.057 50.2231 486.477 50.8374C486.706 51.2213 488.615 54.5999 490.639 58.3624ZM460.7 56.1356C460.7 57.5178 460.623 58.6312 460.547 58.6312C460.433 58.6312 454.055 60.5892 450.084 61.8562C449.205 62.1633 449.205 62.1249 449.32 59.5526L449.434 56.9419L452.871 55.9437C454.781 55.3678 457.072 54.6383 458.027 54.2928C460.7 53.3329 460.7 53.3329 460.7 56.1356ZM446.57 60.1285V62.816L440.957 64.5821C437.825 65.5419 434.541 66.6169 433.624 66.924C432.67 67.1928 431.868 67.3847 431.791 67.3463C431.524 67.0776 445.234 57.5178 445.921 57.4794C446.494 57.4794 446.57 57.8633 446.57 60.1285ZM486.553 62.6624C489.761 65.1579 492.32 67.2696 492.243 67.3463C492.167 67.4231 489.303 66.6169 485.866 65.5803C482.429 64.5053 479.488 63.6222 479.336 63.6222C479.183 63.6222 478.801 64.1213 478.496 64.6972L477.961 65.7722L485.713 68.1526C489.952 69.4579 493.656 70.5329 493.885 70.5329C494.955 70.5329 494.115 71.3008 492.32 71.9919C484.109 75.0633 465.855 82.1276 465.55 82.3196C464.786 82.7803 465.702 81.1294 472.844 69.3812C477.044 62.4321 480.138 57.6713 480.367 57.8249C480.596 57.9785 483.384 60.1669 486.553 62.6624ZM460.7 70.5329C460.7 75.6008 460.547 79.7472 460.394 79.7472C459.974 79.7472 450.656 65.5035 450.618 64.8124C450.58 64.4285 451.993 63.8142 455.163 62.816C457.683 62.0097 459.974 61.3571 460.242 61.3571C460.585 61.3187 460.7 63.3919 460.7 70.5329Z" fill="white"/>
</svg>
