<svg width="361" height="348" viewBox="0 0 361 348" fill="none" xmlns="http://www.w3.org/2000/svg">
<path d="M171.115 233.745C160.496 236.258 154.348 244.264 155.839 253.665C156.957 260.74 163.011 264.743 177.543 268.094C189.466 270.887 192.54 274.052 187.696 278.799C185.74 280.847 184.622 281.126 178.66 281.126C172.233 281.126 169.532 280.289 159.751 275.914C158.82 275.541 154.628 282.895 154.628 284.85C154.628 286.339 161.614 289.411 168.321 290.994C186.857 295.369 203.065 287.456 203.065 274.052C203.065 266.325 197.756 261.299 186.578 258.413C171.302 254.503 170.37 254.131 169.345 251.804C166.83 246.125 175.028 242.122 185.274 244.077C188.162 244.543 191.608 245.567 193.005 246.311C196.359 248.08 196.359 248.08 197.849 244.543C200.55 237.934 200.55 237.747 196.824 236.165C189.279 232.907 178.94 231.883 171.115 233.745Z" fill="white"/>
<path d="M0 262.416V291.366H6.9862H13.9724V283.081V274.796L24.964 274.424C34.3721 274.145 36.5145 273.866 40.4268 271.818C47.413 268.28 50.3938 263.998 50.9527 256.551C51.791 246.311 48.1582 239.795 39.2158 235.792C36.6077 234.582 31.7639 234.21 17.9778 233.838L0 233.465V262.416ZM33.5337 246.218C36.8871 247.987 38.8432 253.479 37.5392 257.482C35.9556 262.323 32.6954 263.719 23.101 263.812L14.4381 263.905L14.1587 254.317L13.8792 244.822H22.3558C28.0379 244.822 31.6708 245.287 33.5337 246.218Z" fill="white"/>
<path d="M64.2729 262.416V291.366H70.7934H77.3138V282.988V274.61H83.8343H90.2616L95.9437 282.988L101.626 291.366H109.078H116.623L114.387 288.294C113.176 286.712 110.102 282.43 107.587 278.892C103.396 272.935 103.116 272.376 104.7 271.445C111.779 267.256 114.574 262.323 114.574 254.131C114.574 245.287 110.754 239.33 102.93 235.886C99.9491 234.582 95.6643 234.21 81.785 233.838L64.2729 233.465V262.416ZM96.4094 245.939C99.1108 247.149 101.533 251.059 101.533 254.131C101.533 257.482 98.9245 261.299 95.7574 262.602C93.9876 263.347 89.5164 263.905 85.2315 263.905H77.7796L77.5001 254.317L77.2207 244.822H85.6041C90.2616 244.822 95.1054 245.287 96.4094 245.939Z" fill="white"/>
<path d="M128.546 262.509V291.366H135.066H141.587V262.509V233.651H135.066H128.546V262.509Z" fill="white"/>
<path d="M215.175 262.509V291.366H221.695H228.216V274.517V257.575L230.358 260.74C231.476 262.509 235.388 268.653 238.928 274.331C245.262 284.664 245.541 284.85 248.802 284.85C252.248 284.85 252.248 284.757 260.445 271.073L268.736 257.389L269.015 274.331L269.201 291.366H275.722H282.242V262.509V233.651H276.374H270.412L259.886 251.245C254.018 261.019 248.988 268.746 248.709 268.56C248.336 268.373 243.306 260.461 237.531 250.966L226.912 233.651H221.043H215.175V262.509Z" fill="white"/>
<path d="M313.121 248.499C309.116 257.342 304.458 267.489 302.875 271.119C301.198 274.657 298.59 280.521 297.006 283.966L294.119 290.296L301.198 290.016L308.184 289.737L310.513 283.873L312.842 278.101L327.28 278.287L341.718 278.566L344.047 284.338L346.376 290.203H353.734H361L355.877 279.218C352.989 273.26 350.008 266.837 349.263 265.069C347.866 261.904 346.096 257.994 337.899 240.587L334.173 232.488H327.28H320.387L313.121 248.499ZM332.124 256.598C334.266 261.438 335.943 265.906 335.943 266.651C335.943 267.582 333.8 267.861 327.094 267.861C322.25 267.861 318.244 267.489 318.244 267.024C318.244 266.558 319.083 264.138 320.107 261.624C324.672 251.012 327.001 246.451 327.653 247.103C328.025 247.568 330.074 251.757 332.124 256.598Z" fill="white"/>
<path d="M166.737 21.5965C160.31 33.5117 153.137 46.7303 150.809 51.1054C138.14 74.6567 111.406 123.435 110.754 124.366C110.196 125.017 111.034 125.669 113.176 126.321L116.343 127.345L120.815 119.246C123.236 114.871 126.776 108.262 128.732 104.724C130.688 101.094 133.017 96.8117 133.855 95.1361C134.694 93.5536 135.718 92.1573 135.998 92.1573C136.37 92.1573 137.116 97.091 137.768 103.049C138.42 109.099 139.351 117.105 139.817 120.828C141.307 132.558 141.587 131.813 133.949 133.116C126.962 134.326 115.785 133.861 109.916 132.185C108.053 131.72 104.607 130.044 102.185 128.462C92.2177 122.225 92.8698 111.52 103.955 97.4633C108.053 92.1573 108.239 92.0642 111.779 92.6228C118.393 93.7398 123.889 88.8061 123.889 81.7314C123.889 79.125 124.541 78.2872 127.987 76.0531C130.782 74.2844 132.738 72.1434 134.135 69.2576C135.16 66.8373 135.905 64.7894 135.718 64.6032C135.532 64.417 131.713 66.5581 127.335 69.4438C120.628 73.7259 119.045 74.4706 117.461 73.6328C114.853 72.1434 111.965 72.3295 108.985 74.1913C105.724 76.0531 104.327 79.0319 104.327 83.8725C104.327 87.0375 103.582 88.4338 100.135 92.4366C97.8067 95.1361 94.3602 100.256 92.4972 103.98C89.7959 109.565 89.237 111.706 89.237 116.64C89.237 123.342 90.5411 126.6 95.1985 130.882C100.974 136.374 110.289 139.632 120.163 139.632C122.771 139.632 124.82 139.912 124.82 140.284C124.727 141.122 100.508 158.436 100.042 157.971C99.856 157.785 101.16 154.992 102.93 151.641C104.7 148.383 106.19 145.404 106.19 145.125C106.19 144.101 101.253 142.332 100.601 143.077C100.135 143.449 98.0861 147.172 95.8506 151.268C93.7081 155.364 90.2616 161.601 88.3055 165.045C84.3001 172.399 84.2069 172.679 86.4425 173.61C101.16 179.381 178.288 208.518 178.847 208.518C180.244 208.518 271.903 173.61 272.741 172.772C273.3 172.213 269.667 165.138 255.136 138.888C249.081 127.903 243.865 118.222 243.585 117.198C243.213 115.988 244.237 113.847 246.939 110.403C250.572 105.748 251.13 105.376 253.925 105.841C262.495 107.238 267.99 96.3463 262.215 89.5508C255.695 81.7314 243.772 87.7822 245.355 98.0219C245.914 101.28 245.635 102.118 242.561 105.841L239.114 110.03L237.717 107.424C236.972 105.934 235.761 103.7 235.016 102.583L233.618 100.349L231.476 102.397L229.24 104.538L231.849 109.751L234.55 114.964L228.868 121.759C225.794 125.483 222.906 128.741 222.534 128.927C222.254 129.206 219.646 126.693 216.945 123.342C214.15 119.991 211.728 117.291 211.449 117.291C211.169 117.291 209.958 118.129 208.747 119.06L206.419 120.828L211.076 126.228C218.808 135.35 218.435 134.326 215.547 139.353C214.15 141.773 211.449 146.148 209.586 148.941C207.723 151.734 205.953 154.526 205.767 155.085C204.835 157.598 182.945 192.693 182.293 192.693C181.92 192.693 181.641 177.612 181.734 159.274L181.827 125.855L187.323 123.435C208.747 114.219 234.55 93.8329 244.237 78.6595C250.199 69.3507 251.782 64.6032 251.317 57.4354C250.851 49.616 247.87 45.5201 240.046 41.8897C236.506 40.2141 233.898 38.1662 232.78 36.3044C229.427 30.8122 222.999 30.1606 218.342 34.815C216.106 37.0491 214.057 38.1662 210.983 38.5385C206.232 39.2832 206.419 39.097 207.909 42.3551C208.747 44.2169 209.586 44.6823 212.101 44.6823C214.43 44.6823 215.92 45.334 217.504 47.3819C218.808 48.8713 221.043 50.2676 222.627 50.64C225.98 51.2916 231.29 49.3367 232.594 47.0095C233.711 45.0547 236.972 46.2648 241.629 50.2676C247.684 55.5737 246.939 63.6723 239.487 74.8429C233.059 84.3379 217.597 98.8597 205.86 106.307L203.438 107.796L192.54 94.3914L181.641 81.0798V50.2676C181.641 30.4398 182.014 19.5485 182.573 19.5485C183.131 19.5485 183.504 19.9209 183.504 20.2932C183.504 20.7587 190.677 34.2565 199.433 50.3607C208.282 66.465 216.199 81.1729 217.224 83.1278C219.646 87.6891 220.112 87.8753 222.534 85.2688L224.583 83.1278L215.361 66.465C210.331 57.2492 200.178 38.6316 192.726 24.9476C185.367 11.2637 179.126 -1.52588e-05 178.847 -1.52588e-05C178.567 -1.52588e-05 173.164 9.77425 166.737 21.5965ZM167.576 38.7247C166.551 42.7275 163.85 52.9672 161.614 61.4382C159.472 69.9092 155.466 85.1757 152.765 95.4154C150.063 105.655 147.642 114.964 147.362 116.081C146.896 118.594 145.313 118.967 145.313 116.546C145.313 115.709 144.474 107.424 143.45 98.3011L141.587 81.6384L150.343 65.2548C162.732 41.9828 168.973 30.8122 169.252 31.0914C169.438 31.1845 168.693 34.6288 167.576 38.7247ZM176.052 57.9939V81.6384L166.551 94.2983C161.335 101.373 156.956 106.865 156.77 106.679C156.304 106.214 164.874 71.9572 171.581 47.475C172.606 43.6584 173.63 39.6556 173.91 38.6316C174.655 35.3735 175.027 34.4426 175.586 34.4426C175.866 34.4426 176.052 45.0547 176.052 57.9939ZM117.368 80.9867C118.113 82.29 118.113 83.407 117.368 84.7103C115.598 87.9684 109.916 86.572 109.916 82.8485C109.916 79.125 115.598 77.7287 117.368 80.9867ZM189.745 100.442C193.471 105.003 196.731 109.286 197.011 110.123C197.476 111.054 195.52 112.544 190.118 115.336C186.019 117.384 182.479 119.153 182.2 119.153C181.92 119.153 181.641 113.102 181.641 105.655C181.641 98.2081 181.92 92.1573 182.386 92.2504C182.759 92.2504 186.112 95.9739 189.745 100.442ZM258.396 94.2053C260.632 97.9288 254.297 101.652 251.782 98.115C250.199 95.9739 250.292 95.4154 252.062 93.5536C253.925 91.6919 256.999 92.0642 258.396 94.2053ZM176.052 107.331V121.666L173.537 122.783C169.345 124.738 151.647 130.417 151.181 129.951C149.784 128.555 153.976 121.387 163.85 108.168C169.997 99.8836 175.307 93.0882 175.586 93.0882C175.866 93.0882 176.052 99.5113 176.052 107.331ZM249.081 140.842C254.111 149.965 258.023 157.598 257.837 157.785C257.744 157.971 251.224 153.037 243.585 146.893C235.854 140.749 229.054 135.536 228.495 135.257C226.539 134.512 227.005 133.582 232.501 127.158C237.251 121.573 237.903 121.108 238.928 122.597C239.487 123.528 244.144 131.72 249.081 140.842ZM176.052 135.443C176.052 138.795 175.866 141.494 175.679 141.494C175.4 141.494 159.844 146.242 150.157 149.313C148.014 150.058 148.014 149.965 148.294 143.728L148.573 137.398L156.956 134.978C161.614 133.582 167.203 131.813 169.532 130.975C176.052 128.648 176.052 128.648 176.052 135.443ZM141.587 145.125V151.641L127.894 155.923C120.256 158.25 112.245 160.856 110.009 161.601C107.681 162.253 105.724 162.718 105.538 162.625C104.886 161.973 138.327 138.795 140.003 138.701C141.401 138.701 141.587 139.632 141.587 145.125ZM239.114 151.268C246.939 157.319 253.18 162.439 252.993 162.625C252.807 162.811 245.821 160.856 237.437 158.343C229.054 155.737 221.882 153.596 221.509 153.596C221.136 153.596 220.205 154.806 219.46 156.202L218.156 158.808L237.065 164.58C247.404 167.745 256.44 170.351 256.999 170.351C259.607 170.351 257.558 172.213 253.18 173.889C233.153 181.336 188.627 198.464 187.882 198.93C186.019 200.047 188.255 196.044 205.674 167.559C215.92 150.71 223.465 139.167 224.024 139.539C224.583 139.912 231.383 145.218 239.114 151.268ZM176.052 170.351C176.052 182.639 175.679 192.693 175.307 192.693C174.282 192.693 151.554 158.157 151.461 156.481C151.368 155.55 154.814 154.061 162.545 151.641C168.693 149.686 174.282 148.103 174.934 148.103C175.773 148.01 176.052 153.037 176.052 170.351Z" fill="white"/>
<path d="M166.737 21.5965C160.31 33.5117 153.137 46.7303 150.809 51.1054C138.14 74.6567 111.406 123.435 110.754 124.366C110.196 125.017 111.034 125.669 113.176 126.321L116.343 127.345L120.815 119.246C123.236 114.871 126.776 108.262 128.732 104.724C130.688 101.094 133.017 96.8117 133.855 95.1361C134.694 93.5536 135.718 92.1573 135.998 92.1573C136.37 92.1573 137.116 97.091 137.768 103.049C138.42 109.099 139.351 117.105 139.817 120.828C141.307 132.558 141.587 131.813 133.949 133.116C126.962 134.326 115.785 133.861 109.916 132.185C108.053 131.72 104.607 130.044 102.185 128.462C92.2177 122.225 92.8698 111.52 103.955 97.4633C108.053 92.1573 108.239 92.0642 111.779 92.6228C118.393 93.7398 123.889 88.8061 123.889 81.7314C123.889 79.125 124.541 78.2872 127.987 76.0531C130.782 74.2844 132.738 72.1434 134.135 69.2576C135.16 66.8373 135.905 64.7894 135.718 64.6032C135.532 64.417 131.713 66.5581 127.335 69.4438C120.628 73.7259 119.045 74.4706 117.461 73.6328C114.853 72.1434 111.965 72.3295 108.985 74.1913C105.724 76.0531 104.327 79.0319 104.327 83.8725C104.327 87.0375 103.582 88.4338 100.135 92.4366C97.8067 95.1361 94.3602 100.256 92.4972 103.98C89.7959 109.565 89.237 111.706 89.237 116.64C89.237 123.342 90.5411 126.6 95.1985 130.882C100.974 136.374 110.289 139.632 120.163 139.632C122.771 139.632 124.82 139.912 124.82 140.284C124.727 141.122 100.508 158.436 100.042 157.971C99.856 157.785 101.16 154.992 102.93 151.641C104.7 148.383 106.19 145.404 106.19 145.125C106.19 144.101 101.253 142.332 100.601 143.077C100.135 143.449 98.0861 147.172 95.8506 151.268C93.7081 155.364 90.2616 161.601 88.3055 165.045C84.3001 172.399 84.2069 172.679 86.4425 173.61C101.16 179.381 178.288 208.518 178.847 208.518C180.244 208.518 271.903 173.61 272.741 172.772C273.3 172.213 269.667 165.138 255.136 138.888C249.081 127.903 243.865 118.222 243.585 117.198C243.213 115.988 244.237 113.847 246.939 110.403C250.572 105.748 251.13 105.376 253.925 105.841C262.495 107.238 267.99 96.3463 262.215 89.5508C255.695 81.7314 243.772 87.7822 245.355 98.0219C245.914 101.28 245.635 102.118 242.561 105.841L239.114 110.03L237.717 107.424C236.972 105.934 235.761 103.7 235.016 102.583L233.618 100.349L231.476 102.397L229.24 104.538L231.849 109.751L234.55 114.964L228.868 121.759C225.794 125.483 222.906 128.741 222.534 128.927C222.254 129.206 219.646 126.693 216.945 123.342C214.15 119.991 211.728 117.291 211.449 117.291C211.169 117.291 209.958 118.129 208.747 119.06L206.419 120.828L211.076 126.228C218.808 135.35 218.435 134.326 215.547 139.353C214.15 141.773 211.449 146.148 209.586 148.941C207.723 151.734 205.953 154.526 205.767 155.085C204.835 157.598 182.945 192.693 182.293 192.693C181.92 192.693 181.641 177.612 181.734 159.274L181.827 125.855L187.323 123.435C208.747 114.219 234.55 93.8329 244.237 78.6595C250.199 69.3507 251.782 64.6032 251.317 57.4354C250.851 49.616 247.87 45.5201 240.046 41.8897C236.506 40.2141 233.898 38.1662 232.78 36.3044C229.427 30.8122 222.999 30.1606 218.342 34.815C216.106 37.0491 214.057 38.1662 210.983 38.5385C206.232 39.2832 206.419 39.097 207.909 42.3551C208.747 44.2169 209.586 44.6823 212.101 44.6823C214.43 44.6823 215.92 45.334 217.504 47.3819C218.808 48.8713 221.043 50.2676 222.627 50.64C225.98 51.2916 231.29 49.3367 232.594 47.0095C233.711 45.0547 236.972 46.2648 241.629 50.2676C247.684 55.5737 246.939 63.6723 239.487 74.8429C233.059 84.3379 217.597 98.8597 205.86 106.307L203.438 107.796L192.54 94.3914L181.641 81.0798V50.2676C181.641 30.4398 182.014 19.5485 182.573 19.5485C183.131 19.5485 183.504 19.9209 183.504 20.2932C183.504 20.7587 190.677 34.2565 199.433 50.3607C208.282 66.465 216.199 81.1729 217.224 83.1278C219.646 87.6891 220.112 87.8753 222.534 85.2688L224.583 83.1278L215.361 66.465C210.331 57.2492 200.178 38.6316 192.726 24.9476C185.367 11.2637 179.126 -1.52588e-05 178.847 -1.52588e-05C178.567 -1.52588e-05 173.164 9.77425 166.737 21.5965ZM167.576 38.7247C166.551 42.7275 163.85 52.9672 161.614 61.4382C159.472 69.9092 155.466 85.1757 152.765 95.4154C150.063 105.655 147.642 114.964 147.362 116.081C146.896 118.594 145.313 118.967 145.313 116.546C145.313 115.709 144.474 107.424 143.45 98.3011L141.587 81.6384L150.343 65.2548C162.732 41.9828 168.973 30.8122 169.252 31.0914C169.438 31.1845 168.693 34.6288 167.576 38.7247ZM176.052 57.9939V81.6384L166.551 94.2983C161.335 101.373 156.956 106.865 156.77 106.679C156.304 106.214 164.874 71.9572 171.581 47.475C172.606 43.6584 173.63 39.6556 173.91 38.6316C174.655 35.3735 175.027 34.4426 175.586 34.4426C175.866 34.4426 176.052 45.0547 176.052 57.9939ZM117.368 80.9867C118.113 82.29 118.113 83.407 117.368 84.7103C115.598 87.9684 109.916 86.572 109.916 82.8485C109.916 79.125 115.598 77.7287 117.368 80.9867ZM189.745 100.442C193.471 105.003 196.731 109.286 197.011 110.123C197.476 111.054 195.52 112.544 190.118 115.336C186.019 117.384 182.479 119.153 182.2 119.153C181.92 119.153 181.641 113.102 181.641 105.655C181.641 98.2081 181.92 92.1573 182.386 92.2504C182.759 92.2504 186.112 95.9739 189.745 100.442ZM258.396 94.2053C260.632 97.9288 254.297 101.652 251.782 98.115C250.199 95.9739 250.292 95.4154 252.062 93.5536C253.925 91.6919 256.999 92.0642 258.396 94.2053ZM176.052 107.331V121.666L173.537 122.783C169.345 124.738 151.647 130.417 151.181 129.951C149.784 128.555 153.976 121.387 163.85 108.168C169.997 99.8836 175.307 93.0882 175.586 93.0882C175.866 93.0882 176.052 99.5113 176.052 107.331ZM249.081 140.842C254.111 149.965 258.023 157.598 257.837 157.785C257.744 157.971 251.224 153.037 243.585 146.893C235.854 140.749 229.054 135.536 228.495 135.257C226.539 134.512 227.005 133.582 232.501 127.158C237.251 121.573 237.903 121.108 238.928 122.597C239.487 123.528 244.144 131.72 249.081 140.842ZM176.052 135.443C176.052 138.795 175.866 141.494 175.679 141.494C175.4 141.494 159.844 146.242 150.157 149.313C148.014 150.058 148.014 149.965 148.294 143.728L148.573 137.398L156.956 134.978C161.614 133.582 167.203 131.813 169.532 130.975C176.052 128.648 176.052 128.648 176.052 135.443ZM141.587 145.125V151.641L127.894 155.923C120.256 158.25 112.245 160.856 110.009 161.601C107.681 162.253 105.724 162.718 105.538 162.625C104.886 161.973 138.327 138.795 140.003 138.701C141.401 138.701 141.587 139.632 141.587 145.125ZM239.114 151.268C246.939 157.319 253.18 162.439 252.993 162.625C252.807 162.811 245.821 160.856 237.437 158.343C229.054 155.737 221.882 153.596 221.509 153.596C221.136 153.596 220.205 154.806 219.46 156.202L218.156 158.808L237.065 164.58C247.404 167.745 256.44 170.351 256.999 170.351C259.607 170.351 257.558 172.213 253.18 173.889C233.153 181.336 188.627 198.464 187.882 198.93C186.019 200.047 188.255 196.044 205.674 167.559C215.92 150.71 223.465 139.167 224.024 139.539C224.583 139.912 231.383 145.218 239.114 151.268ZM176.052 170.351C176.052 182.639 175.679 192.693 175.307 192.693C174.282 192.693 151.554 158.157 151.461 156.481C151.368 155.55 154.814 154.061 162.545 151.641C168.693 149.686 174.282 148.103 174.934 148.103C175.773 148.01 176.052 153.037 176.052 170.351Z" fill="white"/>
<path d="M61.4786 310.915C48.5308 315.29 44.246 331.022 53.2814 341.261C54.865 343.03 57.2869 345.078 58.5909 345.823C65.1114 349.174 76.1962 348.243 81.5057 343.961L84.3001 341.727L82.2509 339.679L80.2947 337.631L76.9414 339.772C74.5195 341.168 72.0976 341.82 68.7442 341.82C63.621 341.727 60.7334 340.237 57.38 335.769C54.9581 332.511 54.865 325.157 57.1937 321.713C61.106 315.569 69.6757 313.8 76.4756 317.617L80.1084 319.665L82.2509 317.617L84.3001 315.476L81.9714 313.707C79.4564 311.659 71.6318 309.053 68.5579 309.053C67.4401 309.146 64.273 309.891 61.4786 310.915Z" fill="white"/>
<path d="M198.874 309.891C192.446 311.473 188.162 315.755 188.162 320.596C188.162 326.274 191.794 329.067 202.972 332.046C209.027 333.535 210.517 334.652 210.517 337.445C210.517 341.913 203.624 343.775 196.545 341.168C189.466 338.562 189.559 338.562 188.348 341.075C187.416 343.216 187.509 343.682 189.372 344.892C192.54 346.94 200.923 348.429 205.674 347.685C214.616 346.381 219.553 340.237 216.945 333.535C215.641 329.998 213.871 328.974 204.649 326.088C195.427 323.295 193.564 321.527 195.986 317.896C197.942 315.011 203.159 314.173 209.12 315.941C211.635 316.779 213.778 317.245 213.871 317.152C213.964 317.058 214.523 316.035 215.082 314.824C216.106 312.87 215.92 312.59 213.126 311.473C209.027 309.705 202.32 308.96 198.874 309.891Z" fill="white"/>
<path d="M241.443 310.822C232.966 313.707 228.216 320.13 228.216 328.508C228.216 334.373 229.427 337.538 233.153 341.448C237.065 345.543 239.953 346.94 245.541 347.685C254.018 348.895 262.308 345.078 266.127 338.376C269.295 332.883 269.108 323.575 265.848 318.827C262.588 313.893 260.166 312.125 254.856 310.449C248.988 308.681 247.498 308.681 241.443 310.822ZM255.695 317.431C261.191 320.782 263.147 328.043 260.445 334.652C256.44 344.147 239.953 344.054 235.947 334.466C233.153 327.671 236.32 319.106 242.654 316.5C246.1 315.011 252.528 315.476 255.695 317.431Z" fill="white"/>
<path d="M290.16 309.891C283.267 311.659 280.379 314.917 280.379 320.968C280.379 326.274 283.174 328.881 291.371 331.022C300.22 333.349 302.735 334.745 302.735 337.352C302.735 340.796 300.313 342.099 293.886 342.006C289.787 342.006 287.086 341.355 284.85 340.051L281.497 338.096L280.472 340.331C278.982 343.682 279.075 343.961 282.987 345.637C295.656 351.036 309.256 346.754 309.256 337.166C309.256 331.953 306.741 329.253 300.22 327.298C297.239 326.367 293.513 325.25 291.837 324.785C285.409 322.83 285.223 317.338 291.557 315.476C294.724 314.452 296.215 314.545 300.5 315.941C303.387 316.872 305.809 317.431 305.995 317.245C306.182 317.058 306.554 315.848 306.927 314.545C307.486 312.311 307.206 311.939 304.412 311.101C299.847 309.611 293.327 309.053 290.16 309.891Z" fill="white"/>
<path d="M96.0369 323.668C96.5026 339.213 97.5273 342.285 103.396 345.823C107.96 348.429 117.461 348.429 122.026 345.823C127.987 342.285 129.012 339.213 129.291 323.668L129.664 309.984H126.404H123.143L122.771 322.923C122.491 334.373 122.212 336.235 120.535 338.469C118.02 341.82 113.922 342.937 109.357 341.448C103.861 339.586 103.023 336.979 103.116 322.271V309.984H99.4834H95.7574L96.0369 323.668Z" fill="white"/>
<path d="M144.381 328.508V347.219H147.642H150.902V341.634V336.049H156.398H161.893L165.433 341.634C168.973 347.033 169.252 347.219 172.978 347.219H176.89L172.699 341.075C168.6 335.304 168.507 334.931 170.091 333.721C171.115 332.977 172.14 332.325 172.512 332.325C173.91 332.325 176.052 326.74 176.052 323.109C176.052 317.989 174.469 315.011 170.556 312.497C167.669 310.729 165.619 310.449 155.839 310.077L144.381 309.798V328.508ZM165.806 316.965C168.786 318.548 170.091 321.713 169.159 325.343C168.321 328.695 164.129 330.463 156.957 330.463H150.902V323.016V315.569H156.957C160.682 315.569 164.222 316.128 165.806 316.965Z" fill="white"/>
</svg>
