<svg width="500" height="166" viewBox="0 0 500 166" fill="none" xmlns="http://www.w3.org/2000/svg">
<path d="M244.933 1.80012C229.733 5.40012 220.933 16.8668 223.067 30.3334C224.667 40.4668 233.333 46.2001 254.133 51.0001C271.2 55.0001 275.6 59.5334 268.667 66.3334C265.867 69.2668 264.267 69.6668 255.733 69.6668C246.533 69.6668 242.667 68.4668 228.667 62.2001C227.333 61.6668 221.333 72.2001 221.333 75.0001C221.333 77.1334 231.333 81.5334 240.933 83.8001C267.467 90.0668 290.667 78.7334 290.667 59.5334C290.667 48.4668 283.067 41.2668 267.067 37.1334C245.2 31.5334 243.867 31.0001 242.4 27.6668C238.8 19.5334 250.533 13.8001 265.2 16.6001C269.333 17.2668 274.267 18.7334 276.267 19.8001C281.067 22.3334 281.067 22.3334 283.2 17.2668C287.067 7.80011 287.067 7.53345 281.733 5.26678C270.933 0.600113 256.133 -0.866554 244.933 1.80012Z" fill="white"/>
<path d="M0 42.8668V84.3334H10H20V72.4668V60.6001L35.7333 60.0668C49.2 59.6668 52.2667 59.2668 57.8667 56.3334C67.8667 51.2668 72.1333 45.1334 72.9333 34.4668C74.1333 19.8001 68.9333 10.4668 56.1333 4.73343C52.4 3.0001 45.4667 2.46677 25.7333 1.93343L0 1.4001V42.8668ZM48 19.6668C52.8 22.2001 55.6 30.0668 53.7333 35.8001C51.4667 42.7334 46.8 44.7334 33.0667 44.8668L20.6667 45.0001L20.2667 31.2668L19.8667 17.6668H32C40.1333 17.6668 45.3333 18.3334 48 19.6668Z" fill="white"/>
<path d="M92 42.8668V84.3334H101.333H110.667V72.3334V60.3334H120H129.2L137.333 72.3334L145.467 84.3334H156.133H166.933L163.733 79.9334C162 77.6668 157.6 71.5334 154 66.4668C148 57.9334 147.6 57.1334 149.867 55.8001C160 49.8001 164 42.7334 164 31.0001C164 18.3334 158.533 9.80009 147.333 4.86677C143.067 3.0001 136.933 2.46677 117.067 1.93343L92 1.4001V42.8668ZM138 19.2668C141.867 21.0001 145.333 26.6001 145.333 31.0001C145.333 35.8001 141.6 41.2668 137.067 43.1334C134.533 44.2001 128.133 45.0001 122 45.0001H111.333L110.933 31.2668L110.533 17.6668H122.533C129.2 17.6668 136.133 18.3334 138 19.2668Z" fill="white"/>
<path d="M184 43.0001V84.3334H193.333H202.667V43.0001V1.66676H193.333H184V43.0001Z" fill="white"/>
<path d="M308 43.0001V84.3334H317.333H326.667V60.2001V35.9334L329.733 40.4668C331.333 43.0001 336.933 51.8001 342 59.9334C351.067 74.7334 351.467 75.0001 356.133 75.0001C361.067 75.0001 361.067 74.8668 372.8 55.2668L384.667 35.6668L385.067 59.9334L385.333 84.3334H394.667H404V43.0001V1.66676H395.6H387.067L372 26.8668C363.6 40.8668 356.4 51.9334 356 51.6668C355.467 51.4001 348.267 40.0668 340 26.4668L324.8 1.66676H316.4H308V43.0001Z" fill="white"/>
<path d="M88 112.333C69.4666 118.6 63.3333 141.133 76.2666 155.8C78.5333 158.333 82 161.267 83.8667 162.333C93.2 167.133 109.067 165.8 116.667 159.667L120.667 156.467L117.733 153.533L114.933 150.6L110.133 153.667C106.667 155.667 103.2 156.6 98.4 156.6C91.0667 156.467 86.9333 154.333 82.1333 147.933C78.6666 143.267 78.5333 132.733 81.8666 127.8C87.4667 119 99.7333 116.467 109.467 121.933L114.667 124.867L117.733 121.933L120.667 118.867L117.333 116.333C113.733 113.4 102.533 109.667 98.1333 109.667C96.5333 109.8 92 110.867 88 112.333Z" fill="white"/>
<path d="M284.667 110.867C275.467 113.133 269.333 119.267 269.333 126.2C269.333 134.333 274.533 138.333 290.533 142.6C299.2 144.733 301.333 146.333 301.333 150.333C301.333 156.733 291.467 159.4 281.333 155.667C271.2 151.933 271.333 151.933 269.6 155.533C268.267 158.6 268.4 159.267 271.067 161C275.6 163.933 287.6 166.067 294.4 165C307.2 163.133 314.267 154.333 310.533 144.733C308.667 139.667 306.133 138.2 292.933 134.067C279.733 130.067 277.067 127.533 280.533 122.333C283.333 118.2 290.8 117 299.333 119.533C302.933 120.733 306 121.4 306.133 121.267C306.267 121.133 307.067 119.667 307.867 117.933C309.333 115.133 309.067 114.733 305.067 113.133C299.2 110.6 289.6 109.533 284.667 110.867Z" fill="white"/>
<path d="M345.6 112.2C333.467 116.333 326.667 125.533 326.667 137.533C326.667 145.933 328.4 150.467 333.733 156.067C339.333 161.933 343.467 163.933 351.467 165C363.6 166.733 375.467 161.267 380.933 151.667C385.467 143.8 385.2 130.467 380.533 123.667C375.867 116.6 372.4 114.067 364.8 111.667C356.4 109.133 354.267 109.133 345.6 112.2ZM366 121.667C373.867 126.467 376.667 136.867 372.8 146.333C367.067 159.933 343.467 159.8 337.733 146.067C333.733 136.333 338.267 124.067 347.333 120.333C352.267 118.2 361.467 118.867 366 121.667Z" fill="white"/>
<path d="M415.333 110.867C405.467 113.4 401.333 118.067 401.333 126.733C401.333 134.333 405.333 138.067 417.067 141.133C429.733 144.467 433.333 146.467 433.333 150.2C433.333 155.133 429.867 157 420.667 156.867C414.8 156.867 410.933 155.933 407.733 154.067L402.933 151.267L401.467 154.467C399.333 159.267 399.467 159.667 405.067 162.067C423.2 169.8 442.667 163.667 442.667 149.933C442.667 142.467 439.067 138.6 429.733 135.8C425.467 134.467 420.133 132.867 417.733 132.2C408.533 129.4 408.267 121.533 417.333 118.867C421.867 117.4 424 117.533 430.133 119.533C434.267 120.867 437.733 121.667 438 121.4C438.267 121.133 438.8 119.4 439.333 117.533C440.133 114.333 439.733 113.8 435.733 112.6C429.2 110.467 419.867 109.667 415.333 110.867Z" fill="white"/>
<path d="M137.467 130.6C138.133 152.867 139.6 157.267 148 162.333C154.533 166.067 168.133 166.067 174.667 162.333C183.2 157.267 184.667 152.867 185.067 130.6L185.6 111H180.933H176.267L175.733 129.533C175.333 145.933 174.933 148.6 172.533 151.8C168.933 156.6 163.067 158.2 156.533 156.067C148.667 153.4 147.467 149.667 147.6 128.6V111H142.4H137.067L137.467 130.6Z" fill="white"/>
<path d="M206.667 137.533V164.333H211.333H216V156.333V148.333H223.867H231.733L236.8 156.333C241.867 164.067 242.267 164.333 247.6 164.333H253.2L247.2 155.533C241.333 147.267 241.2 146.733 243.467 145C244.933 143.933 246.4 143 246.933 143C248.933 143 252 135 252 129.8C252 122.467 249.733 118.2 244.133 114.6C240 112.067 237.067 111.667 223.067 111.133L206.667 110.733V137.533ZM237.333 121C241.6 123.267 243.467 127.8 242.133 133C240.933 137.8 234.933 140.333 224.667 140.333H216V129.667V119H224.667C230 119 235.067 119.8 237.333 121Z" fill="white"/>
<path d="M456.52 8.90714C453.885 13.8214 450.944 19.2732 449.99 21.0777C444.796 30.7911 433.836 50.9089 433.569 51.2929C433.339 51.5616 433.683 51.8304 434.561 52.0991L435.86 52.5214L437.693 49.1813C438.686 47.3768 440.137 44.6509 440.939 43.192C441.741 41.6946 442.696 39.9286 443.039 39.2375C443.383 38.5848 443.803 38.0089 443.918 38.0089C444.07 38.0089 444.376 40.0438 444.643 42.5009C444.91 44.9964 445.292 48.2982 445.483 49.8339C446.094 54.6714 446.209 54.3643 443.077 54.9018C440.213 55.4009 435.631 55.2089 433.225 54.5179C432.461 54.3259 431.048 53.6348 430.055 52.9821C425.969 50.4098 426.236 45.9946 430.781 40.1973C432.461 38.0089 432.538 37.9705 433.989 38.2009C436.7 38.6616 438.953 36.6268 438.953 33.7089C438.953 32.6339 439.22 32.2884 440.633 31.367C441.779 30.6375 442.581 29.7545 443.154 28.5643C443.574 27.5661 443.879 26.7214 443.803 26.6446C443.727 26.5679 442.161 27.4509 440.366 28.6411C437.617 30.4071 436.967 30.7143 436.318 30.3688C435.249 29.7545 434.065 29.8312 432.843 30.5991C431.506 31.367 430.934 32.5955 430.934 34.592C430.934 35.8973 430.628 36.4732 429.215 38.1241C428.26 39.2375 426.847 41.3491 426.084 42.8848C424.976 45.1884 424.747 46.0714 424.747 48.1063C424.747 50.8705 425.282 52.2143 427.191 53.9804C429.559 56.2455 433.378 57.5893 437.426 57.5893C438.495 57.5893 439.335 57.7045 439.335 57.858C439.297 58.2036 429.368 65.3446 429.177 65.1527C429.101 65.0759 429.635 63.9241 430.361 62.542C431.086 61.1982 431.697 59.9696 431.697 59.8545C431.697 59.4321 429.673 58.7027 429.406 59.0098C429.215 59.1634 428.375 60.6991 427.458 62.3884C426.58 64.0777 425.167 66.65 424.365 68.0705C422.723 71.1036 422.685 71.2188 423.601 71.6027C429.635 73.983 461.255 86 461.484 86C462.057 86 499.634 71.6027 499.978 71.2571C500.207 71.0268 498.718 68.1089 492.76 57.2821C490.278 52.7518 488.14 48.7589 488.025 48.3366C487.872 47.8375 488.292 46.9545 489.4 45.5339C490.889 43.6143 491.118 43.4607 492.264 43.6527C495.777 44.2286 498.03 39.7366 495.663 36.9339C492.989 33.7089 488.101 36.2045 488.751 40.4277C488.98 41.7714 488.865 42.117 487.605 43.6527L486.192 45.3804L485.619 44.3054C485.314 43.6911 484.817 42.7696 484.512 42.3089L483.939 41.3875L483.06 42.2321L482.144 43.1152L483.213 45.2652L484.321 47.4152L481.991 50.2179C480.731 51.7536 479.547 53.0973 479.394 53.1741C479.28 53.2893 478.211 52.2527 477.103 50.8705C475.957 49.4884 474.965 48.375 474.85 48.375C474.735 48.375 474.239 48.7205 473.743 49.1045L472.788 49.8339L474.697 52.0607C477.867 55.8232 477.714 55.4009 476.53 57.4741C475.957 58.4723 474.85 60.2768 474.086 61.4286C473.322 62.5804 472.597 63.7321 472.521 63.9625C472.139 64.9991 463.164 79.4732 462.897 79.4732C462.744 79.4732 462.63 73.2536 462.668 65.6902L462.706 51.9071L464.959 50.9089C473.743 47.108 484.321 38.7 488.292 32.442C490.736 28.6027 491.386 26.6446 491.195 23.6884C491.004 20.4634 489.782 18.7741 486.574 17.2768C485.123 16.5857 484.053 15.7411 483.595 14.9732C482.22 12.708 479.585 12.4393 477.676 14.3589C476.759 15.2804 475.919 15.7411 474.659 15.8946C472.711 16.2018 472.788 16.125 473.399 17.4688C473.743 18.2366 474.086 18.4286 475.117 18.4286C476.072 18.4286 476.683 18.6973 477.332 19.542C477.867 20.1562 478.783 20.7321 479.433 20.8857C480.807 21.1545 482.984 20.3482 483.519 19.3884C483.977 18.5821 485.314 19.0813 487.223 20.7321C489.705 22.9205 489.4 26.2607 486.345 30.8679C483.71 34.7839 477.37 40.7732 472.559 43.8446L471.566 44.4589L467.098 38.9304L462.63 33.4402V20.7321C462.63 12.5545 462.783 8.0625 463.012 8.0625C463.241 8.0625 463.394 8.21607 463.394 8.36964C463.394 8.56161 466.334 14.1286 469.924 20.7705C473.552 27.4125 476.798 33.4786 477.218 34.2848C478.211 36.1661 478.402 36.2429 479.394 35.1679L480.235 34.2848L476.454 27.4125C474.392 23.6116 470.229 15.933 467.174 10.2893C464.157 4.64554 461.599 0 461.484 0C461.37 0 459.155 4.03125 456.52 8.90714ZM456.863 15.9714C456.443 17.6223 455.336 21.8455 454.419 25.3393C453.541 28.833 451.899 35.1295 450.791 39.3527C449.684 43.5759 448.691 47.4152 448.577 47.8759C448.386 48.9125 447.736 49.0661 447.736 48.0679C447.736 47.7223 447.393 44.3054 446.973 40.5429L446.209 33.6705L449.799 26.9134C454.878 17.3152 457.436 12.708 457.551 12.8232C457.627 12.8616 457.322 14.2821 456.863 15.9714ZM460.339 23.9188V33.6705L456.443 38.892C454.305 41.8098 452.51 44.075 452.434 43.9982C452.243 43.8063 455.756 29.6777 458.505 19.5804C458.926 18.0062 459.346 16.3554 459.46 15.933C459.766 14.5893 459.918 14.2054 460.148 14.2054C460.262 14.2054 460.339 18.5821 460.339 23.9188ZM436.28 33.4018C436.585 33.9393 436.585 34.4 436.28 34.9375C435.554 36.2812 433.225 35.7054 433.225 34.1696C433.225 32.6339 435.554 32.058 436.28 33.4018ZM465.952 41.4259C467.48 43.3071 468.816 45.0732 468.931 45.4188C469.122 45.8027 468.32 46.417 466.105 47.5688C464.425 48.4134 462.973 49.1429 462.859 49.1429C462.744 49.1429 462.63 46.6473 462.63 43.5759C462.63 40.5045 462.744 38.0089 462.935 38.0473C463.088 38.0473 464.463 39.583 465.952 41.4259ZM494.097 38.8536C495.013 40.3893 492.417 41.925 491.386 40.4661C490.736 39.583 490.774 39.3527 491.5 38.5848C492.264 37.817 493.524 37.9705 494.097 38.8536ZM460.339 44.267V50.1795L459.307 50.6402C457.589 51.4464 450.333 53.7884 450.142 53.5964C449.569 53.0205 451.288 50.0643 455.336 44.6125C457.856 41.1955 460.033 38.3929 460.148 38.3929C460.262 38.3929 460.339 41.042 460.339 44.267ZM490.278 58.0884C492.34 61.8509 493.944 64.9991 493.868 65.0759C493.83 65.1527 491.156 63.1179 488.025 60.5839C484.855 58.05 482.068 55.9 481.838 55.7848C481.037 55.4777 481.227 55.0938 483.481 52.4446C485.428 50.1411 485.695 49.9491 486.116 50.5634C486.345 50.9473 488.254 54.3259 490.278 58.0884ZM460.339 55.8616C460.339 57.2437 460.262 58.3571 460.186 58.3571C460.071 58.3571 453.694 60.3152 449.722 61.5821C448.844 61.8893 448.844 61.8509 448.958 59.2786L449.073 56.6679L452.51 55.6696C454.419 55.0938 456.711 54.3643 457.665 54.0188C460.339 53.0589 460.339 53.0589 460.339 55.8616ZM446.209 59.8545V62.542L440.595 64.308C437.464 65.2679 434.18 66.3429 433.263 66.65C432.308 66.9188 431.506 67.1107 431.43 67.0723C431.163 66.8036 444.872 57.2437 445.56 57.2054C446.133 57.2054 446.209 57.5893 446.209 59.8545ZM486.192 62.3884C489.4 64.8839 491.958 66.9955 491.882 67.0723C491.806 67.1491 488.941 66.3429 485.505 65.3062C482.068 64.2313 479.127 63.3482 478.974 63.3482C478.822 63.3482 478.44 63.8473 478.134 64.4232L477.6 65.4982L485.352 67.8786C489.591 69.1839 493.295 70.2589 493.524 70.2589C494.593 70.2589 493.753 71.0268 491.958 71.7179C483.748 74.7893 465.494 81.8536 465.188 82.0455C464.425 82.5063 465.341 80.8554 472.482 69.1071C476.683 62.158 479.776 57.3973 480.005 57.5509C480.235 57.7045 483.022 59.8929 486.192 62.3884ZM460.339 70.2589C460.339 75.3268 460.186 79.4732 460.033 79.4732C459.613 79.4732 450.295 65.2295 450.257 64.5384C450.219 64.1545 451.632 63.5402 454.801 62.542C457.322 61.7357 459.613 61.083 459.88 61.083C460.224 61.0446 460.339 63.1179 460.339 70.2589Z" fill="white"/>
</svg>
